<?xml version="1.0" standalone="no"?>
<!DOCTYPE svg PUBLIC "-//W3C//DTD SVG 1.1//EN" "http://www.w3.org/Graphics/SVG/1.1/DTD/svg11.dtd" >
<svg xmlns="http://www.w3.org/2000/svg" xmlns:xlink="http://www.w3.org/1999/xlink" version="1.1">
<metadata></metadata>
<defs>
<font id="myriadregular" horiz-adv-x="833" >
<font-face units-per-em="2048" ascent="1638" descent="-410" />
<missing-glyph horiz-adv-x="339" />
<glyph unicode="&#xfb01;" horiz-adv-x="890" d="M8 911q4 33 5 56.5t-1 33.5l31 -4q16 0 48 2t52 2q-6 92 10.5 174t59.5 143.5t116.5 97.5t182.5 36q20 0 76.5 -6t148.5 -47q0 -4 -1 -14.5t1 -22.5q-8 -10 -15 -28.5t-13.5 -38t-10.5 -36t-6 -22.5q-4 6 -23.5 12t-45 12.5t-54 11.5t-53.5 9q-53 -4 -80.5 -10t-66.5 -27 q-25 -57 -33 -121.5t-12 -126.5q12 -2 27.5 -3t45 -1h81.5h138q59 0 113.5 -1t67.5 1q-2 -31 -3 -65.5t-2 -93t-1 -150.5v-240v-164.5t-1.5 -141t-3.5 -104.5t-4 -54q-14 2 -43.5 4t-61.5 4t-57.5 4t-33.5 6q2 2 3 59.5t2 144.5t2 188.5t1 194.5v164.5v94.5q-25 -2 -65 -3 t-80.5 -1t-75.5 1t-49 3q-2 -20 -3.5 -81t-1.5 -143.5t1.5 -177t2.5 -181.5t2 -155.5t3 -99.5q-2 -6 -7.5 -18.5t-15.5 -16.5q-10 4 -34.5 9.5t-52.5 8.5t-51.5 6t-29.5 3q0 4 -1 62.5t-2 145.5t-2 189.5t-2 194.5t-1 160.5v89.5q-20 -4 -59 1t-56 13q-2 8 -4 23.5t-2 33.5z M35 885q8 2 26.5 1t38 -2t36 -4t20.5 -8q0 -6 1 -63t2 -142t2 -185.5t1 -193.5v-167t-2 -105q8 2 26.5 1t38 -3t38 -3t24.5 -1q0 25 1 71t1 107.5t1 131t1 141.5q0 74 -1 144.5t-2 128t-4 97t-8 52.5q12 2 64.5 2t112 -2t111.5 -4t65 0q0 -10 -1 -68.5t-2 -142.5t-2 -182.5 t-2 -190.5t-1 -168v-111q12 -2 33.5 -1t43 3t38 4.5t20.5 2.5v107.5t-1 165.5t-1 194.5v194.5t1 167t5 109q-10 2 -47 4t-88.5 3t-107.5 2t-105.5 1h-83t-39.5 2q-2 66 3 125t26.5 105t62.5 73t113 27q68 0 104.5 -4.5t71.5 -28.5q2 14 5 31.5t8 33t8 25.5t5 10 q-33 18 -72.5 23.5t-93.5 11.5q-96 -6 -156.5 -26.5t-105.5 -49.5q-51 -51 -76.5 -124.5t-25.5 -145.5l4 -60q-6 -20 -27 -45q-2 0 -14 1t-28.5 2.5t-33 2.5t-28.5 1q-4 -14 -4 -36v-42z" />
<glyph unicode="&#xfb02;" horiz-adv-x="890" d="M4 856v33.5t1 43t4 41t9 27.5q14 0 51 2.5t66 -2.5v46q2 74 18.5 145.5t55.5 127.5t103.5 92t164.5 36q14 0 27.5 -2t25.5 -2q31 -2 69 -4t75 -6t68.5 -14.5t52.5 -26.5q-2 -20 -4.5 -135t-2.5 -291q0 -100 1.5 -210t2.5 -216.5t2 -202.5t3 -169t5 -116t5 -43 q-6 -8 -13.5 -14t-15.5 -12q-2 -2 -24.5 -1t-52 1t-55 1t-34.5 -1q-6 23 -9 117t-5 225t-3 282.5t-2 287.5t-2 240.5t-1 141.5q-14 4 -30.5 8t-37.5 4q-68 0 -107.5 -22.5t-59 -58t-25.5 -79t-6 -83.5l10 -46q10 0 36.5 1.5t54.5 2.5t51.5 0t27.5 -8q6 -12 6 -116 q-4 -10 -10 -15.5t-19 -11.5q-4 0 -23.5 -1t-45 -1t-50 1t-38.5 5q2 -25 3 -89t3 -150.5t3 -182.5t1 -182q0 -94 -1 -165t-5 -87q-10 -6 -38 -7t-58.5 1t-59.5 3t-41 -1q0 39 1 113.5t3 165t3 185.5t2 177t2 140.5t1 74.5q-8 0 -26.5 -1t-40 -1h-41t-31.5 4zM43 934 q2 -29 6 -49q20 -6 59 -8.5t66 8.5q2 -8 4 -65.5t2 -141.5t-1 -183.5t-3 -192.5t-5 -168t-5 -109q6 2 23.5 2h38h38t23.5 2q2 29 2 103.5v169.5t-1 197.5t-1 187.5t1 140.5t3 55.5q14 -2 41.5 -2h57.5t54.5 1t34.5 3q4 16 2 44.5t-6 45.5h-38.5t-59.5 -1t-56.5 -3t-29.5 -4 q-2 23 -3 36t-1 39q0 133 57 206t162 83q6 0 25.5 -5t42 -11t42 -13.5t25.5 -11.5q-4 -51 -6 -152.5t-3 -226.5t-2 -261t0 -259t1 -220t2 -142q12 2 32.5 3t42 1h38h20.5q2 6 2 62.5v143.5t-1 197.5t-3 228t-3 233.5t-3 213t-4 168t-4 97q-47 23 -105.5 31t-109.5 18 q-84 -8 -149.5 -28.5t-112 -63.5t-74 -115.5t-39.5 -187.5q0 -23 -2 -33t-2 -26q-16 6 -49 7t-64 1q-4 -16 -2 -45z" />
<glyph horiz-adv-x="0" />
<glyph unicode="&#xd;" horiz-adv-x="339" />
<glyph unicode=" "  horiz-adv-x="339" />
<glyph unicode="&#x09;" horiz-adv-x="339" />
<glyph unicode="&#xa0;" horiz-adv-x="339" />
<glyph unicode="!" horiz-adv-x="425" d="M90 113q0 47 36 78.5t73 37.5q66 0 97.5 -37.5t47.5 -97.5q-16 -29 -27.5 -53.5t-27.5 -40.5q-14 -16 -37 -20.5t-43 -2.5l-82 23q-20 47 -28.5 66.5t-8.5 46.5zM96 1378q0 4 12.5 7.5t32 6.5t42 4t42.5 1q35 0 65 -5.5t40 -21.5q-4 0 -7.5 -43t-7.5 -113.5t-7 -160.5 t-5 -184.5t-3 -182.5t-1 -158q0 -66 2 -105.5t6 -43.5q0 -2 -10 -4t-23.5 -3t-29 -1h-27.5q-53 4 -68.5 8t-25.5 14q4 25 4 108t-2 193.5t-6 232.5t-8.5 223t-8.5 165.5t-6 62.5zM123 113q0 -4 2 -15.5t6 -25t10 -27.5t17 -22q16 0 28 -6.5t35 -16.5q27 2 41 15.5t21.5 29.5 t8.5 33.5t1 25.5q0 47 -15.5 73t-56.5 36q-12 0 -28.5 -7t-32 -19.5t-26.5 -31t-11 -42.5zM145 1348q0 -27 1 -97.5t3.5 -162t4.5 -196t3 -199.5t0 -171t-3 -112q14 4 46.5 4t57.5 -4q0 31 3 105.5t6 168.5t7.5 199.5t7.5 200t6 168t5 104.5q-10 -4 -29.5 -5t-41 -2 t-43.5 -1h-34z" />
<glyph unicode="&#x22;" horiz-adv-x="643" d="M86 1425l150 -6q10 2 19 5t15 8q6 -25 6 -43q0 -12 -2 -50.5t-6 -88.5t-8 -105t-7 -103.5t-4 -81t-1 -36.5q-8 -8 -25 -15q-29 6 -54.5 7.5t-49.5 5.5zM123 1384q2 -33 7 -96t9 -130.5t7.5 -127t3.5 -84.5h67q-4 27 -2 90.5t6 133t8 130t7 84.5h-113zM360 1411 q0 8 6.5 14.5t12.5 8.5q8 -4 46 -6.5t77 -2.5q31 0 43 7q4 -4 8 -12.5t2 -16.5q-2 0 -6 -52.5t-9 -123t-8.5 -142t-3.5 -110.5q0 -23 -1 -40t-5 -28q-4 2 -19.5 4t-33.5 4.5t-36.5 4.5t-29.5 4q-2 14 -6 56t-8 96t-8 112.5t-8 109t-7.5 82t-5.5 31.5zM412 1389 q4 -35 9 -97.5t9 -129t6 -126t2 -84.5q14 0 26.5 -1t27.5 -5q2 31 5 91.5t7 128t9 130t11 97.5z" />
<glyph unicode="#" horiz-adv-x="827" d="M35 487q2 10 7 27.5t5 28.5q2 -4 17.5 -7.5t37 -5.5t44 -3t40.5 1q2 16 6.5 53t10.5 78t11 81t9 65q-16 -2 -35.5 -2t-39 1t-35 2t-21.5 3q-8 12 -14 18q4 6 6 21.5t4 33t2 33t2 25.5q6 2 22.5 5t38 4t44 1t39.5 -2l61 389q12 0 30.5 4.5t34.5 4.5l78 -11q2 -10 -4 -64 t-14 -121t-17.5 -126t-15.5 -80q31 0 71 -1t56 5q4 23 12.5 84.5t16.5 128t13 119.5t3 59q14 -4 35.5 -4t43.5 2t39 4.5t23 4.5q2 -8 -2 -61.5t-11 -121t-17 -132t-17 -97.5q14 2 37 4t41.5 5t30.5 6t8 7q12 -6 18.5 -13t14.5 -13q-2 -4 -4 -19.5t-4 -34t-2 -35t4 -20.5 q-6 -6 -13.5 -11t-17.5 -15q-6 4 -24.5 7t-40 5t-41 1t-31.5 -3q-4 -23 -8.5 -63t-9.5 -83t-10 -79.5t-7 -51.5q10 0 32.5 2t46 4.5t44 4.5t29.5 2q-2 -12 0 -33t4 -42.5t3 -39.5t-1 -23q-4 -4 -12.5 -8t-14.5 -14q0 8 -15.5 12t-37 5t-43 -1t-35.5 -4q-2 -12 -7 -44 t-11.5 -74t-13.5 -89t-13 -87t-10 -68.5t-6 -34.5q-6 2 -29 1t-47.5 -3t-46 -2t-27.5 2q0 2 8 54t18.5 121t20.5 135.5t17 94.5q-20 -4 -64.5 -4t-71.5 4q-2 -10 -5 -41.5l-7 -73.5t-10 -89.5t-12.5 -88t-12.5 -70.5t-12 -38q-6 -4 -24.5 -7t-40 -4t-41 0t-27.5 5 q0 14 6 67.5t14.5 117t15.5 123.5t11 89q-29 4 -68 3t-49 -1q-14 0 -14 12q0 4 4 10.5t4 10.5q-4 10 -8 31.5t-2 31.5zM70 416q10 2 29.5 5t40 5t39 3t24.5 1q0 -4 -2 -30.5t-5 -66.5t-6.5 -87t-7.5 -92t-8 -81t-6 -53h55q4 12 10.5 46t12.5 76t12 88t10 85t7.5 67t3.5 32 q2 4 30.5 7t63.5 5t66.5 2t39.5 -2q0 -4 -6 -52t-14 -112.5t-15.5 -130t-9.5 -102.5h72q2 33 11 95t20.5 126.5t20.5 115t11 56.5q31 0 75 4t79 4q-4 10 -4 28.5v39.5q-16 0 -42 2t-50.5 3t-43 3t-20.5 2q0 8 6 58t15.5 107.5t18.5 107t15 55.5q6 4 21.5 7t37 4t44 0 t43.5 -3q0 14 2 29.5t-2 29.5q-10 0 -53 5t-93 3q-2 2 0.5 30t7.5 68t11 87t11 90t9.5 77.5t6.5 49.5l-68 -4q-2 -20 -10 -79t-17.5 -125.5l-17.5 -122.5t-8 -71q0 -4 -29 -5t-63.5 -1h-64.5t-32 2q-2 14 0 47t6.5 75t10.5 88t12 85t10 67.5t6 35.5h-63q-6 -23 -17.5 -84.5 t-21.5 -128t-18.5 -122t-10.5 -63.5q-35 2 -73.5 4t-75.5 7q-4 -14 -6 -38t2 -40h38.5t51 -1t47 -1h24.5q-4 -8 -11 -51.5t-14 -98.5t-14.5 -110.5t-7.5 -90.5q-6 2 -25.5 5.5t-43 4.5t-48 2t-38.5 -1v-30.5t-4 -51.5zM303 494q0 31 4 82t10.5 104t10.5 98t4 62h213 q-4 -2 -8.5 -28t-9.5 -62.5t-8 -79.5t-8 -79t-9 -60.5t-8 -24.5h-5q0 -4 -23.5 -5t-55 -2t-62.5 -2t-45 -3zM326 535h25.5h38t41 1t36.5 3q2 20 5 55t8 73t8.5 73.5t5.5 58.5l-132 14q-2 -20 -7 -58t-11 -80t-11 -81t-7 -59z" />
<glyph unicode="$" d="M86 102q0 8 6 31t14.5 48.5t17.5 48t15 30.5q88 -61 144.5 -69.5t78.5 -8.5q57 0 93.5 17.5t55.5 47t25.5 67.5t6.5 81q0 72 -40 123t-122 103q-102 51 -156.5 97t-80 87t-29.5 81t-4 81q0 133 59 217t170 108q2 8 3 27.5t1 43v46.5v41q0 16 1 32.5t5 20.5t22.5 4h22.5 q23 0 39.5 -2t30.5 -10q8 2 13 4t9 4q4 -12 6.5 -20t0.5 -25q0 -16 -1 -38.5t-2.5 -44t-2.5 -40t-3 -26.5q59 -6 121 -19.5t101 -48.5q-6 -12 -15.5 -32.5t-17.5 -43t-16.5 -40t-10.5 -23.5q-41 27 -84 35t-100 14q-4 0 -34 -4t-63.5 -19.5t-60 -44t-26.5 -79.5 q0 -49 15 -84t41.5 -60.5t63.5 -47t82 -44.5q115 -63 178.5 -146t63.5 -186v-37q0 -135 -62.5 -235.5t-185.5 -138.5q0 -20 1 -52t3 -63t4 -54.5t6 -27.5q-10 -4 -22 -4t-27 -2q-29 0 -53.5 2t-46.5 12v27.5v57.5t-1 62.5t-3 47.5q-88 0 -156.5 20.5t-93.5 50.5zM129 125 q37 -16 91 -35.5t108 -19.5q12 2 20 1t19 -5v-49v-62t1 -57.5t1 -38.5q20 0 46.5 -4.5t37.5 -4.5q0 16 -1 50t-3.5 69t-6.5 62.5t-8 31.5q137 27 197.5 117t60.5 205q0 10 2 20.5t2 20.5q0 51 -14 94t-42 80t-69 72t-96 69q-57 25 -100 48.5t-72 50t-43 59.5t-14 78 q0 92 56 151.5t138 59.5q6 0 31 -3t55.5 -8.5t61 -13.5t51.5 -20q6 16 14.5 40.5t8.5 41.5q-18 18 -51 29.5t-66 17.5t-59.5 7t-32.5 -1q6 12 8 35.5t2 51.5t-1 54.5t-3 42.5h-34t-44 4v-50t-2 -64.5t-4 -60t-8 -36.5q-43 -10 -85 -31.5t-75 -58.5t-53.5 -90t-20.5 -127 q0 -57 20.5 -99t55.5 -76t80 -62.5t96 -55.5q96 -59 145.5 -125.5t49.5 -148.5v-23q0 -41 -17.5 -75.5t-32.5 -71.5q-29 -35 -66.5 -45t-72.5 -10q-31 0 -92 8t-139 55q-10 -20 -17.5 -50t-13.5 -44z" />
<glyph unicode="%" horiz-adv-x="1372" d="M43 944q14 193 89 304.5t192 107.5q37 -6 90 -22.5t88 -51.5q25 -20 43 -55t32.5 -79t21.5 -95.5t7 -102.5q0 -74 -17.5 -149.5t-51 -135t-85 -97.5t-120.5 -38q-59 -2 -109.5 29t-89.5 86t-62.5 132t-27.5 167zM92 905q0 -76 17.5 -137t46 -105.5t65.5 -68t78 -23.5h41 q39 0 79 20.5t73.5 65.5t57 114t30.5 165q0 31 -11.5 95.5t-37 129t-66.5 113.5t-103 49h-18t-18 -4q-33 8 -69 -8.5t-56 -50.5q-41 -35 -62.5 -74t-32 -84t-12.5 -94.5t-2 -102.5zM178 977q0 33 7.5 82t23.5 94t42.5 75.5t67.5 28.5q16 8 41 3t52 -17q25 -29 40 -65.5 t22 -76.5t11 -80t9 -71q-4 -35 -8.5 -77t-13.5 -81.5t-25.5 -73.5t-43.5 -48q-8 -27 -28.5 -37t-42.5 -21q-51 0 -81 42t-46.5 100.5t-21.5 120t-5 102.5zM205 905q0 -78 17.5 -140.5t58.5 -90.5q4 -6 14 -9t18 -3q43 0 69 28.5t38 75.5t15 109.5t3 128.5q0 68 -9 120 t-40 68q-27 25 -39 32t-28 1q-12 2 -19.5 1t-21.5 -12q-35 -37 -55.5 -108.5t-20.5 -200.5zM254 -33q0 2 28.5 57.5t76 146.5t106.5 209t123.5 241.5t127 247.5t115 226.5t88.5 175t48 97.5q12 2 49 6t59 6q18 2 32.5 1t20.5 -1q-4 -8 -10 -17t-12 -17q-14 -29 -52 -100.5 t-89.5 -172t-112.5 -218.5t-123.5 -238.5t-122 -234.5t-106.5 -204t-78 -148.5t-37 -66.5q-6 2 -10 3t-10 7q-23 -8 -59 -9t-52 3zM287 -6l80 4q8 20 38.5 80.5t75.5 149.5t101.5 196.5t115 221.5t115.5 224.5t107.5 203.5t87 163t53.5 100q-16 -4 -32.5 -2t-31.5 4l-27 -53 q-28 -53 -73 -139t-102.5 -197.5t-120 -231.5t-125 -238t-114.5 -217t-92 -171t-56 -98zM776 381v33q0 84 17.5 157.5t51.5 127t81 82t108 24.5q8 4 17.5 8t23.5 2q35 0 78 -26.5t81 -78t63.5 -125t25.5 -167.5q0 -100 -22.5 -183t-60.5 -142.5t-89 -92.5t-109 -33 q-25 0 -68.5 16.5t-87.5 62.5t-77 126t-33 209zM809 354q0 -154 64.5 -247t160.5 -103q47 0 91 22.5t80 70.5t59.5 123t29.5 179q0 63 -18.5 131t-47 121.5t-64.5 88t-72 34.5q-6 0 -21 1t-27 -3q-39 8 -69.5 -6t-71.5 -37q-35 -51 -54.5 -104.5t-28.5 -104.5t-10 -94 t-1 -72zM899 346v29.5t4 23.5v56q0 39 5 85t19.5 86t42 65.5t72.5 21.5q55 -4 87 -45t47.5 -96.5t19.5 -110.5t4 -84q0 -33 -3 -71t-11 -73.5t-22.5 -66.5t-39.5 -45q-14 -16 -22 -28.5t-23 -12.5q-8 0 -12 1t-10 7q-55 0 -86 29.5t-47.5 70.5t-20.5 85t-4 73zM918 403 q6 -45 13 -88t15 -78.5t18.5 -60t24.5 -33.5q6 -20 26.5 -30.5t37.5 -14.5q39 8 60.5 47t30.5 87.5t11 93.5t4 65q-6 104 -18.5 167t-38.5 104q-18 4 -37 8t-31 14q-4 -10 -22.5 -12t-32.5 -15q-10 -12 -18.5 -38.5t-16.5 -61.5t-14 -75t-12 -79z" />
<glyph unicode="&#x26;" horiz-adv-x="1044" d="M37 358q10 117 59 227.5t162 190.5q-33 41 -50.5 76t-25.5 68.5t-9 69.5t-1 79q0 63 19.5 123.5t57.5 108t94 77t130 29.5q14 0 57 -8t89.5 -41t83 -98.5t36.5 -180.5q0 -98 -61.5 -182t-198.5 -164q51 -57 119 -152.5t141 -199.5q37 82 58.5 177t13.5 183 q10 8 18.5 14.5t18.5 12.5q8 -4 15 -4h11q53 4 80 5t37 -9v-10q0 -6 3 -12.5t7 -10.5q-23 -139 -58.5 -263t-98.5 -218q23 -25 49.5 -56.5t40.5 -54.5q18 -37 46 -74.5t44 -62.5q-20 -6 -44 -8t-46 -6q-39 -4 -74 0t-45 6q-4 10 -11 20t-16 10q-14 27 -31.5 40.5t-31.5 50.5 q-47 -66 -117.5 -101t-142.5 -35l-78 5q-63 0 -124.5 28.5t-108.5 69.5q-51 47 -79 120.5t-38 159.5zM86 389q0 -47 1 -81t9 -66.5t25.5 -69.5t50.5 -88q51 -45 115.5 -63.5t132.5 -18.5q74 4 152.5 40t144.5 110q6 -8 27.5 -30t45 -44.5t41 -42t17.5 -25.5l121 15 q-16 23 -39 51t-33 43q-6 8 -19.5 26.5t-28.5 38t-27.5 36t-16.5 20.5q51 82 97 204.5t67 270.5q-20 4 -58.5 4t-58.5 4q-2 -39 -8 -89t-19.5 -104.5t-34 -108.5t-49.5 -104q-35 47 -76.5 105.5t-79.5 114t-71 102.5t-49 76l-10 10t-4 10q0 8 18 25q117 80 173 152.5 t56 170.5q0 86 -15 139.5t-52 90.5q-35 25 -75 42t-91 17q-47 -10 -98.5 -30.5t-85.5 -55.5q-31 -31 -59.5 -87t-37.5 -134q4 -72 30 -145.5t79 -133.5q16 -12 16 -24q0 -4 -20 -17q-113 -68 -158 -163t-45 -193zM199 344l4 64q0 43 14 85t36.5 77.5t49 64.5t49.5 47 q76 -104 155 -221t157 -234q-14 -31 -40 -55.5t-56.5 -42.5t-64.5 -27.5t-65 -9.5q-37 -6 -79 12.5t-77.5 53.5t-59 83t-23.5 103zM225 389q-2 -86 22.5 -137t59.5 -79t76 -37t72 -13q47 14 94 39.5t82 73.5q-78 98 -147.5 203.5t-141.5 207.5q-16 -18 -37.5 -45t-39 -59.5 t-30 -71.5t-10.5 -82zM307 1102q0 86 43.5 137t100.5 55q51 -4 79.5 -22.5t42 -47t15.5 -67.5t2 -82q0 -66 -48 -139.5t-134 -144.5q-41 47 -60.5 95t-28 90t-9.5 75.5t-3 50.5zM338 1098q0 -8 3 -32t10 -57.5t20.5 -72.5t34.5 -78q78 57 122.5 113.5t44.5 115.5 q-6 39 -13 69t-18.5 51.5t-30.5 35t-50 17.5q-20 0 -42 -13.5t-40.5 -36t-29.5 -52.5t-11 -60z" />
<glyph unicode="'" horiz-adv-x="354" d="M86 1419q14 4 37.5 3t32.5 -1h62.5t31.5 4q20 0 22 -14q0 -2 -1 -28.5t-3 -67.5t-5 -91t-5 -97.5t-3 -85t-1 -54.5q0 -53 4 -57q-4 -8 -12 -13.5t-15 -9.5h-18t-32.5 2t-38 5.5t-31.5 7.5q2 8 1 47t-3.5 91t-5.5 112.5t-6 112.5t-6 89t-5 45zM137 1380l8 -217 q2 -41 3.5 -80t2.5 -70.5t1 -50.5v-20q12 0 27.5 -2t29.5 -2q6 12 11 68.5t9 127t7.5 141.5t5.5 109q-23 0 -52.5 -2t-52.5 -2z" />
<glyph unicode="(" horiz-adv-x="528" d="M96 598q2 164 30 296t66.5 234.5t80.5 178t75 129.5q6 0 27.5 -1t46 -4.5t46.5 -6.5t28 -7q-43 -61 -82 -141t-70 -182.5t-50.5 -228.5t-23.5 -277q2 -147 24.5 -269t55.5 -222.5t71 -181.5t71 -142q4 -6 2 -16.5t-15 -10.5q-31 0 -61.5 -2t-65.5 0q-37 49 -81 127 t-81.5 184.5t-64.5 242.5t-29 300zM141 543q0 -139 21.5 -257t53.5 -211t67.5 -164t64.5 -116q10 -4 39 -7t59 -7q-33 55 -68.5 133t-67 178.5t-52 222t-22.5 265.5q2 156 24.5 282.5t55 228t71.5 177t74 127.5h-90q-49 -78 -91 -161t-73 -183.5t-48.5 -224.5t-17.5 -283z " />
<glyph unicode=")" horiz-adv-x="528" d="M25 -238q82 117 126 241t63 241.5t22.5 226.5t3.5 195q0 129 -20.5 239.5t-50.5 203.5t-63.5 169t-62.5 131q10 16 33.5 17t46.5 1q16 0 30.5 -3t14.5 -7q6 4 13 6l14 4q25 -51 64.5 -124.5t76.5 -175t63.5 -231.5t26.5 -290v-16q-2 -152 -23.5 -280t-55.5 -232.5 t-75 -189.5t-84 -150q-12 0 -35.5 3t-50 6t-48 7t-29.5 8zM78 -217q25 0 41 -3t39 -7q37 49 77.5 121.5t74.5 170t56.5 219.5t22.5 273v33q2 158 -20.5 288t-56 231t-72.5 174t-72 118q-4 -8 -34 -11.5t-52 1.5q33 -61 68.5 -141.5t65.5 -178.5t50.5 -216t24.5 -253 q-10 -311 -72.5 -513t-140.5 -306z" />
<glyph unicode="*" horiz-adv-x="778" d="M33 979q0 8 2 31.5t6 51.5t8 52.5t8 30.5q43 -16 109.5 -26.5t124.5 -20.5q-12 25 -38 62.5t-50.5 74.5t-43 64.5t-20.5 31.5q6 10 23.5 24.5t37 28t36 23.5t20.5 12q10 -2 25.5 -29.5t34 -67.5t36 -83t29.5 -74q12 27 30.5 69t37 81t33 68.5t18.5 33.5q8 -6 27.5 -17 t40 -23.5t38 -26t21.5 -21.5q0 -2 -18.5 -30.5t-44 -66.5t-52.5 -77t-41 -61q27 6 65.5 13t75.5 14t65 12.5t34 9.5q14 -10 22 -17q-2 -39 2 -77.5t-6 -75.5q-6 0 -44 5t-83 11t-87 11.5t-56 7.5q10 -12 31.5 -40t48 -59.5t52 -60.5t44.5 -43q4 -10 4 -22.5t-4 -22.5 q-6 2 -23.5 -5t-39 -18.5t-42 -20.5t-30.5 -9q-6 2 -20.5 29.5t-32 65.5t-36 79t-30.5 69q-10 -27 -27.5 -68.5t-36 -81.5t-33 -71t-16.5 -33q-6 0 -28.5 11.5t-46 26t-42 28.5t-18.5 20q6 8 24.5 35t42 60.5t48 67.5t43.5 59q-29 -2 -70 -5.5t-80 -7.5t-69.5 -8t-38.5 -4z M66 1008q23 6 62.5 11t79.5 10t72.5 9t43.5 6q27 4 30 -4q0 -14 -22 -36q-8 -6 -30.5 -36t-47.5 -65l-47.5 -66.5t-32.5 -43.5q14 -8 41 -24.5t41 -31.5q12 25 30.5 64t34 76.5t25.5 69.5t8 44q14 23 27 29q8 -4 13 -7t9 -14q2 -18 16.5 -56t32 -78t35 -74.5t25.5 -47.5 l90 39q-8 12 -34.5 47t-55.5 72t-54.5 68.5t-31.5 38.5q-8 14 -4 24q6 4 14 5t19 3q8 0 41.5 -2t75.5 -6t79 -8t51 -6q4 20 6.5 47t2.5 43q-25 -6 -67 -13.5t-84 -14.5t-74.5 -14t-41.5 -13q-14 0 -20 12q-2 20 2 33q12 16 35.5 49t49.5 67.5t49.5 65.5t37.5 43 q-16 10 -41 22.5l-45 22.5q-12 -23 -28.5 -62.5t-33 -78.5t-30.5 -71t-21 -40q-6 -10 -8 -14t-8 -8q-17 12 -25 32q-2 6 -14 36t-26.5 67t-30 73.5t-23.5 61.5q-14 -6 -41.5 -21.5t-44.5 -23.5q10 -16 38 -53t55.5 -76t50 -68.5t24.5 -31.5q10 -10 8 -23q-12 -6 -30 0 q-16 6 -51 10t-73 7t-74 4.5t-54 1.5q0 -16 -1 -42t-5 -40z" />
<glyph unicode="+" horiz-adv-x="1220" d="M66 477q-2 10 1 26.5t7 37.5q4 20 7 47.5t13 42.5q33 -6 76 -8t127 -2q68 0 136.5 3t103.5 7q-2 18 -2 57t1 89t1 102.5v97.5t-1 74.5t-4 33.5q6 8 10.5 11.5t20.5 13.5q29 -8 73 -9t60 1q0 -12 -1 -32.5t-1 -54.5v-85v-129v-117t-4 -72q20 0 59 2t87.5 3t98.5 2.5 t92 1.5h69.5h29.5q4 2 12.5 1t12.5 -1q2 -16 4 -37t2 -39t-4 -40t-8 -38q-8 0 -47 1t-92.5 2t-112.5 2t-109 1l-104 -6l18 -463q-10 -2 -28.5 -4t-39 -4t-38 -4t-25.5 -4q-16 -4 -25.5 6t-4.5 24q-2 45 -3.5 112t-1.5 134.5v127v89.5q-16 -2 -68 -2h-122t-144.5 -1 t-131.5 -1zM109 508q35 4 90 4h120q45 0 90.5 -1t80 -2t56 -4t23.5 -5q2 -18 3 -57.5t2 -86.5t2.5 -97t1.5 -93q0 -45 -3.5 -82t-3.5 -57h91q-4 20 -5.5 61t-2.5 92t-1 105.5v100.5t-1 78t-3 36q18 2 83 2t141.5 1t147.5 3t101 6l4 78q-37 2 -104.5 3t-138 -1t-132 -4 t-85.5 -2q-8 27 -9 139q0 20 1 71.5t1 106.5v102.5t-2 61.5h-42.5t-43.5 4q-2 -23 -2 -65.5t-1 -94t-1 -105.5v-99v-77v-36h-36.5t-76.5 -1t-99.5 -2t-102.5 -2t-87 -2t-52 -1q-4 -23 -4 -45.5v-32.5z" />
<glyph unicode="," horiz-adv-x="401" d="M8 -274q23 53 45.5 120.5t41 137t29.5 138t11 124.5q16 2 28.5 2h24.5q41 0 92.5 9t79.5 13q-23 -76 -47 -152.5t-48.5 -146t-48 -128t-44.5 -97.5l-10 5t-15 7q-25 -10 -50 -15t-38 -5q-14 -6 -26.5 -6t-24.5 -6zM76 -225q14 4 29.5 6t25.5 2q20 27 48 78t54.5 114.5 t50 131t35.5 126.5q-23 -6 -62.5 -12t-68.5 -6q-10 -49 -24 -107.5t-30.5 -118t-32 -115.5t-25.5 -99z" />
<glyph unicode="-" horiz-adv-x="579" d="M51 475v29.5t1 50.5t4 47.5t7 22.5q20 -6 77 -7.5t127.5 -1.5h145t134.5 -2q-4 -16 -4 -53q0 -29 3 -53.5t11 -28.5q-4 -12 -18 -16q-6 2 -42 4t-85.5 3t-107.5 1h-109.5t-91.5 1t-52 3zM88 489q25 0 82 1.5t122.5 2.5t126 2t93.5 3q4 20 6 47.5t2 42.5q-8 -2 -37.5 -2 t-72.5 1t-92.5 2t-94.5 1t-82 1t-53 1v-103z" />
<glyph unicode="." horiz-adv-x="401" d="M84 94q0 10 4 35t19.5 50.5t45 45t83.5 19.5q45 0 70.5 -32t25.5 -77v-49q0 -53 -32 -83t-58 -30q-19 0 -33 -6q-43 4 -84 40t-41 87zM115 109q0 -29 10 -51.5t20 -43.5h24.5t43.5 -22q14 4 29.5 11t28 21.5t20.5 39t8 63.5q0 29 -25.5 51.5t-54.5 16.5q-8 4 -29.5 2 t-25.5 -2z" />
<glyph unicode="/" horiz-adv-x="595" d="M-18 -86q4 4 25.5 69.5t55 169t75.5 235.5t86 269.5t86 268.5t75 234.5t54.5 168t23.5 66.5q2 6 24.5 8t49 3t49 0t26.5 -3q-2 0 -23.5 -63.5t-54 -168t-74.5 -237.5t-85 -272.5t-84 -273.5t-75 -241.5t-55.5 -175t-23.5 -75.5q-6 2 -29.5 4t-50 3t-49 3t-26.5 8zM29 -70 q14 0 39.5 2t46.5 2q10 29 32.5 97.5t54 164t67.5 209t74 231.5t75 233.5t68.5 214t55 172t33.5 108.5q-29 6 -60.5 7t-39.5 1q-2 -16 -20.5 -81.5t-48 -164t-66.5 -219.5t-76 -246.5t-78 -247.5t-70.5 -222.5t-55 -170t-31.5 -90.5z" />
<glyph unicode="0" d="M45 600v68q4 326 99.5 504t279.5 194q51 -6 99 -26.5t85 -71.5q55 -49 90 -125t55.5 -163t27.5 -177t7 -170q0 -145 -28.5 -270t-79.5 -216.5t-121.5 -140.5t-152.5 -41q-84 0 -151 44t-113 127t-71.5 200t-25.5 264zM86 596q0 -143 21.5 -257t63.5 -191.5t103.5 -115.5 t139.5 -30q123 2 190.5 75t98 184.5t35.5 246.5t5 260q0 174 -35.5 294t-103.5 191q-45 31 -82 46.5t-94 21.5q-61 0 -103 -21.5t-87 -50.5q-57 -55 -88 -133t-45.5 -165t-16.5 -179t-2 -176zM193 686q0 162 23.5 265.5t57 163t71.5 82t65 22.5q51 0 86.5 -30t58.5 -76 t35 -100.5t18 -103.5t7 -86t1 -47l-4 -162q0 -88 -7 -182t-27.5 -169t-60.5 -121t-103 -40q-53 0 -91 41t-62.5 103.5t-38 136.5t-20.5 138.5t-8 110.5t-1 54zM233 592q0 -86 9.5 -172t32 -153.5t58.5 -104.5t91 -25q78 0 122 141.5t48 385.5q0 199 -28.5 314.5t-69.5 166.5 q-12 14 -21.5 21.5t-17.5 11.5t-17.5 8t-21.5 10q-35 -14 -51.5 -20.5t-28.5 -16.5q-53 -47 -76.5 -177t-28.5 -323v-67z" />
<glyph unicode="1" d="M124 1175.5q-3 6.5 1 6.5q10 0 20 -2q2 0 25 12t53.5 29.5t66.5 38t64.5 39t47 30.5t16.5 14q4 4 19.5 4.5t62.5 0.5q29 2 41 4t16 0t9 -3t9 -3q4 -4 -2 -23.5t-6 -42.5q0 -53 2 -159.5t3 -237.5t3.5 -271.5t2.5 -261.5q0 -74 -1.5 -139.5t-2.5 -116.5t-4 -80.5t-7 -29.5 q-8 4 -27.5 4t-44 -1t-51 -3t-47.5 -2q-2 6 -3 54t-3 111.5t-3 129t-1 108.5q0 111 1 229.5t1 224t1 187.5t1 119q-12 -12 -45 -31.5t-66.5 -39t-61.5 -33t-30 -13.5q-10 -2 -18 16q-2 6 -8 23.5t-12.5 37t-11.5 36t-5 20.5q-2 8 -5 14.5zM162 1163q10 -23 19 -49.5 t14 -50.5q20 12 52 31.5t62.5 39t52 35t25.5 21.5q10 4 17.5 5t13.5 -3q6 -6 2 -12v-48.5t1 -117t1 -165.5t1 -192.5t1 -199v-185.5v-252h25.5t36 1.5t37 2.5t28.5 5q-2 43 -2 148.5t-1 239.5t0 280.5t0 274.5t-1 221t-2 118q-14 -2 -32.5 -2t-35 1t-28 2t-11.5 3 q-10 -4 -48 -26.5t-84 -48.5t-88 -48.5t-56 -28.5z" />
<glyph unicode="2" d="M47 111q8 6 29.5 30.5t43 52t37 49t13.5 25.5q80 100 146.5 189.5t114.5 174.5t74.5 169t24.5 174q-4 45 -11 93t-30 71q-37 20 -69.5 33.5t-69.5 19.5q-76 -4 -120 -29.5t-78 -56.5q-10 0 -23 4q-6 23 -15.5 61.5t-15.5 73.5q27 35 93.5 75t185.5 48q37 2 97.5 -17.5 t118.5 -63.5t101 -116t43 -172q0 -104 -28.5 -200.5t-78.5 -187.5t-115.5 -177t-139.5 -170q0 -2 -7.5 -12t-17.5 -25.5t-21.5 -32t-19.5 -30.5q43 -2 103.5 -3t123 -2t119 -2t93.5 -3q2 -18 4 -45t3 -52.5t1 -46t-2 -26.5q-2 -2 -41 -1t-98.5 1t-131 1t-138 2t-121 2 t-77.5 1h-84q-6 2 -8 18.5t-2 37t-1 38.5t-5 27zM80 102q0 -14 2 -37.5t2 -39.5q35 0 92 -2.5t129 -2.5q59 0 121.5 1.5t119 2.5t102.5 2t71 3v90q-35 4 -96.5 5t-127 0t-126 -2t-90.5 -3q-12 0 -15.5 12t0.5 25q6 16 35 50t57 66q76 100 138.5 193.5t106.5 182.5t67.5 176 t23.5 180q0 39 -14 93t-48 103t-88.5 84t-133.5 35q-31 0 -66 -1t-70.5 -9.5t-73.5 -25.5t-77 -50q6 -16 15 -41t20 -41q35 25 74.5 44t82.5 19q31 0 50.5 -1t38 -5t40 -12t56.5 -22q31 -31 52 -87.5t21 -123.5q-2 -84 -29.5 -168t-76.5 -172t-119 -182.5t-153 -198.5 q-25 -29 -48 -56q-18 -23 -37.5 -46t-27.5 -38z" />
<glyph unicode="3" d="M37 43q12 10 20.5 30.5t15.5 43t11 45t6 39.5q6 -6 28.5 -17.5t54.5 -22.5t71 -19.5t78 -8.5q37 4 79.5 18.5t77.5 30.5q16 47 37 96.5t31 110.5q0 43 -16.5 87t-50.5 78t-83 55.5t-112 19.5q-16 8 -44 9t-36 -3q0 6 1 25.5t3 43t1 46t-3 34.5q10 4 24.5 9.5t26.5 5.5 q43 0 87 10t79 33.5t56.5 63.5t21.5 100q0 29 -7.5 68.5t-48.5 80.5q-14 16 -40.5 23.5t-94.5 7.5q-20 0 -44.5 -8.5t-49 -19.5t-49.5 -21.5t-45 -12.5q2 8 0 29t-6 42.5t-9.5 39.5t-7.5 22q23 31 58 50.5t73.5 30t79.5 13.5t78 3q49 0 102.5 -22.5t98.5 -63.5t74.5 -99.5 t29.5 -130.5q0 -16 -3 -53t-22.5 -82t-61.5 -92t-120 -84q117 -37 182.5 -124t69.5 -236q-16 -78 -43.5 -154t-68.5 -135q-43 -41 -89 -62.5t-90.5 -32t-86.5 -12.5t-76 -2q-66 0 -127.5 22.5t-89.5 37.5q-25 6 -31 14zM82 55q29 -23 79 -34t101 -11h76q90 0 156.5 30 t109.5 77t64.5 108.5t21.5 122.5q0 43 -4 94.5t-25.5 101.5t-67.5 93t-132 72q-23 6 -25 18q-4 16 15 27q55 20 94 46.5t63.5 61.5t39 80t20.5 100q0 43 -25 94.5t-66.5 95.5t-96 73.5t-113.5 29.5q-76 -16 -132.5 -37.5t-103.5 -37.5q4 -18 11.5 -46t11.5 -45 q37 16 79.5 33t96.5 17l41 4q53 0 84.5 -32t49 -73t22.5 -77.5t5 -47.5q0 -66 -26.5 -108.5t-66.5 -70.5t-86 -39t-83 -11q-10 -6 -26 -10q0 -10 -1 -36t-1 -46q6 0 11 1t13 5q135 0 216 -76t81 -209q0 -29 -1 -59.5t-9 -61t-23.5 -59.5t-46.5 -53q-25 -16 -73 -33.5 t-95 -26.5q-68 8 -120 23.5t-82 26.5q-4 -27 -14.5 -57t-16.5 -38z" />
<glyph unicode="4" d="M10 463q6 4 12.5 7t10.5 7q2 12 33.5 73.5t77.5 149.5t99.5 189.5t102.5 191.5t86 159t47 89l31 4q20 2 52 3t61 1h31.5t21.5 -8v-55t-1 -133t-2 -176.5t-2 -186.5t-2 -162.5t-1 -103.5h39.5h51t45 -2t21.5 -4q0 -4 -1 -25.5t-1 -47t-2 -50.5t-4 -37h-149q-2 -31 -3 -86 t-1 -112.5t1 -104.5t3 -59q-12 0 -34 1t-43.5 2t-38.5 2t-24 1q-12 0 -25.5 4t-23.5 14q4 8 6 49t2 93.5t-1 109.5t-3 100q-29 -2 -89 -4t-129.5 -4t-135.5 -1t-104 5q-2 25 -6.5 54.5t-8.5 52.5zM51 473q6 -4 7 -34.5t1 -51.5q133 -2 220.5 -3t138.5 -2t71.5 0t24.5 5 l10 -4q2 -6 1 -56.5t-4 -111.5t-6 -118.5t-5 -80.5h58.5t58.5 -4q2 10 4 59.5t5 110t6 114.5t5 77q4 4 19.5 5t36 1t41 1t36.5 3v51t4 47q-27 4 -73 3t-66 -7q-6 33 -10 96.5t-6 143.5t-3 167t-2 166.5t-1 145.5v100h-68t-53 -4q-14 -27 -53 -97.5t-88.5 -159.5t-103.5 -186 t-99 -180t-75 -137.5t-32 -58.5zM164 489q6 10 24.5 45t42 79t50 93.5t49 91.5t37 68.5t12.5 28.5q29 61 57.5 114.5t69.5 125.5q6 6 13 15t11 9t4.5 -11.5t2.5 -27.5q-4 -18 -7.5 -33.5t-4.5 -37t-1 -54v-86.5v-22q-4 -61 -3 -126t-5 -130q2 -41 2 -80t2 -66q-49 -8 -96 -9 t-76 1q-29 0 -60.5 1t-59 3t-45 4t-19.5 4zM217 518h62.5t78.5 -1t77 -3t57 -6q0 29 -1.5 91.5t-2.5 124.5t-4 112.5t-5 54.5q10 41 10 87t11 91h-4q-20 -55 -36 -98t-36 -84q-4 -2 -30.5 -49t-61.5 -108.5t-68 -122t-47 -89.5z" />
<glyph unicode="5" d="M43 45q0 12 5 33.5t12.5 44t13.5 41t8 24.5q14 -4 39.5 -12t55.5 -17t61.5 -17.5t60.5 -12.5q51 14 96 32.5t80 53.5q31 20 46.5 78.5t21.5 134.5q-6 252 -305 274q-10 -2 -30 -3t-40.5 -2t-38.5 -4t-27 -9q8 20 18.5 75.5t22 126t22.5 147.5t19.5 141.5t13.5 108.5t5 46 q4 4 42 7t92 5t116.5 3.5t115.5 1.5q59 0 98.5 -2.5t69.5 -2.5q-4 -8 -8 -12t-2 -10q-2 -4 -1 -26.5t2 -49t4 -50.5t5 -28q-6 -2 -58 -2h-116.5h-126t-82.5 -2q-4 -23 -11 -71t-15.5 -100t-15.5 -95t-13 -53q25 6 37 7t26 1q47 0 115 -21.5t133 -72.5q66 -47 100.5 -123 t34.5 -178q0 -43 -10 -95.5t-29.5 -102.5t-47 -97t-60.5 -80q-47 -41 -88 -62.5t-80 -32t-77 -12.5t-81 -2q-66 0 -124 21.5t-105 52.5zM80 53q41 -16 103.5 -30.5t121.5 -28.5q174 14 279.5 126.5t111.5 307.5q0 119 -41 195.5t-99 120.5t-121.5 60.5t-106.5 18.5h-30.5 t-35.5 2q0 31 7 91.5t17.5 122t21 111.5t14.5 60q2 -2 50 -5t110.5 -6t123 -6t86.5 -5l4 119q-27 2 -92 2t-139 -2t-141.5 -4.5t-96.5 -6.5q-2 -18 -7 -61t-13 -100.5t-17.5 -121t-17.5 -119.5t-15 -101t-10 -64q6 2 21.5 2h34h35t22.5 2q139 4 224 -71.5t85 -217.5 q0 -92 -21.5 -156.5t-54 -104.5t-72.5 -58.5t-77 -18.5q-27 0 -61.5 5.5t-69.5 12.5t-64.5 13t-46.5 10q-6 -20 -13 -47.5t-9 -46.5z" />
<glyph unicode="6" d="M37 547q0 203 54 347t134 238.5t170 144.5t164 62q31 4 72 5.5t57 11.5q4 -10 7 -36t5 -53.5t1 -51t-5 -31.5q-25 0 -44 -3t-36 -3q-10 0 -21 2t-28 6q-84 -23 -141 -75t-96 -115.5t-62.5 -130t-36.5 -122.5h5q25 45 54 69t63 35t69 13t70 2q47 0 91 -21.5t85 -60.5 q20 -23 41.5 -57.5t38 -77.5t26.5 -91t10 -97q0 -123 -28.5 -232.5t-87.5 -169.5q-51 -35 -100.5 -60.5t-102.5 -25.5q-72 0 -119 11.5t-77.5 28t-47 33.5t-26.5 32q-55 51 -86 124.5t-47.5 144.5t-20.5 127t-4 77zM68 502q0 -258 143 -424q41 -43 98.5 -56.5t122.5 -23.5 q78 2 136.5 39t99.5 99.5t64.5 143.5t29.5 169q-4 98 -38 171.5t-85 124.5q-37 41 -87 69t-99 26q-80 -10 -132.5 -47t-93.5 -97q-4 2 -16 2t-16 4q-10 6 -7 25q14 51 39 125t70 147.5t114.5 133t174.5 81.5h71q-4 20 -4 50t4 53q-123 -6 -230.5 -65.5t-186.5 -145.5 q-78 -111 -122 -260.5t-50 -325.5v-18zM199 532q0 51 22 68q23 72 70 103.5t119 41.5q84 -8 145 -82.5t61 -197.5l-4 -57q0 -86 -11 -159t-52 -116q-23 -25 -60.5 -37t-64.5 -4q-68 0 -112 39t-68.5 101.5t-34.5 141.5t-10 158zM229 487q8 -176 62.5 -264t140.5 -96 q74 8 118 86t44 203q0 88 -17.5 143t-47 87t-67.5 43t-79 11t-83 -35.5t-67 -86.5v-23v-26.5t-4 -41.5z" />
<glyph unicode="7" d="M66 1257q0 25 5 53.5t11 32.5h700q-4 -18 -7 -49.5t1 -62.5q-4 -10 -25.5 -66.5t-53 -142.5t-71.5 -193.5t-82 -219t-82 -219l-72 -193.5t-53.5 -141.5t-23.5 -63.5h-114q-10 0 -35 -2t-51 6q20 43 56 135t81 208t93 243t91 242.5t77 204.5t50 130q-18 2 -54 3t-79 1h-91 h-91h-103.5t-46.5 -4q0 4 -8 10.5t-14 12.5q-4 6 -6 29.5t-2 45.5zM100 1204q31 -4 97.5 -4h142.5h90t86 1t67.5 2t34.5 1q-2 -12 -30.5 -90t-71.5 -193.5t-94 -253t-100.5 -264.5t-89 -230t-60.5 -150h123q12 37 46 132t79 219t96 261t97 259t82 213t50 122q-6 14 -10 39.5 t0 38.5q-27 2 -77 2h-113.5t-132 -1t-130 -2t-110.5 -2t-72 -1q4 -20 4 -49t-4 -50z" />
<glyph unicode="8" d="M59 293v57q0 111 54.5 204.5t158.5 156.5q-66 37 -101.5 78.5t-52 83.5t-19.5 84t-3 79q0 70 27 128.5t73 101.5t107.5 66.5t130.5 23.5q12 6 41 2t61.5 -18.5t64.5 -36t50 -48.5q35 -25 54.5 -48t28.5 -51t10 -61.5t1 -80.5q0 -96 -41.5 -171t-134.5 -122 q98 -76 155.5 -166t66.5 -201q6 -88 -28 -151.5t-81 -118.5q-39 -41 -74 -62.5t-68.5 -30.5t-68.5 -11.5t-78 -2.5q-92 0 -155.5 37t-103.5 87.5t-57.5 103.5t-17.5 88zM82 287q0 -8 10 -52.5t45 -93.5t101.5 -89t177.5 -40q61 0 121.5 22.5t109.5 67.5t79 111t28 152 q0 63 -20.5 115t-52.5 94t-69.5 75t-72.5 58q-8 4 -15.5 5t-7.5 5t10.5 3t20.5 1q57 33 91 75t52.5 85t24.5 84t8 71q-10 63 -33.5 110.5t-60.5 92.5q-35 51 -86 68.5t-117 21.5q-16 0 -62.5 -8t-97.5 -41t-90 -96.5t-39 -175.5q0 -39 10.5 -80t31 -79t53 -69.5t75.5 -50.5 q10 -6 15.5 -8t5.5 -8t-10.5 -13.5t-22.5 -11.5q-92 -74 -149.5 -159t-57.5 -187zM213 377q0 90 51.5 162.5t147.5 117.5q35 -14 75.5 -40.5t74.5 -66.5t56.5 -93.5t22.5 -118.5q-10 -61 -29.5 -106.5t-60.5 -96.5q-27 -16 -56.5 -27.5t-76.5 -21.5q-35 6 -73 17.5t-54 48.5 q-55 47 -66.5 106t-11.5 119zM240 1018q10 102 61 157.5t129 65.5q80 -6 132 -64.5t52 -162.5q0 -29 -10 -66t-30.5 -73.5t-51 -67.5t-73.5 -47q-84 23 -146.5 86t-62.5 172zM246 309q0 -39 13 -74.5t36.5 -63.5t56.5 -43t74 -11q74 6 121 67.5t53 169.5q0 55 -17.5 94 t-45 70t-61 56.5t-68.5 50.5q-78 -43 -120 -130t-42 -186zM276 1008q0 -43 17.5 -77t43 -61.5t56.5 -49.5t56 -40q53 47 86.5 99.5t37.5 119.5q-6 61 -17 100.5t-32 80.5q-16 10 -47 17t-47 5q-35 2 -61.5 -13t-42.5 -32q-12 -6 -21.5 -22.5t-15.5 -38t-9.5 -45t-3.5 -43.5z " />
<glyph unicode="9" d="M53 887q0 104 29 191t77 149.5t112.5 97.5t138.5 35q61 -10 119.5 -31.5t97.5 -68.5q86 -63 128 -177t42 -268q0 -123 -36 -261t-104.5 -258t-167 -207t-223.5 -107q-18 -6 -33.5 -7.5t-31 -1.5t-31.5 -1t-39 -7v166q37 14 62.5 13t66.5 -1q45 23 92 46.5t99 62.5 q47 57 75.5 133t44.5 164q-43 -35 -92 -51.5t-114 -30.5q-47 8 -107.5 32.5t-103.5 75.5q-41 57 -67 133t-34 179zM76 887q4 -88 35.5 -166t68.5 -137q37 -23 78 -42.5t88 -19.5t78 1t56.5 10.5t51 27t62.5 51.5q10 4 18.5 7.5t14.5 -17.5q-14 -117 -54.5 -210t-99.5 -154 q-59 -51 -110.5 -81t-102.5 -51l-90 -4q4 -23 7 -46t-1 -48q16 4 40 4t44 4q137 23 232.5 104t154 192.5t83 240.5t18.5 248q0 70 -10.5 137.5t-28 125.5t-41 104t-47.5 75q-35 41 -73 56.5t-85 15.5h-62q-51 0 -108 -25.5t-105.5 -78t-80 -133.5t-31.5 -191zM211 928 q0 55 15.5 110.5t42 100.5t62.5 73.5t79 30.5q37 -4 66.5 -15t60.5 -40q35 -53 59.5 -136t24.5 -202l-5 -90q0 -25 -16 -52.5t-40.5 -51t-54.5 -39t-59 -15.5l-40 4q-98 0 -146.5 89t-48.5 233zM244 864q0 -113 45 -167t117 -54q57 0 109 27.5t75 81.5v57q-6 63 -10.5 116.5 t-12.5 96.5t-23.5 77t-43.5 58q-6 14 -17.5 21.5t-36.5 13.5q-6 2 -18 7t-18 7q-20 -4 -49 -12t-37 -29q-25 -37 -41.5 -81t-24.5 -86t-11 -77.5t-3 -56.5z" />
<glyph unicode=":" horiz-adv-x="401" d="M78 834q0 51 13 78.5t36 40t51.5 14.5t57.5 2q43 0 67.5 -34t30.5 -79q0 -43 -16.5 -71.5t-37 -46t-41 -23.5t-28.5 -6q-29 4 -50.5 8t-37.5 31q-10 16 -27.5 35.5t-17.5 50.5zM82 72l8 41q0 57 28.5 95t88.5 44q47 -4 77.5 -36t30.5 -77v-22q0 -10 2 -17.5t2 -17.5 q0 -29 -13 -48.5t-31.5 -32.5t-39 -20.5t-32.5 -7.5q-55 -6 -80 41q-23 4 -32 20.5t-9 37.5zM113 104q0 -16 10 -33.5t23.5 -31.5t28 -23.5t22.5 -11.5q37 0 57 16.5t28.5 35t9.5 34.5t1 19q-6 41 -23.5 71.5t-52.5 30.5q-31 0 -40 -13.5t-19 -25.5q-27 -8 -31 -24.5 t-14 -43.5zM123 848q0 -31 5 -48.5t26 -33.5q12 -6 20.5 -13t24.5 1q37 0 61.5 20.5t24.5 54.5v41q0 27 -14.5 49.5t-45.5 22.5q-6 0 -13 -2t-13 -2q-4 4 -9.5 4h-9.5q-8 0 -18 -11t-18.5 -26.5t-14.5 -32t-6 -24.5z" />
<glyph unicode=";" horiz-adv-x="401" d="M27 -258q16 47 34.5 111.5t35 133t29.5 134t19 117.5q25 4 55.5 9t61.5 8t55.5 6t34.5 5q18 4 8 -24q-25 -61 -51 -138t-54 -149t-54 -131t-51 -90q-29 -4 -65 -1t-58 9zM72 -231q58 6 78 0q20 39 44.5 92t48 114.5t46 126t41.5 127.5q-29 -6 -74 -11t-66 -7zM113 850 q0 45 37.5 87t97.5 48q39 0 60.5 -22.5t30.5 -51t11 -58.5t2 -42q0 -25 -5 -42t-21 -17q-12 -16 -23.5 -23.5t-23 -10.5t-24 -4t-26.5 -5q-10 4 -35.5 8t-35.5 20q-14 14 -29.5 38t-15.5 75zM154 819q0 -14 10 -30.5t20 -32.5q4 0 19.5 -7.5t21.5 -11.5q47 0 76 33t29 80 q0 4 -2 18.5t-12.5 30.5t-33 28.5t-65.5 12.5q-6 0 -15 -9t-19.5 -21.5t-17.5 -26t-7 -19.5v-13t4 -13q-8 -8 -8 -19z" />
<glyph unicode="&#x3c;" horiz-adv-x="1220" d="M117 623q6 0 50 21.5t112.5 55t153.5 76.5t173 88t173 88t153.5 77t112 54.5t49.5 20.5v-31.5t-1 -49.5t-3.5 -50.5t-4.5 -36.5q-2 2 -50 -22.5t-122.5 -62.5t-166 -85t-175.5 -91t-151.5 -78t-95.5 -48q31 -14 88 -43t126.5 -66t145.5 -74.5t141.5 -72.5t113.5 -59.5 t65 -32.5q23 -12 50 -25.5t44 -11.5q4 -16 5 -40t0 -50.5t-4 -50t-5 -37.5q-12 4 -88 40.5t-182.5 92t-228.5 119t-225.5 119t-173 94t-71.5 45.5q-4 35 -2 68.5t-6 58.5zM145 598q2 -18 5.5 -45t11.5 -43q23 -12 89 -47t155.5 -82t191.5 -99.5t194.5 -100.5t164 -86 t102.5 -54q-2 25 -1 40t5 40q-14 10 -78.5 45t-152 80t-184.5 95t-180 91t-138.5 66.5t-55.5 23.5q-14 10 -7 18.5t20 14.5q-4 0 49 28.5t136 71.5t181.5 93.5t185.5 96.5t149.5 78.5t70.5 41.5q4 25 5 39t-1 47q-43 -20 -127 -62.5t-184.5 -92.5t-207 -102.5t-193.5 -96.5 t-144 -71.5t-62 -27.5z" />
<glyph unicode="=" horiz-adv-x="1220" d="M66 666q4 23 6 54.5t4 51.5v45q4 0 52 1t124 1h171h194.5h194.5h170t122 -1t51 -1q-4 -37 -2 -82t2 -78q-20 10 -65.5 11.5t-116.5 1.5q-35 0 -113 -1t-174 -2t-200.5 -2t-194.5 -1h-151.5t-73.5 2zM76 315q0 23 1 46.5t3 44t4 32.5h41t102.5 -1t145.5 -1t170 -1t176 -1 h164q104 0 179 1t91 1q2 -10 2 -32.5v-47v-48v-38.5q-6 2 -74.5 3t-172 3.5t-226.5 3.5t-236 1h-243.5t-124.5 -5q-2 16 -2 39zM98 786q0 -10 2 -35.5t2 -45.5q20 0 95 -1.5t178.5 -2.5t221.5 -3t224.5 -3t188.5 -2t112 -1q4 16 4 41v43q-16 4 -78.5 5t-150.5 1h-125h-161 h-171t-158.5 1t-122.5 1t-61 2zM102 309q23 2 89.5 3t158.5 2t197.5 2t208.5 1h220t132 -4q4 16 4 38t4 38q-23 0 -62.5 -1t-94 -1t-119 -1t-133.5 -1q-92 0 -187.5 1t-177.5 2t-144 2t-89 3q0 -10 -1.5 -42t-5.5 -42z" />
<glyph unicode="&#x3e;" horiz-adv-x="1220" d="M111 143q14 10 79.5 46t153.5 81t188.5 95.5t184.5 93.5t139 70.5t53 27.5q-2 -2 -61.5 23.5t-147.5 67.5t-189 91t-189.5 91t-147.5 72t-63 32q-2 23 1 49.5t3 44.5t2 45t-2 41q8 -4 26 0q-4 -4 33 -26.5t99.5 -57.5t143.5 -78t168 -88t171 -87t153.5 -74.5t114.5 -53 t55 -20.5q0 -12 1 -30.5t3 -40t4.5 -44t4.5 -39.5q-4 0 -77 -36t-180.5 -91t-232.5 -118.5t-232.5 -120t-180 -94.5t-74.5 -40zM141 43q37 16 113 53t170 83t196.5 95.5t191.5 94.5t156.5 79t92.5 46q-4 29 -6 60.5t2 59.5q-31 12 -97.5 45t-152.5 75t-182.5 91t-186.5 94.5 t-164.5 83t-117.5 58.5q0 -25 -1 -53.5t-10 -40.5q33 -20 105 -56.5t158 -78t178 -87t170 -83t129 -63.5t55 -30q10 -6 19.5 -13t9.5 -13q0 -10 -29 -23q-6 -2 -69.5 -30.5t-154.5 -71.5t-193.5 -93.5t-189.5 -92.5t-142.5 -70.5t-49.5 -28.5v-90z" />
<glyph unicode="?" horiz-adv-x="665" d="M72 1346q33 25 93 50t177 29q123 -10 199.5 -79.5t81.5 -184.5v-76q0 -47 -12.5 -93t-33 -89t-47 -80t-53.5 -67q-45 -78 -74.5 -168t-17.5 -219q-4 2 -26.5 3t-50 2t-54.5 1t-41 -2q-29 276 104 436q39 66 61.5 105.5t32 69.5t11.5 59.5t2 72.5q0 41 -14.5 64.5t-35 38 t-43 19.5t-36.5 9q-51 -6 -101.5 -19.5t-72.5 -33.5zM113 1333q4 -6 10 -34.5t14 -51.5q10 8 22.5 11.5t26.5 7.5t28.5 4h29.5h51q74 0 118 -39t56 -129q-10 -80 -48 -151.5t-91 -157.5q-45 -76 -67.5 -148t-22.5 -145v-43.5t4 -42.5v-11q23 -4 54.5 -4h53.5q-6 53 -3 97.5 t13.5 87.5t30 88t45.5 98q14 18 41 53t53.5 82t45 105.5t18.5 124.5q0 47 -23.5 92t-42.5 82q-33 29 -82 51t-96 22q-12 0 -45 -2t-71.5 -7t-73.5 -14.5t-49 -25.5zM176 84q0 57 12.5 89t33 46t46 16.5t49.5 2.5q41 0 70 -33t29 -80q0 -57 -29 -103.5t-88 -50.5 q-20 0 -41.5 10.5t-40 28t-30 37t-11.5 37.5zM199 121q0 -6 5 -18.5t11 -27t10 -27.5t2 -17q16 -10 37 -17.5t35 2.5q25 -4 42 5.5t28.5 25.5t15.5 34.5t4 35.5q-10 43 -27.5 62.5t-54.5 27.5q-51 -4 -72.5 -26.5t-35.5 -59.5z" />
<glyph unicode="@" horiz-adv-x="1257" d="M72 580q0 174 49 324.5t136 262t207 175t261 63.5h76q160 0 262 -119q72 -72 107.5 -169t35.5 -208q0 -84 -9 -162.5t-29.5 -146.5t-50.5 -120t-73 -85q-41 -47 -79.5 -65.5t-85.5 -24.5q-57 0 -89 18.5t-45.5 44t-15.5 52t0 43.5q-33 -55 -58.5 -84t-53 -43t-60.5 -16.5 t-76 -2.5q-25 0 -53.5 15.5t-53 41t-40 59.5t-15.5 71l5 80q0 106 37.5 196t101 155.5t148.5 102.5t177 37q37 0 85.5 -9.5t66.5 -29.5q-20 -113 -35 -202q-12 -78 -21.5 -141.5t-4.5 -67.5q-10 -53 -16.5 -86t-6.5 -54q0 -25 18.5 -40t34.5 -15q2 0 29 13.5t55.5 62.5 t53 144t24.5 259q0 111 -35 186.5t-87 123t-112.5 69t-111.5 21.5q-92 -16 -175 -51t-155 -89q-74 -88 -115.5 -177t-62 -172t-25 -156.5t-4.5 -128.5q0 -25 5.5 -67t21.5 -92t46 -102.5t77 -94.5t115.5 -68.5t164.5 -26.5q66 4 122.5 18.5t107.5 57.5q10 -12 39 -15 q6 -16 17 -34.5t16 -47.5q-76 -53 -158 -72.5t-176 -23.5q-35 0 -87.5 8.5t-109.5 32t-113.5 66.5t-101.5 110.5t-73.5 164.5t-28.5 231zM92 565q16 -131 53 -246.5t115 -193.5q59 -61 146.5 -90t183.5 -37q82 8 148.5 20.5t133.5 57.5q-4 6 -4 15t-4 15 q-47 -20 -104.5 -34.5t-112.5 -14.5q-242 0 -363.5 122t-121.5 370q0 205 50 354.5t132 245.5t187.5 142t216.5 46q72 0 134 -25.5t91 -82.5q78 -59 106.5 -147.5t32.5 -217.5q2 -70 -8 -134t-26.5 -119.5t-37 -98.5t-41.5 -72q-41 -25 -65.5 -33t-50.5 -8 q-41 29 -52.5 53.5t-11.5 55.5q0 47 15 117q-2 0 1 27.5t10 70.5t17 93t20.5 95t18.5 78t12 41q-27 6 -76 10t-89 4q-55 0 -123 -31.5t-126.5 -93t-98.5 -150.5t-40 -204q0 -63 7.5 -110t50.5 -70q6 -10 18.5 -19.5t26.5 -15.5t27.5 -10t17.5 -4q121 0 217 172q33 17 41 -10 q0 -4 -5 -22.5t-5 -26.5q0 -20 6 -39t16 -33q29 -20 46.5 -25.5t39.5 -15.5q133 8 216 155.5t100 411.5q-14 117 -48 206t-88 161q-16 14 -37.5 32.5t-61.5 35t-101.5 27.5t-155.5 11q-147 0 -258 -81t-186.5 -202.5t-113.5 -263t-38 -264.5zM428 565q2 70 22.5 143.5 t59.5 134t92 99.5t119 39q29 0 61.5 -7.5t44.5 -19.5q-2 -4 -8 -26.5t-15 -54t-17.5 -67.5t-14.5 -65.5t-8 -50t2 -20.5q-6 -47 -29.5 -95.5t-56.5 -87t-70 -63.5t-69 -25q-23 6 -41.5 12.5t-32.5 22t-24.5 46t-14.5 85.5zM471 504q6 -29 21.5 -45.5t42.5 -28.5 q33 4 63.5 28.5t55 60.5t42 81t25.5 88q2 -6 10 27t18.5 77t19.5 88.5t13 67.5q-72 12 -129 -19.5t-96 -86t-59.5 -120t-20.5 -120.5v-27.5t4 -25.5q-12 -29 -10 -45z" />
<glyph unicode="A" horiz-adv-x="952" d="M39 12q0 8 14.5 69.5t39 159t55 217.5t62.5 244.5t62.5 244.5t54 213t39 149.5t15.5 58.5q2 8 0 14q-4 6 4 7q4 0 13.5 -3.5t19.5 -3.5q20 0 45.5 1t48.5 3.5t40 3.5t19 1q4 0 3 -3.5t4 -7.5q2 -2 6 -3t6 -5q2 -14 16.5 -80.5t37 -166t50 -220.5t57 -245.5t58.5 -242.5 t50.5 -211t35.5 -149.5t14 -58.5q2 -6 -4 -12q-2 -2 -24.5 -2t-52 1t-56.5 2t-39 3q-14 4 -14 8q0 10 -11.5 62.5t-24.5 117t-27.5 127t-20.5 90.5q-25 2 -70 2h-94h-91t-56 -2q-2 -14 -11.5 -50t-20.5 -83t-24.5 -97t-25 -92t-19.5 -70l-8 -28q-4 4 -24.5 4.5t-47.5 0.5 q-31 0 -56.5 -1.5t-25.5 -7.5l-14 9q-8 6 -8 32zM76 25l129 6q6 12 19.5 73.5t28.5 132t28.5 128t19.5 61.5q8 -2 55 -1t104.5 3t112 5t76.5 5q6 -25 17.5 -65.5t23.5 -87.5t25.5 -94.5t26 -86t19.5 -64.5t9 -28q16 4 48 4h54q-4 31 -20 99.5t-37.5 163t-49.5 204t-55.5 222 t-54 220t-50 194.5t-39 147.5t-21.5 79.5h-72q-29 0 -51.5 2t-26.5 6q-4 -27 -26.5 -125.5t-55 -234.5t-69.5 -290.5t-71 -294t-60.5 -244t-36.5 -140.5zM309 543q0 4 7.5 30.5t18.5 64.5t23.5 82t23.5 82t19.5 64.5t8.5 28.5q10 57 19 139t20 168q2 8 10 12.5t12 -0.5 q6 -6 13.5 -1.5t9.5 -2.5q6 -43 12 -77.5t14 -70.5t18.5 -74t22.5 -85q0 -2 6 -27.5t14.5 -63.5t17.5 -81t18.5 -82t14.5 -65.5t7 -30.5q2 -12 0 -18q-4 -6 -10 -5q-4 2 -16.5 0t-34.5 -12h-59t-73.5 -1t-70.5 -1h-51q-4 4 -7.5 6t-5.5 6q4 4 1 7.5t-3 7.5zM350 557 q14 -2 49 -2h75h75t49 -2q-8 29 -20.5 79t-22.5 102t-18.5 96.5t-10.5 56.5q-8 59 -23.5 112.5t-25.5 112.5l-2 -2l-35 -211q-2 -8 -13 -54t-25.5 -102.5t-29 -109.5t-22.5 -76z" />
<glyph unicode="B" horiz-adv-x="894" d="M131 195v211.5t1 249.5t2 253t2 222.5t3 157t4 59.5q2 6 10.5 10t12.5 8q35 12 88 19.5t106 7.5q119 0 218.5 -19.5t146.5 -70.5q35 -39 54.5 -69t28.5 -58.5t10 -59.5t1 -72q0 -109 -47 -185.5t-133 -123.5q111 -45 173 -126t62 -189q0 -152 -46 -240t-118.5 -133 t-159.5 -57.5t-167 -12.5q-55 0 -90 1.5t-59.5 1.5h-44t-42.5 -3q-10 0 -12 13.5t0 23.5q-2 18 -3 56.5t-1 124.5zM170 27q45 -4 93 -12.5t116 -14.5q123 10 219 34.5t150 82.5q41 41 63.5 94t22.5 119q0 16 -0.5 33.5t-4.5 37.5q0 111 -55 199t-188 117q-12 2 -21 18 q-4 6 5.5 9.5t15.5 7.5q104 45 157.5 113.5t53.5 170.5q-4 78 -21.5 139.5t-58.5 100.5q-100 72 -311 94q-72 -10 -127.5 -14t-102.5 -19q-2 -39 -2 -138v-230v-278.5v-281t-1 -236.5t-3 -146zM289 1247q6 0 13 -1t11 1q31 14 50.5 19.5t50.5 9.5q72 -4 118 -25.5t76 -38.5 q37 -31 50.5 -84t17.5 -100q0 -16 -10.5 -57t-38 -85t-79.5 -80t-134 -40q-4 0 -16.5 3t-29 5t-31.5 3t-22 -3q-6 6 -14 23v108v107.5t-1 110t-4 86t-7 38.5zM297 662q0 14 14 22q6 4 22.5 4t33.5 -2q16 -2 27.5 -6t15.5 -4h12q61 0 111 -18q55 -20 95 -56.5t61.5 -85.5 t21.5 -106q0 -88 -24.5 -145.5t-70 -91.5t-108 -47t-135.5 -13h-24.5t-24.5 4q-14 8 -15 24q0 6 -1 41t-3 84t-3 108.5t-2 116t-2 101.5t-1 70zM338 139q10 -4 18.5 -4h16.5q55 0 110.5 12.5t98.5 42.5q44 31 68 82q18 38 18 92q0 18 -2 37q1 11 1 21q-1 56 -19 97 q-22 48 -59.5 77t-85.5 41t-97 12h-68q4 -37 4 -112.5v-161.5v-136.5t-4 -99.5zM342 797q23 0 44.5 6t31.5 6q96 3 156 61q54 53 54 128q0 8 -1 16v19q-1 49 -9 83q-10 41 -36.5 66.5t-73.5 37t-121 11.5q-14 0 -24.5 -3t-20.5 -7v-424z" />
<glyph unicode="C" horiz-adv-x="835" d="M55 670q6 207 57.5 347t128 225t171 121t184.5 36h33q68 0 110.5 -13.5t59.5 -27.5q14 0 18 -8q2 -8 -3 -34t-12 -51.5t-13.5 -46t-6.5 -18.5q-2 -4 -5 -7t-5 -9q-4 4 -11 6t-11 6q-14 10 -45 23.5t-72 13.5q-86 0 -147.5 -33t-102.5 -85t-64.5 -116.5t-36 -126 t-15.5 -112.5t-3 -78q4 -170 34 -282.5t101 -180.5q43 -47 104.5 -55t106.5 -8q16 -8 37 -9q35 0 66.5 13.5t46.5 25.5q4 6 13 3t9 -9t-1 -12t1 -12t11.5 -11.5t9.5 -17.5q0 -6 3 -19.5t7 -26.5t8 -25.5t6 -16.5q-6 -8 -4 -12t-6 -11q-41 -31 -99.5 -33.5t-129.5 -15.5 q-98 10 -187.5 43t-154.5 86q-78 92 -126 237.5t-65 336.5zM96 666q0 -184 49.5 -315.5t135.5 -225.5q51 -59 127.5 -89t201.5 -30q53 0 96.5 9.5t65.5 23.5q-4 14 -6 43t-6 55q-31 -6 -74 -15t-72 -20q-109 0 -182.5 54.5t-119.5 139.5t-65.5 186.5t-19.5 195.5 q6 164 40 274.5t85 178t117 98.5t137 35q47 -4 80 -14.5t64 -26.5q10 25 16 56.5t10 51.5q-24 15 -64 25q-23 6 -54 5q-24 0 -52 -3q-16 1 -31 1q-103 0 -177 -36q-85 -41 -141 -109.5t-89 -152.5t-48.5 -164t-19.5 -143.5t-4 -87.5z" />
<glyph unicode="D" horiz-adv-x="985" d="M113 903q0 90 1 168t2 137.5t3 95t4 42.5q2 4 4 9t4 9q8 12 10 12q12 0 49 2t79 3t81.5 3t55.5 2q104 0 202.5 -33.5t173.5 -110.5q76 -76 119 -200q38 -108 38 -262q0 -21 -1 -43q-10 -264 -72.5 -417.5t-155 -230.5t-204 -97.5t-217.5 -20.5q-43 0 -88 6.5t-74 6.5 q-6 0 -7 9t-1 19zM147 409.5q0 -137.5 2.5 -242t4.5 -142.5q37 -4 79.5 -4.5t100.5 -4.5q127 4 232.5 33t172.5 111q68 88 113 222t45 337q0 66 -3 134.5t-19.5 137t-52.5 135t-101 129.5q-57 59 -142 85t-208 32q-59 0 -114.5 -10t-106.5 -21v-128v-230t-1.5 -284.5 t-1.5 -289zM270 125q4 12 7.5 93t3.5 200q0 111 -2.5 235.5t-3.5 238.5t-3 201t-2 121q0 10 3 25.5t8 15.5h143q68 0 120 -22.5t97 -58.5q68 -72 96.5 -189t38.5 -280q0 -72 -16.5 -172.5t-56 -193.5t-105.5 -158.5t-164 -65.5h-33.5t-33.5 4q-10 -6 -34 -4t-40 -4 q-4 0 -6 3t-6 7q-4 2 -8.5 1t-2.5 3zM300 144.5q0 -3.5 9 -3.5q12 0 32.5 3t25.5 8q23 -2 44 -2q49 0 86 13q52 19 99 79q74 59 102.5 174.5t28.5 275.5q0 76 -2 141.5t-13.5 122t-37 103.5t-70.5 88q-47 35 -95 60.5t-116 29.5l-78 -14q0 -35 -1 -120t-3 -194.5t-4 -231.5 t-4 -229.5t-3 -187.5t0 -108v-7.5z" />
<glyph unicode="E" horiz-adv-x="772" d="M96 10q-2 6 2 31q2 18 3 80.5t2 162t2 233.5t4 296v214t-1.5 177t-3.5 119t-6 41q-4 10 4 18q6 8 19 4q49 2 127 3.5t161 2.5h81q38 1 76 0q74 -1 118 -1q6 0 7 -7.5t1 -15.5q0 -4 2 -22.5t5 -42t5.5 -46t2.5 -32.5q-4 -10 -12.5 -10.5t-14.5 -0.5t-48 2.5t-97.5 3.5 t-114 3t-96.5 2q-10 0 -16.5 -2t-10.5 -4v-185v-76.5t1 -69.5t3 -55.5t6 -31.5h219h87t40 -4q6 -6 10.5 -23.5t7.5 -37t4 -41t1 -36.5q0 -20 -23 -20h-112q-61 0 -131 -1t-109 -5q0 -43 1 -106.5t1 -131t-2 -130t-8 -105.5q-2 -10 8 -10q6 0 41 1t82 2t98 2t94 1h22.5h29 t23.5 -1t7 -3q6 -4 10.5 -4.5t8.5 -4.5t6 -28.5t2 -53.5q0 -35 -9 -56t-18 -15q-2 2 -19 3t-71.5 1h-157h-270.5h-49q-8 0 -17.5 1t-11.5 5q-4 4 -6 10zM135 914.5q0 -105.5 1 -215t2 -216t2 -197.5t2 -161t1 -105q33 2 111 2q20 0 40 1q60 1 125 -1q87 -2 163.5 -3 t107.5 -3q2 14 2 35t-1 39.5t-3 30.5t-8 12l-303 -4h-71.5t-31.5 4q-2 16 -4 59.5t-4 100.5t-3 118.5t-3 114t-3 88t-1 37.5q-2 10 23 19q4 2 53 3t110.5 1h117.5h79q-4 20 -4 48t-4 42q-20 2 -77.5 2h-118t-106.5 1t-40 7q-8 4 -12.5 6t-10.5 11q-4 2 -7 46t-4 105.5 t-2 127t-1 110.5q0 41 4 53q4 16 10 20q14 6 37 7q8 0 53 -2.5t101.5 -4.5t113 -6t86.5 -7v50.5t5 55.5q-31 0 -105 1t-157 3t-156.5 3t-104.5 1q-2 -29 -3 -93.5t-1 -152.5v-193.5z" />
<glyph unicode="F" horiz-adv-x="753" d="M115 16v64.5v156v215v244.5v244v213v152.5v62.5q0 6 6 11t22 1q66 0 150 1t164 3t142.5 6.5t86.5 8.5q12 -10 17.5 -15.5t15.5 -19.5q-4 -14 -6 -37.5t-5 -46.5t-6.5 -41t-5.5 -22q-6 -14 -10 -11q-4 4 -28.5 6t-61.5 2h-80h-83t-72.5 -1t-47.5 1q0 -27 -1 -92t-1 -137 v-133t2 -80q12 2 38 3t58.5 2t67.5 1h70q18 1 34 1q15 0 31 -1h16q24 0 50 4q4 -4 8 -11t2 -11t-4 -13.5t-2 -19.5q2 -23 4 -46.5t6 -47.5q0 -4 -3 -8t-3 -11q-8 -4 -16 -6t-15 -4q-10 -2 -61 -4t-123 -2q-53 0 -101 2t-61 2q-2 -23 -3 -75t-1 -118.5v-138t1 -132t3 -101.5 t4 -43q0 -4 -4 -4t-30.5 -2t-57.5 -4t-57.5 -3t-30.5 3q-8 0 -14 6t-4 26zM147 699.5q0 -148.5 1.5 -283.5t2.5 -240.5t1 -150.5q8 2 25.5 2t36.5 -1t38.5 -2t34.5 -4q0 57 -2 148.5t-4 178.5t-4.5 153.5t-2.5 79.5q-2 23 1.5 34t5.5 15t7 2t7 2t47 5t104.5 1t119 1t89.5 3 q-4 12 -4 33.5v42.5v8q-18 0 -69.5 1t-109.5 2t-111.5 4t-73.5 7q-6 2 -12.5 3t-6.5 6q2 18 3 62t2 98.5t2 114.5t1 114v22.5v27.5t-1 24.5t-3 15.5q-2 2 6.5 5t22.5 5q20 2 52 4t68 4t72.5 3t71.5 1t66 -1t47 -5l-4 105h-57.5h-96.5q-54 0 -114 -1q-30 0 -58 -0.5t-55 0.5 q-53 1 -92 2t-49 3q-2 -39 -3.5 -139.5t-1.5 -233.5v-281.5z" />
<glyph unicode="G" horiz-adv-x="964" d="M49 645q0 215 59.5 358.5t146.5 229.5t185.5 123t175.5 37q76 -4 139.5 -8.5t114.5 -32.5q-4 -12 4 -23q-8 -8 -15 -26.5t-12 -40t-7 -42t-2 -30.5q0 -6 -12.5 -14.5t-20.5 0.5q-20 16 -52 28.5t-59 12.5q-6 0 -17 -1.5t-25.5 -3.5t-26 -3t-17.5 -1q-57 0 -110.5 -20.5 t-87.5 -73.5q-74 -61 -109 -151.5t-35 -219.5t13.5 -217t35 -146t46 -93t49.5 -56q37 -55 82 -70.5t112 -29.5q23 6 31 9t14 3t15.5 1t33.5 6q2 25 4.5 81t4.5 120.5t3 125t3 92.5q-10 -4 -37 -7t-53 -3q-35 0 -63 3t-38 11q-2 2 -5 5.5t-3 7.5q2 35 2 80v69q41 -2 101.5 -3 t125.5 -1q47 0 83 2t44 6q2 -2 8.5 -10t8.5 -24q2 -37 3 -100.5t1 -137.5v-149.5t-1 -138t-1 -102.5t-2 -40q-49 -35 -124 -48.5t-173 -23.5q-47 0 -104.5 13.5t-118 43t-117.5 81t-101.5 126t-72 178t-27.5 238.5zM94 690q0 -66 9.5 -142.5t29 -152.5t48 -144.5 t67.5 -119.5q72 -59 153.5 -90t180.5 -31l63 -4q59 0 115.5 14.5t91.5 24.5q0 16 1 62.5t2 110t1 135t1 139t1 123t2 83.5q-29 -4 -79 -6t-100 -3t-90 -1t-46 2q4 -20 7 -48t3 -42l90 -8t86 -8q4 -53 6 -124t2 -136.5v-114.5t-2 -57q4 -23 -25.5 -33t-66.5 -10h-45 q-68 0 -134.5 30.5t-118.5 93t-85 161t-33 233.5v78q0 162 40 266t103.5 165.5t142.5 85t157 23.5q80 0 135 -18q6 16 13 46t14 52q-23 10 -72 23.5t-127 13.5q-94 -6 -190.5 -42t-174 -114t-127 -203.5t-49.5 -312.5z" />
<glyph unicode="H" horiz-adv-x="1013" d="M100 -2q2 16 5.5 70.5t5.5 134.5t3 180t2 208.5t2 219.5t1 211v201.5t-2 142.5q0 29 10 29q12 -2 37.5 -2t51.5 -1t46.5 -3.5t26.5 -6.5q6 -6 8 -24q2 -37 4 -114t4 -163t2 -163.5v-112.5q20 0 75.5 -1t118 -3t119 -5t80.5 -5v360v110.5t5 90.5q4 39 8 34q10 -4 32.5 -6 t48 -3t49 -2t34.5 -1q2 0 3 1t5 1t10 -6t4 -10t-3 -4t-1 -6q0 -59 -1 -180t-2 -269.5t-2 -306.5t-2 -289t-2 -217t-1 -92q0 -10 -6 -10h-20.5t-31 -2t-32 -3t-21.5 -1q-20 0 -38.5 2t-26.5 8q-4 4 -6.5 49t-2.5 112.5v146.5v148.5t-1 120.5t-5 62q-16 -2 -71.5 -4t-120 -3 t-124 -1t-83.5 4q4 -23 4 -95.5v-160.5q0 -53 -1 -109.5t-1 -109v-94.5t2 -64q2 -8 -6 -12.5t-12 -4.5q-2 0 -19.5 1t-40 1h-46h-38.5q-33 7 -37 21zM137 963q0 -137 1 -289t1 -287t1 -236.5t1 -134.5h131q0 29 -1 83.5t-2 121t-1 136t-1 130t-1 101.5v51q16 2 73.5 5 t128.5 6t139.5 6.5t109.5 5.5q6 -4 12 -16.5t6 -29.5q0 -53 -1 -142t-3 -181t-3 -170t-1 -107q6 0 25.5 -1t40 -1h40t25.5 2q2 29 2 96.5v160t-1 203t-3 224t-3 222t-2 198.5t-2 153.5t-1 86.5q-27 0 -67 -2t-54 -15q0 -23 1 -74.5t2 -117.5t1 -135.5v-128v-95.5v-38 q-43 8 -117.5 9t-147.5 1h-127t-58 10q-2 4 -4.5 42t-3.5 92.5t-3 121t-3 129t-1 113.5v76q-6 0 -23.5 -1t-38 -1h-39h-24.5q0 -37 -2 -142.5t-2 -240.5z" />
<glyph unicode="I" horiz-adv-x="421" d="M115 -14q6 16 7 55t1 125v215t-1 258t-2 264t-2 234.5t-2 170t-1 68.5q12 4 32.5 7t34.5 3q20 0 45 -2t41 -2q10 0 20.5 -1t14.5 1t9 0t5 -6q-2 -4 -3 -64.5t-2 -157.5t-2 -220t-1 -251v-251v-220v-156.5v-61.5q0 -6 -16 -6q-4 0 -27.5 -1t-51.5 -2t-52.5 -3t-30.5 -2 q-20 0 -16 6zM145 25q6 -2 27 -3.5t44.5 -2.5t43 -2t25.5 -1q-2 39 -2 142.5v237.5t1 284.5t2 286t2 239t3 144.5q-10 -2 -31.5 -2t-44 1t-42 2t-28.5 3q2 -37 3.5 -137.5t1.5 -232.5v-282.5t-1.5 -285.5t-2.5 -240.5t-1 -150.5z" />
<glyph unicode="J" horiz-adv-x="577" d="M2 -2q2 6 7 26.5t8 46t4.5 50t-3.5 35.5q12 -10 48 -16.5t57 -6.5q41 0 73.5 11.5t56 42t35.5 81.5q11 44 11 109v22q-8 4 -9 142.5t-1 410.5v157t-1 133t-3 94t-4 38q-2 4 8 7t24.5 5.5t30.5 3.5t29 1q20 0 43.5 -3.5t44.5 -9.5q8 2 18.5 -1t12.5 -13q-2 -2 -3.5 -50 t-2.5 -127t-2 -183.5t-1 -217v-228.5v-218q0 -70 -17 -136.5t-59 -118.5t-114 -85t-178 -33q-23 0 -49.5 6.5t-45.5 20.5q-4 4 -10 2t-8 2zM41 20q33 -14 55 -14q6 0 13.5 1t13.5 5q170 0 254 88t84 285q0 100 -1 210t-3 215t-4 200.5t-4.5 170t-3.5 122t-3 55.5 q-23 -4 -53.5 -4h-54.5q-2 -25 -2 -104v-183v-221t-1 -215.5t-2 -165t-3 -70.5v-20q0 -46 -8 -91q-9 -53 -31.5 -92.5t-60.5 -64.5t-89 -25q-35 0 -50 1t-36 8z" />
<glyph unicode="K" horiz-adv-x="874" d="M104 1395q4 -4 43 -8.5t74 -4.5h37t21 7q12 -6 20 -15.5t16 -19.5q-2 -2 -4 -40t-4 -97.5t-3 -130t-2 -139t-2 -125t-1 -85.5q25 53 38 84t23 60q0 2 20.5 35.5t52.5 86t69 114t69.5 116.5t55 96t24.5 53q8 -2 29.5 -2h48.5t53.5 1t44.5 1q25 0 31 -8q-2 -4 -26.5 -43 t-60.5 -98t-78 -130t-81 -136.5t-70.5 -115.5t-45.5 -69q16 -27 49 -92t73.5 -148t83.5 -174.5t79 -168t58.5 -128t22.5 -55.5q6 -6 10.5 -12t-6.5 -10q-10 -4 -47 -9t-53 -5t-49 3t-49 7q-2 -2 -20.5 37t-46.5 99t-61.5 135t-65.5 146.5t-59.5 132t-43.5 93.5 q-8 -12 -19.5 -30.5t-22 -35t-18.5 -28t-8 -13.5v-135v-147.5t-2 -139t-8 -110.5q-10 -8 -41 -8h-47h-47t-39 4q-2 2 -4 60.5t-3 154.5t-1 218t-1 251t-1 254v225t-1.5 165.5t-3.5 76.5zM147 698.5q0 -155.5 1.5 -296t1.5 -247v-143.5h23h36.5t38 1t28.5 3q0 33 -1 75 t-3 101.5t-5 139.5t-9 184q12 12 29.5 35.5t33 49.5t27.5 48.5t17 34.5q18 -12 32 -6q6 -18 27.5 -70.5t52.5 -120t64.5 -143.5t64.5 -142.5t52.5 -115.5t27.5 -66q18 -4 62 -7q14 -1 27 -1q27 0 50 4q-16 37 -50 108t-73.5 153.5t-81.5 171t-77 160t-56.5 119.5t-21.5 50 q4 6 28.5 47t59.5 98.5t76 125t78.5 129t68.5 109.5t45 67q-16 2 -39.5 2t-48 -2t-44 -4t-25.5 -4q-6 -6 -28 -43t-52.5 -89.5t-64.5 -113t-63.5 -111.5t-47.5 -86l-19 -35q-4 -10 -17.5 -35.5t-28.5 -55t-29.5 -55.5t-22.5 -32q-12 -12 -17 -4q-4 4 -5 12.5t-3 12.5l2 42 t3 106.5t2 141t2 148.5t2.5 128t3.5 77q-12 -4 -24.5 -5t-31.5 -3q-4 0 -14 1t-22.5 1h-22.5t-16 -2q-2 -25 -2.5 -122.5t-0.5 -233.5v-291.5z" />
<glyph unicode="L" horiz-adv-x="747" d="M98 -4q0 2 1 80t2 198.5t3 268t3.5 292t3.5 269.5t2 201q0 49 -7 84q8 2 35 1t58.5 -3.5t60.5 -3.5t41 3q-1 -97 -1 -202v-107q1 -164 1 -327.5v-319.5t-4 -280l410 4q6 -2 10 -29t4 -62q-2 -23 -3 -45t-7 -41q-96 6 -202 6.5t-243 0.5q-61 0 -105 1t-63 11zM131 1352 q2 -31 4 -104.5t3 -174t2 -218.5t2 -235.5t2 -227t2 -194.5t3.5 -136.5t4.5 -51.5q20 0 64 2t97.5 3t112.5 2t110.5 2t91.5 1t54 -2v101l-418 2v255t1 271t2 261t2 223.5t2 156t3 60.5q0 4 -17 6t-39.5 2t-48.5 -1t-40 -3z" />
<glyph unicode="M" horiz-adv-x="1296" d="M90 -12q0 41 3 115.5t8 170t10.5 205t11.5 218t11 210t10.5 182t8.5 134t3 63.5l10 111q12 -8 18 -8q6 2 32 4t56.5 4t55 3t26.5 3q4 -2 19.5 -52.5t36 -124t44 -157.5t43 -155.5t34 -116.5t14.5 -39q31 -123 57.5 -220.5t42.5 -189.5q27 92 52.5 188.5t56.5 213.5 q10 39 24.5 97t29.5 125.5t32.5 136.5t33 127t28.5 101t22 58q23 -2 50 -4t62 -2t52.5 2t33.5 8q4 -14 12.5 -107.5t16.5 -227.5t17.5 -294t17.5 -309.5t15 -269t11 -177.5q0 -20 -26 -30q-4 6 -32 10t-58 4q-16 0 -30.5 -2t-18.5 -8q-12 8 -20.5 16t-12.5 16q0 29 -1 102 t-4 159t-6.5 171t-7.5 140q-10 92 -17 184t-7 185h-4q-16 -72 -37 -148t-41 -135l-41 -158q-16 -68 -31.5 -127t-34 -117.5t-39 -121t-45.5 -134.5q0 -8 -5 -21t-13 -11q-4 4 -20.5 5t-35 2t-35 2t-20.5 5q-2 4 -19.5 68.5t-43 158t-55 202t-54.5 198.5q-33 104 -58.5 194 t-37.5 176h-6q-2 -92 -2 -201.5t4 -205.5q-10 -63 -14 -143t-8.5 -163t-10.5 -161t-16 -137q-10 0 -30.5 1t-43 1h-46.5t-38 -2zM123 20q23 4 56.5 6.5t56.5 2.5q0 29 1 97.5t3 145t3 145t1 93.5v54.5t-4 23.5q4 43 10 126t11 170t9 162.5t4 104.5q2 10 9.5 18.5t13.5 8.5 t13 -6.5t5 -20.5q2 -57 11.5 -115.5t25 -121t33.5 -132t39 -149.5q18 -63 47 -159.5t56.5 -188.5t48 -165t24.5 -87q16 -4 39 -4t41 2q31 127 71 274.5t79.5 296t75.5 288.5t63 257q4 10 12 13t14 5t8.5 -9t6.5 -23v-120t2 -137.5t4 -142t8 -137.5q2 -27 4 -74t5 -102 t6 -116.5t6.5 -115t6.5 -96.5t7 -63h62.5t54.5 4q-2 41 -8.5 146.5t-13.5 243.5t-15.5 290.5t-15.5 287t-13 233.5t-6 128h-158q-6 -14 -20.5 -65.5t-33 -121t-40 -146.5t-38.5 -140.5t-30.5 -103.5t-17.5 -35q-20 -133 -47 -249t-62 -243q-4 -10 -13 -5t-13 15 q-27 119 -53.5 233.5t-55.5 243.5q-2 -4 -13 33t-27.5 95.5t-37 131t-38 141t-32 126t-18.5 86.5h-26.5h-45t-48 -1t-37.5 -3q-6 -43 -13.5 -146.5t-14.5 -237.5t-15.5 -283.5t-14 -284t-11 -238t-7.5 -144.5z" />
<glyph unicode="N" horiz-adv-x="1017" d="M109 184.5q0 98.5 1 216t2 248.5t3 261t3 253t3 228q6 0 29.5 1t52 2t52.5 3t30 6q2 -4 11 -13.5t17 -19.5q25 -57 61 -144t73.5 -178.5t72.5 -175.5t58 -133q49 -113 91 -212t70 -185h2q-6 66 -10 129.5t-6 128t-2 133v146.5q-2 -2 -3 18.5t-1 54v76.5v90q0 49 1 96.5 t2 84t2 59t3 22.5q2 2 27.5 3t56.5 4.5t59.5 7.5t34.5 10q0 -2 1 -62.5t1 -156.5v-220v-254t-1 -255t-4 -226.5t-6 -168t-9 -76.5q-12 2 -39 4t-56.5 4t-53 3t-25.5 3q-55 121 -99.5 218t-78 177t-58.5 148t-43 129q-45 66 -82 156t-69 182h-4q4 -53 8 -107.5t7 -118 t3 -136.5t-2 -161q-2 -29 -3 -70.5t-1 -88.5t-1 -94.5t-3 -86.5q1 -28 1 -51q0 -99 -14 -112q-31 4 -71.5 8t-59.5 4q-12 4 -20 8t-12 14q-2 68 -2 166.5zM141 1356q0 -41 1 -146.5t1 -240.5v-287t1 -285t4.5 -233.5t7.5 -132.5q27 -4 60.5 -4t45.5 -4q0 16 -2 56t-2 105 q0 51 1 105.5t2 100.5t3 75t4 27q-4 223 -8 379.5t-10 279.5q23 0 31 -10q20 -59 55 -150.5t77 -197t88 -218t88 -215t76.5 -187.5t57.5 -136q14 0 55 -5t76 -5q0 23 1 86t2 153t3 198.5t4 222.5t3 223.5t2 201.5t1 158.5v95.5h-125q4 -37 7.5 -91t5.5 -118.5t4 -136.5 t2 -141q0 -25 1 -74t1 -110.5t2 -129t2 -128t1 -107.5t1 -68q-2 -12 -5 -24.5t-7 -16.5t-14.5 2t-14.5 17q-27 104 -76 224t-116 265l-267 627q-6 0 -25.5 1t-40 1h-40t-25.5 -2z" />
<glyph unicode="O" horiz-adv-x="995" d="M45 639q0 223 45 372.5t112.5 239.5t147.5 128t152 38q80 -4 137 -34.5t123 -77.5q63 -55 97 -127t49.5 -156t18.5 -180.5t3 -202.5q0 -186 -46 -328.5t-122 -234.5q-66 -47 -127.5 -71.5t-138.5 -29.5h-50q-57 0 -111 30t-95 83q-86 78 -140.5 224.5t-54.5 326.5z M86 768l4 -102q0 -129 22.5 -247t70.5 -208t122 -145.5t178 -57.5q207 4 310.5 182.5t107.5 524.5q0 123 -20.5 240.5t-66.5 212t-123 151.5t-189 57q-119 -2 -199 -63.5t-128 -153.5t-68.5 -197.5t-20.5 -193.5zM217 696q2 47 4 116t14.5 140.5t40 141t80.5 120.5 q14 20 27.5 31.5t31 17t40 6.5t55.5 1q70 0 120 -48t82.5 -129t48 -185.5t15.5 -215.5q-6 -41 -12 -108.5t-21.5 -143t-43 -149.5t-76.5 -125q-20 -29 -57 -35t-60 -10q-10 -2 -15.5 -1t-17.5 1q-35 0 -65.5 17.5t-55.5 39.5q-47 45 -73.5 117t-41 146.5t-17.5 143t-3 111.5 zM244 678q0 -176 35.5 -300t87.5 -183q29 -8 62.5 -28t62.5 -20q57 0 104 43t80 119t50 176.5t17 214.5q0 37 -4 91.5t-14 114t-27.5 118.5t-42 106.5t-59.5 77t-78 29.5l-35 -4q-23 0 -62.5 -14.5t-79.5 -70.5t-68.5 -167t-28.5 -303z" />
<glyph unicode="P" horiz-adv-x="862" d="M117 -8q2 18 3 85.5t2 166t1 217.5v240.5t-1 237.5v110v98q1 92 1 149.5t2 63.5q45 18 111.5 30.5t128.5 12.5q92 0 177 -23.5t177 -97.5q41 -45 66.5 -123t29.5 -170q2 -19 2 -39q-1 -64 -21 -125q-26 -80 -82.5 -141t-141.5 -99t-195 -38q-16 -4 -33.5 -4t-34.5 4 q-2 -82 -3 -178.5t-1 -178v-136t0 -52.5q-4 -2 -30.5 -5t-59.5 -5q-27 -2 -54.5 -2t-43.5 2zM145 1266.5q0 -56.5 1 -144.5t1 -200.5t1.5 -229.5t1.5 -231.5t1 -207.5t1 -155.5v-77.5h61t66 5l8 559q10 2 22 2q28 0 68 -11q111 0 186.5 40t128.5 118q47 37 64.5 97.5 t17.5 132.5q0 63 -2 106t-11 77t-29.5 64.5t-57.5 67.5q-35 47 -114 65.5t-183 28.5q-72 -6 -125 -18.5t-107 -26.5v-60.5zM276 688v47v100.5t1.5 128t1.5 129t1 105.5t1 55q16 18 52 23.5t70 5.5q10 0 53.5 -17.5t90.5 -52t85 -90t38 -129.5q0 -82 -29 -142t-70 -91 q-35 -37 -80 -57.5t-110 -36.5q-41 16 -63 17t-42 5zM305 705q10 0 15.5 3t11.5 3q8 0 18 -4.5t31 -10.5q119 6 181.5 80t72.5 209q-14 59 -28.5 103.5t-49.5 85.5q-18 23 -43 35t-50.5 18t-50 8t-44.5 2q-41 0 -50 -4q3 -29 3 -103v-26q0 -63 -2 -133q-2 -84 -5.5 -160 t-9.5 -106z" />
<glyph unicode="Q" horiz-adv-x="995" d="M59 610v144q0 156 33 277.5t92.5 205.5t144.5 130t189 50q72 -14 122 -38.5t108 -65.5q90 -102 142 -261t52 -374q0 -152 -21.5 -259.5t-57.5 -182t-80 -118.5t-89 -65q61 -27 113.5 -46t99.5 -40q14 -4 23.5 -2t19.5 10q4 -4 9.5 -14t9.5 -20q-4 -10 -13.5 -30 t-20.5 -40.5t-21.5 -37.5t-16.5 -19q-45 10 -96 27.5t-100.5 38t-91.5 41t-68 36.5q-4 -4 -9 -4q-14 0 -29.5 6t-19.5 6q-96 0 -175 44t-134 127t-85 203t-30 271zM86 700q6 -668 391 -702q8 4 12.5 6t10.5 2q10 0 20 -10t35 -21q68 -25 158 -60.5t170 -70.5l41 99 q-72 8 -144.5 38.5t-144.5 79.5q123 59 192.5 199.5t69.5 376.5v127q0 168 -38 285.5t-95 189.5t-121.5 104.5t-120.5 32.5h-45q-82 0 -153.5 -47t-124 -135t-83 -213t-30.5 -281zM207 696q6 37 11 102.5t18.5 139.5t41 143.5t78.5 114.5q33 39 64 52.5t86 19.5 q35 -4 62.5 -17.5t58.5 -40.5q45 -49 72.5 -118.5t43 -143.5t22.5 -142.5t11 -113.5q-6 -41 -11 -109.5t-17.5 -144.5t-39 -146.5t-77.5 -113.5q-37 -31 -69 -51q-28 -17 -55 -17q-5 0 -11 1q-43 4 -78 17t-70 50q-41 43 -66.5 113.5t-41 145.5t-22.5 145.5t-11 113.5z M252 614q0 -141 36 -248.5t95 -164.5q25 -25 50.5 -38.5t62.5 -29.5q68 2 113.5 57.5t73.5 141.5t40 194.5t12 218.5q0 82 -14 176.5t-45 170t-77 117.5q-32 29 -73 29q-18 0 -37 -5q-35 4 -61.5 -8.5t-52.5 -32.5q-47 -55 -71.5 -118.5t-36 -136.5t-13.5 -154t-2 -169z" />
<glyph unicode="R" horiz-adv-x="880" d="M111 -10q-2 6 0 22v68.5v154v210v238.5t1 238.5t2 211t4 157t7 72.5q43 23 110.5 30t135.5 7q45 0 95 -8.5t96 -22.5t85 -35.5t62 -46.5q45 -47 81.5 -118.5t36.5 -163.5q-8 -104 -57 -197.5t-152 -144.5q55 -39 99.5 -114t54.5 -198q27 -141 54.5 -238.5t41.5 -121.5 q-8 0 -11 -2t-11 -6q-12 4 -39 5t-54.5 1h-51t-29.5 2q-12 23 -25.5 63.5t-26 90t-22.5 103.5t-14 103q-25 127 -75 175t-142 55q-4 4 -30 2t-34 2q-2 -23 -2 -70v-106.5v-122v-115.5v-90v-43q0 -16 4 -23.5t6 -11.5t-1 -9t-11 -7t-30.5 -4t-47 -3.5t-46 -2.5t-28.5 -1 q-14 0 -30 5q-4 4 -6 10zM145 20q19 3 46 3q13 0 28 -1q45 -2 68 -2v145.5t-2 182.5t-5.5 167t-11.5 99q51 6 99 7h12q47 1 84 -13q41 -16 70.5 -50t52 -86t43.5 -122q2 -63 10 -120.5t17.5 -103.5t16.5 -74.5t9 -35.5q8 0 27.5 1t41 2t41 2.5t25.5 -1.5q-6 27 -16 66 t-21.5 84t-23 94t-19.5 98q-10 123 -53 186.5t-111 98.5l-20 4t-10 8t6 7.5t12 3.5q117 45 169 130t52 208q0 86 -19.5 150.5t-80.5 105.5q-43 41 -99.5 63.5t-133.5 22.5h-34t-34 -4q-25 6 -47.5 10t-38.5 4q-45 0 -76.5 -9.5t-66.5 -19.5v-496.5v-341t-1 -219t-1 -130 t-1.5 -74t-3.5 -50.5zM268 705q2 2 4 30.5t4.5 73.5t3.5 99.5t1 107.5v79v78.5t-1.5 61.5t-3.5 25q10 6 31 10t41 4q37 0 90.5 -4t102.5 -31t83.5 -85t34.5 -165q-14 -59 -24 -113.5t-47 -97.5q-42 -38 -96 -60q-46 -19 -104 -19q-10 0 -21 1q-16 4 -46 6.5t-53 -1.5z M311 992.5q0 -60.5 1 -114t1 -93.5v-48q16 -4 41 -4h35q45 0 87 16.5t74 50.5t50 84t18 120q0 213 -225 237q-16 -4 -41 -4h-39q-2 -6 -2 -43v-89v-112.5z" />
<glyph unicode="S" horiz-adv-x="784" d="M47 31q0 35 8 61.5t13 42.5q4 16 6 34.5t6 41.5q51 -23 89 -34t65.5 -16t49 -6t42.5 -1q106 0 160.5 54t60.5 152q0 47 -14.5 85t-41 71t-62.5 63.5t-81 65.5q-102 51 -156.5 100.5t-80 99.5t-29.5 102t-4 112q0 10 2 39.5t13 66.5t36 77t71 74t116.5 55.5t172.5 21.5 q59 0 110.5 -15.5t82.5 -29.5q2 -10 -1 -32t-7 -38t-9.5 -45t-15.5 -47q-23 4 -64.5 21.5t-101.5 17.5h-71q-45 0 -75 -23.5t-47.5 -54.5t-24.5 -60.5t-7 -42.5q6 -45 18.5 -78.5t36 -63.5t61.5 -56.5t93 -57.5q68 -47 118 -93t83.5 -95t51 -104.5t17.5 -120.5 q-4 -92 -31.5 -155.5t-87.5 -115.5q-45 -45 -82.5 -68.5t-74.5 -34.5t-75 -13t-83 -2q-12 -4 -26.5 -4h-30.5q-59 0 -111.5 16t-87.5 33zM84 68q18 -6 45 -14.5t57.5 -16.5t62.5 -14.5t60 -8.5q82 0 152.5 26t123 72t82 107.5t29.5 132.5q0 55 -4 105.5t-26.5 98.5t-71.5 97 t-141 105q-49 31 -89 59.5t-70 61t-47.5 71.5t-19.5 90q0 35 10.5 74t34 72t61.5 54.5t93 21.5q41 0 65.5 -1t43 -4.5t36 -10.5t43.5 -21q2 10 6.5 26.5t9.5 32.5t10 30.5t7 22.5q-18 10 -47 18.5t-57.5 13.5t-53 7t-36.5 2q-82 0 -146.5 -30.5t-110.5 -78.5t-71 -105.5 t-25 -108.5v-33q0 -61 25 -117.5t63.5 -102.5t89 -80t103.5 -54q86 -68 142.5 -133.5t60.5 -169.5q0 -47 -18.5 -91.5t-52.5 -79t-82 -56t-105 -21.5q-18 0 -47 3t-61 10t-60.5 17.5t-46.5 24.5q-8 -25 -15.5 -54.5t-11.5 -49.5z" />
<glyph unicode="T" horiz-adv-x="774" d="M4 1372l15.5 15.5t13.5 15.5q27 -6 89 -9t141 -5.5t164 -3.5t156.5 -1h119h51.5q18 -12 14 -47q-2 -16 0 -46.5t2 -43.5q0 -12 -7.5 -23.5t-21.5 -11.5q-12 2 -35.5 2h-49t-49 -1t-34.5 -1q-27 0 -52 1t-42 6q4 -39 4 -147.5v-250.5q0 -129 -1 -270t-1 -261t-1 -202 t-1 -90q-14 -8 -34.5 -10t-41.5 0q-20 2 -50.5 4t-53.5 6q0 2 1 48v53.5v68.5q-1 76 -1 172t-1 201.5t-2 210t-2 194.5t-2 160t-1 102q-25 0 -65 2t-82 5.5t-77.5 5.5t-50.5 2q0 6 -1 26.5t-2 45t-4 46t-5 31.5zM51 1253h135q51 0 94.5 2t53.5 7q-2 -23 -3 -118t-1 -226.5 v-280t-1 -278.5t-1 -223t-2 -111h69.5t57.5 4q-2 33 -3 136t-1 237.5v281.5v272v208v89q8 -2 30.5 -3t44.5 -1q12 0 42 1t63 1h61.5t40.5 -2q-8 23 -8 49.5t4 49.5q-23 2 -72 3t-112.5 2t-134 2t-137 2t-122 2t-88.5 3q-6 -16 -7 -46t-3 -63z" />
<glyph unicode="U" horiz-adv-x="1001" d="M109 1384q12 0 49 2.5t71 2.5q14 0 43 -1.5t47 -11.5q0 -8 -1 -76.5t-2 -169t-3 -215t-3 -214t-3 -166t-2 -70.5q6 -43 14.5 -98.5t27 -103.5t51 -80.5t87.5 -32.5q113 0 162 77.5t60 255.5q-4 6 -6.5 51.5t-2.5 113v152.5v171v149.5t1 129t1 96v49.5q25 -4 44.5 -4 t50.5 2q39 0 69.5 3t26.5 1l4 -490v-150.5v-127v-93v-49.5q1 -19 1 -38q0 -129 -37 -217q-42 -101 -105.5 -161.5t-136 -85t-128.5 -24.5q-74 14 -136 35.5t-97 73.5q-66 52 -106 164q-34 93 -34 207q0 22 1 46q4 23 4 116v233q0 92 -1 187t-3 173t-4 130t-4 58zM143 471 v-15q0 -100 25 -181q27 -87 73 -148t107.5 -95t128.5 -34h19q102 0 170 39q74 43 118.5 114.5t62 161.5t17.5 183q0 8 -1 66.5t-1 144.5t-1 187t-1 194.5t1 166t3 103.5q-20 4 -63 3t-72 -7q4 -14 4 -52v-98q0 -63 -1 -141t-2 -160t-2 -159.5t-2 -138t-3 -99.5t-2 -41 q0 -31 -1 -71t-9.5 -80t-25.5 -77.5t-50 -64.5q-10 -29 -43 -48.5t-84 -19.5q-20 0 -35.5 2.5t-33 9.5t-38 19t-51.5 33q-27 45 -53.5 124t-30.5 185q0 16 6.5 106.5t6.5 225.5l-5 545q-37 4 -70.5 5t-56.5 3q2 -2 3.5 -56.5t1.5 -134v-173v-173.5q0 -141 -2.5 -236 t-6.5 -118z" />
<glyph unicode="V" horiz-adv-x="909" d="M18 1374q0 6 4.5 12.5t18.5 4.5q6 0 27.5 -1t46 -2.5t48 -4.5t36.5 -7q10 4 15 8.5t11 6.5q-2 -20 8 -29q27 -123 59 -281.5t73 -355.5q20 -98 44.5 -204.5t47.5 -205.5h4q14 109 41.5 215.5t56.5 194.5q0 8 9.5 53t23.5 110.5t30.5 141.5t31 145.5t25.5 124t15 74.5 q6 8 20.5 11.5t22.5 -1.5q4 -2 25.5 -3t47.5 -1t51.5 -1t37.5 -3q-4 -12 -20.5 -74.5t-40 -156.5t-52 -212t-59.5 -241t-60.5 -240.5t-54 -214t-43 -160t-24.5 -77.5q-12 -10 -45 -12t-74 -2q-16 0 -35.5 2t-30.5 8q-4 2 -20 62.5t-41 156.5t-54.5 219t-60 251t-60.5 251 t-52.5 219t-37 156.5t-16.5 62.5zM53 1348q8 -35 25.5 -106t41 -165t51.5 -204.5t55.5 -222t54 -217t48 -192.5t37 -145.5t21.5 -77.5q47 4 83 4.5t52 -4.5q4 23 18.5 83.5t37 146.5t49 190.5t54.5 214t55.5 218t51 201.5t42 166t26.5 110q-29 4 -60.5 6t-60.5 2 q-4 -14 -15 -64.5t-26.5 -118t-33 -143.5t-33 -141.5t-25.5 -109.5t-12 -48q-27 -133 -63 -271.5t-46 -269.5q-6 -12 -20 -12q-4 0 -9.5 8.5t-5.5 16.5q-31 127 -60.5 252t-55.5 266q2 -4 -6.5 40t-22.5 112.5t-32.5 149.5t-35 152.5t-28.5 121t-17 55.5q-23 2 -60.5 -1 t-74.5 -3z" />
<glyph unicode="W" horiz-adv-x="1404" d="M25 1352q-4 12 0 23t10 16q2 2 22.5 1t44 -3.5t46 -4.5t30.5 -2q16 2 19.5 4.5t9.5 6.5q10 -14 8 -33q25 -102 54.5 -239.5t58 -285t51 -292t33.5 -260.5h2q10 96 21 185t22 185q10 16 13 35t13 33q16 72 35 166t36 188t33.5 175t26.5 128q12 12 31 11h23.5t38 2t37 3 t20.5 1q6 0 14 -3t13 -8q4 -4 7 -11t7 -13l7 -44q7 -44 19.5 -111.5t26.5 -148.5t26.5 -153t23 -123t14.5 -59q23 -102 42 -203.5t25 -212.5h4q18 115 31.5 212t24.5 208l11 45q11 45 25.5 114.5t31 152.5t30.5 158q13 75 23 132q8 47 8 67v7q16 -4 47.5 -7t63.5 -5.5 t57.5 -5.5t29.5 -9q-45 -223 -80.5 -405.5t-68.5 -346t-65 -321.5t-66 -332q-43 8 -94.5 13.5t-88.5 11.5q-4 0 -14 8t-14 10q0 20 -14.5 96t-35 175.5t-40 206t-31.5 190.5q-14 88 -28.5 171t-30.5 157q-4 -20 -13.5 -71.5t-21 -107t-19.5 -100.5t-8 -53q0 -10 -9 -56.5 t-23.5 -112t-32 -144t-36 -152.5t-33.5 -134.5t-28 -90.5l-168 4l-12 60q-12 59 -32.5 155t-46 219t-52.5 251t-52.5 250t-46 217t-33.5 153.5t-13 56.5zM70 1360q4 -43 23.5 -149.5t47 -244l58 -290t58.5 -287.5t48.5 -237.5t26.5 -139.5l121 4q6 20 18 75.5t27.5 126.5 t32 147.5t29.5 142t22.5 110t9.5 48.5q25 127 49.5 238.5t28.5 230.5q6 18 20 14t25 -33q20 -88 39.5 -202.5t40.5 -237.5q-4 2 4 -41t22.5 -111.5t31.5 -150.5t33.5 -157t30 -132t19.5 -76q20 4 54 4h63q2 6 15 62.5t31.5 144.5t42 199.5t48 230.5t48.5 234.5t44.5 213 t34.5 166t18 93.5h-112l-136 -645q-16 -125 -38.5 -246t-36.5 -262q2 -18 -8 -19q-4 0 -10.5 8.5t-6.5 16.5q-12 137 -45 261t-47 232q2 2 -5 45.5t-20.5 108t-29 141t-29.5 148.5t-25.5 128t-13.5 79q-23 0 -61.5 -3t-55.5 -8q-8 -35 -20 -94t-27.5 -128.5t-32 -143.5 t-28.5 -134.5t-20.5 -101.5t-10.5 -47q-23 -125 -49.5 -243.5t-36.5 -229.5q0 -23 -16 -26q-14 -4 -19 14q-14 123 -39.5 245.5t-46.5 249.5q-27 156 -49 287q-10 55 -20.5 111.5t-19.5 105.5t-16 88t-11 58q-16 4 -54.5 6t-68.5 2z" />
<glyph unicode="X" horiz-adv-x="864" d="M12 -8q0 2 19.5 48t49.5 115.5t65.5 152.5t69.5 161t60.5 140.5t40.5 90.5q-8 25 -31.5 82.5t-55 129t-67.5 150.5t-65.5 146.5t-49 116.5t-21.5 64q16 -8 34.5 -6.5t40.5 3.5q16 4 35 6.5t29 2.5t25.5 -2t27.5 -7q29 -43 63.5 -122.5t71.5 -190.5q29 -47 43.5 -92 t30.5 -107h4q29 61 47.5 106.5t22.5 94.5q0 -2 9 17.5t22.5 51.5t29 70.5t28.5 73.5t21.5 60.5t8.5 31.5q16 2 44.5 5.5t57.5 5.5t51.5 4t28.5 2q10 0 22.5 -4t10.5 -11q-2 -6 -8.5 -11t-10.5 -9q0 -4 -19.5 -51t-48 -116t-62.5 -150.5t-63.5 -153.5t-51 -125t-25.5 -66 q12 -33 37.5 -94t57.5 -136t65.5 -153.5t62.5 -145.5t49.5 -112t26.5 -53q-20 -10 -47 -16t-68 -6q-43 0 -59.5 5t-28.5 21q-10 14 -31.5 66.5t-43 108t-38 99.5t-18.5 46q-29 41 -47.5 90t-34.5 117q-20 -53 -42.5 -105.5t-47.5 -105.5q4 -4 -3 -31t-21.5 -64.5t-32 -81 t-34 -81t-28.5 -64.5t-14 -31q-4 4 -16.5 6.5t-28 3.5t-29.5 0t-20 -1q-14 -2 -48 3t-53 7zM61 25q14 -4 32 -5.5t30 -1.5h43t39 2q2 4 11 29t21.5 58.5t28 71.5t27.5 70t20.5 53.5t8.5 23.5q14 57 35.5 123.5t41.5 142.5q2 6 8.5 12t12.5 6t10 -6t8 -6q14 0 15 -16 q14 -80 42.5 -139.5t51.5 -112.5q-4 0 9 -38t33.5 -89t43 -100.5t37.5 -73.5q29 2 55.5 1t79.5 -12q-14 27 -42 87.5t-60.5 135t-68.5 155.5t-65.5 149.5t-50 116t-22.5 55.5q10 18 33.5 67.5t55 114t65.5 136t66 136t55.5 115.5t33.5 72q-29 -4 -71 -4h-75 q-12 -20 -30.5 -66.5t-37 -95.5t-30.5 -89t-8 -46q-31 -51 -48.5 -104.5t-47.5 -131.5q-4 -4 -5 -8t-6 -6q-4 -2 -6 5t-6 13q-35 68 -59.5 118t-52.5 108q0 2 -13.5 42t-33 91t-39 101t-31.5 73q-37 0 -80 -2t-59 2q8 -20 31.5 -70.5t53 -118t63.5 -143.5t63.5 -143.5 t51 -119.5t29.5 -73q-2 -2 -19 -44t-46 -105.5t-62.5 -141t-66.5 -150.5t-60.5 -133.5t-42.5 -90.5z" />
<glyph unicode="Y" horiz-adv-x="856" d="M16 1337q-10 23 2 39q2 6 29 8t59.5 2h60.5t34 3q4 -4 16 -32t28.5 -69t33 -87t31 -84t23.5 -63.5t9 -23.5q25 -61 49.5 -125.5t44.5 -132.5q16 61 37 126t55 132q4 0 15.5 25.5t26 63.5t30.5 83t29.5 83t20.5 64.5t7 30.5q16 4 51 8.5t64 6.5t42 3t24 1q8 -6 14 -11.5 t10 -9.5q0 -6 -24.5 -63.5t-60.5 -141t-78 -182t-79.5 -184.5t-65.5 -147.5t-32 -71.5v-117q0 -63 1 -142t2 -149.5t3 -120t4 -53.5q-2 -4 -6 -6t-6 -4q-8 2 -34.5 0t-57.5 -4t-58.5 -4t-37.5 -2q-2 20 -4 70t-3 115t-1 135.5v130t1 99t1 44.5q-18 43 -48 114.5t-64 154.5 t-68.5 169t-62.5 155.5t-46.5 114.5t-20.5 49zM45 1350q12 -31 39 -98.5t60.5 -150.5t69.5 -173t66.5 -165t53 -125t26.5 -56q0 -4 1 -42t2.5 -93.5t2.5 -121t1 -127v-110.5t-2 -72q35 4 76.5 4t58.5 -6q-8 18 -8 81v155v338q0 6 21.5 59t55 130t72.5 167t75 174t63.5 149.5 t35.5 90.5q-14 0 -32.5 -1t-38 -3t-36 -4t-24.5 -4q-10 -25 -29.5 -77t-39 -107.5t-37 -98.5t-21.5 -45q-35 -72 -53.5 -148.5t-38.5 -154.5q-4 -8 -11.5 -11.5t-13.5 -5.5q-16 -4 -20 11q-25 92 -54.5 167.5t-46.5 131.5q-6 2 -25.5 46t-42 102t-42 115.5t-25.5 82.5h-25.5 h-37t-41 -1t-35.5 -3z" />
<glyph unicode="Z" horiz-adv-x="800" d="M20 -8q6 10 8.5 25.5t2.5 29.5t-4 34.5t0 31.5q6 8 40.5 79.5t84 178t107.5 232.5t113.5 245t98.5 216t64 144h-457l-2 156l4 29q0 -2 49 -3t123 -2.5t159 -2.5t159.5 -2t126 -3t55.5 -6q2 -10 4 -26.5t3 -35t-1 -35.5t-6 -28q2 0 -28 -71.5t-79 -182t-109.5 -244 t-117 -255t-100.5 -217t-62 -129.5q25 2 90.5 4t143 3t151.5 1h115q2 -2 5 -23.5t5 -50.5t2 -56.5t-6 -39.5h-60.5h-138.5h-176t-175 1t-135 1t-57 2zM61 90q4 -14 4.5 -38.5t0.5 -41.5h71h116.5h138.5t139.5 1t120 1t77.5 2q-4 20 -2 57.5t2 51.5q-49 0 -118.5 1t-143.5 1 h-142.5t-113.5 -2q12 23 52 108.5t94.5 203.5t114.5 251t113.5 252t91.5 208t48 116q4 16 5 45.5t-1 48.5q-25 0 -77 -1t-115.5 -1t-133 -2t-130 -2t-105.5 -1t-62 -1q-4 -23 -4 -55.5v-43.5q35 0 93.5 2t123.5 2q94 0 168 -3t84 -11q4 -4 4 -10t5 -17q-6 -6 -42 -81.5 t-88.5 -189.5t-114 -247t-116.5 -256t-98 -218t-60 -130z" />
<glyph unicode="[" horiz-adv-x="528" d="M127 -238q2 6 5 101.5t4 243t2 324.5t1 347q0 125 -1 238.5t-1 201t-1 140.5t-1 59q82 -4 178.5 -7t169.5 11q2 -12 4 -33.5t3.5 -44t0 -42t-7.5 -27.5q-27 0 -80 2l-106 4q2 -18 4 -79.5t3 -152t1 -201t-1 -226t-1 -229t-1 -210t-1 -168v-102.5q8 -2 33.5 -4t55.5 -3 t58.5 0t43.5 3q2 -10 2 -30.5v-44v-45t-2 -34.5q-10 2 -59.5 3t-108 1t-114.5 1t-83 3zM166 1382q2 -37 4 -128t3 -213.5t2 -267t1 -288.5q0 -121 -1 -232.5t-1 -204.5t-1 -159.5t-1 -95.5q31 0 71 1t81 1t76.5 1t58.5 1q4 10 4 36t-2 46q-10 -2 -34 -4t-53.5 -3t-60 -1 t-51.5 2q2 10 3 73.5t2 161t2 219.5t2 248.5t1 249.5t1 223.5t1 169v85.5q14 0 41 1t53.5 1h49t33.5 2q6 29 7 44t-3 29q-23 0 -63 -1t-83 -1t-83 1t-60 3z" />
<glyph unicode="\" horiz-adv-x="598" d="M-16 1407q43 -2 84 1t63 5q2 -8 20.5 -72.5t49 -165t70.5 -227.5t81 -259t81 -261t73 -232.5t56.5 -173t29.5 -83.5q14 -27 8 -33q-4 -4 -12 -4t-15 2q-4 0 -20 2t-37.5 4t-43.5 3t-32 1q-4 8 -26.5 73.5t-55 168t-73.5 232.5t-83 265t-81 265.5t-70 236t-49 174 t-18 78.5zM25 1370q8 -35 30.5 -107.5t53 -170t66.5 -211t73 -230t72.5 -230.5t65.5 -209t51.5 -166t29.5 -103q20 -6 46 -8.5t44 -2.5q-12 33 -36.5 106t-56.5 171t-69 215t-73.5 235.5t-72.5 234.5t-65.5 212t-51 165.5t-30.5 98.5h-77z" />
<glyph unicode="]" horiz-adv-x="528" d="M37 1296v29.5v35t1 33t5 21.5q6 6 31 6q27 -4 75 -6t97 -3t89 -3t50 -6q2 0 5 -53.5t4 -143.5t2 -206.5t1 -243.5q0 -166 -1 -338t-2 -313.5t-4 -234.5t-5 -101q-12 -4 -61.5 -3t-106.5 1h-105.5t-60.5 -3q-4 8 -7 30t-3 38t2 41t12 27q25 0 78 3t94 1q0 33 1 137 t1 243.5v297t1 298t2 245t4 139.5q-16 2 -43 4t-53.5 5t-45 5t-20.5 4q-12 2 -20.5 6t-16.5 8zM74 1309q10 -4 33.5 -6.5t46.5 -2.5h63.5t44.5 3q0 -76 -2 -128.5t-2 -99.5q0 -51 1 -136t2 -189.5t3 -222t4 -231.5t4 -218.5t4 -183.5q-23 -16 -67.5 -21.5t-130.5 -1.5v-76 h64.5t79.5 1t76 2t54 5q2 39 4 121t3 190.5t1 237.5v261t1 259t1 232.5t1.5 181.5t3.5 105q-16 -2 -55.5 -3.5t-84.5 -2.5t-87 -3t-62 -6z" />
<glyph unicode="^" horiz-adv-x="1220" d="M111 375q6 16 40.5 93t83 182.5t101.5 224t99 221t76 171t30 74.5q6 0 24.5 1t40 1t41 -1t25.5 -1q6 -6 39.5 -75.5t82 -172t103.5 -222t101 -226t77 -184.5t31 -94q-8 2 -30.5 3t-47 2t-47.5 2t-31 5q-8 8 -31.5 61.5t-57.5 130t-71.5 167.5t-72.5 174t-61.5 147.5 t-39.5 91.5q-16 -35 -46.5 -103.5t-65.5 -151.5t-72 -173t-67.5 -165t-51 -126t-22.5 -59zM170 414q29 0 57.5 -1t38.5 -5q6 20 34 85.5t64.5 152.5t77.5 182.5t76 176t57.5 134t22.5 57.5q12 16 23 14q12 -2 18 -18q2 -14 26.5 -71.5t59.5 -138.5t76 -174t76.5 -175 t61.5 -142.5t30 -76.5q16 4 49 4h53q-16 39 -51 113.5t-77 168t-88 192.5t-87 186t-71.5 151.5t-43.5 85.5l-78 -6q-4 -6 -30.5 -66.5t-66.5 -148.5t-87 -193.5t-91 -203t-79 -174.5t-51 -109z" />
<glyph unicode="_" horiz-adv-x="1024" d="M0 -154h1024v-102h-1024v102z" />
<glyph unicode="`" horiz-adv-x="614" d="M51 1372q10 33 33 45q8 -2 31.5 -3t50.5 -3t49.5 -5t30.5 -7t34.5 -47t56.5 -96.5t54.5 -100.5t28.5 -57q-6 -4 -9 -4t-14 -4q-18 4 -49.5 5t-54.5 3q-25 27 -55.5 66.5t-63.5 79.5t-64.5 75t-58.5 53zM119 1368q23 -29 54.5 -70t62 -78.5t53 -64.5t24.5 -27q27 -2 64 0 q-16 27 -39 68t-45.5 80t-41 66.5t-24.5 29.5h-16h-32.5t-36 -1t-23.5 -3z" />
<glyph unicode="a" horiz-adv-x="786" d="M41 274q14 166 126 262.5t327 100.5q2 18 2 41.5v38.5q0 33 -13.5 59.5t-32 45t-40 28.5t-35.5 10q-4 0 -28.5 -5t-57.5 -14.5t-69 -19.5t-60 -20q-2 6 -9.5 27.5t-15.5 46t-13 44t-3 19.5q8 12 36.5 25.5t65.5 23.5t79 18.5t79 12.5q72 -6 123 -22.5t88 -67.5 q44 -36 72 -108q24 -62 25 -160q0 -14 -1 -29q2 4 3 -15.5t2 -52.5t2 -76t1 -86q1 -14 1 -28q0 -29 -3 -62q-4 -49 -12 -86q10 -51 13 -113.5t9 -115.5q4 -10 -16 -19q-2 4 -19.5 5.5t-40 1.5h-45t-36.5 2q-4 2 -5 2t-5 2q-6 6 -7 10q0 8 -3 25.5t-7 33.5 q-41 -35 -103.5 -64.5t-121.5 -29.5q-37 0 -80 24.5t-86 59.5q-31 35 -53.5 94.5t-32.5 130.5zM78 274q8 -59 25.5 -117.5t64.5 -88.5q23 -27 62.5 -48.5t76.5 -31.5q66 6 120 36.5t83 98.5q4 10 20 10q6 0 13.5 -6t11.5 -10t-4 -17q0 2 0 -8v-25.5t1 -31t3 -25.5l109 4 q2 12 0 43t-5.5 67t-6.5 67.5t-3 44.5q4 70 4 179v226q-4 94 -20.5 159.5t-48 105.5t-80.5 58.5t-121 18.5q-6 0 -33.5 -3t-63.5 -10t-73 -19.5t-63 -30.5l34 -72q39 16 81 31.5t87 21.5q51 -4 76 -12t59 -29q14 -23 25.5 -42t17 -43.5t6.5 -60.5v-9q0 -34 -6 -82 q-199 -8 -319.5 -98.5t-132.5 -250.5zM207 244l6 53q0 37 12.5 78t46.5 73q36 32 98 54q57 20 145 20h17v-41v-74.5t1.5 -75.5t3.5 -48q0 -12 -9.5 -42t-29 -60.5t-48 -55.5t-67.5 -25h-18q-6 -4 -15.5 -5t-15.5 -1q-8 0 -29.5 7.5t-43 24.5t-38 46t-16.5 72zM252 289 q0 -27 1 -45.5t4 -33.5t9 -31.5t15 -39.5q12 -6 27.5 -11t29.5 -5q55 0 89 24.5t51.5 55t22.5 58.5t5 32q0 12 -1 34.5t-2 50.5t0 55.5t3 49.5q-68 -4 -122 -17t-91 -38q-16 -20 -28.5 -59t-12.5 -80z" />
<glyph unicode="b" horiz-adv-x="874" d="M86 18q4 10 6 38t3 62t5 69.5t13 60.5q-2 0 -3 44t-2.5 117.5t-2.5 170t-1 198.5q0 109 1 215.5t1 193.5t1.5 147.5t1.5 74.5q-2 33 30 33q14 0 39 -2t53 -6q27 -4 49.5 -10.5t26.5 -10.5q-4 0 -6 -55t-4 -133t-2 -162t2 -139q37 51 93 76.5t124 25.5q8 0 28.5 -5 t45 -16.5t49.5 -27.5t43 -41q72 -63 103.5 -173t35.5 -259q1 -25 1 -49q0 -101 -20 -181q-26 -98 -71 -164.5t-104.5 -99.5t-120.5 -33q-78 0 -133.5 30t-100.5 106q-2 -6 -3 -18.5t-2 -28l-2 -31t-1 -25.5q-2 -10 -13 -12t-26 -2q-20 0 -55 -3t-57 -11q-8 4 -14.5 15 t-10.5 21zM127 1401q2 -18 3 -73.5t1 -135.5v-175v-194v-132v-165v-173t1 -158.5t1 -119.5t2 -57q29 0 51.5 1t38.5 -1q2 12 5 31t6.5 38t6.5 35.5t5 20.5v11.5t16 7.5t18.5 -8.5t6.5 -14.5q20 -66 63 -100.5t103 -34.5l41 4q51 0 101 30t90 91t63.5 153.5t23.5 217.5 q0 66 -4 125t-16.5 112.5t-36 100.5t-64.5 90q-20 31 -58 47t-73 16q-29 0 -56.5 -2t-55 -14t-55 -40t-54.5 -79q-6 -8 -16 -8q-6 0 -8.5 5t-6.5 11t-6 55.5t-2 102.5q0 51 1 110.5t1 112.5t1 96t1 64q-8 -2 -28.5 -2h-43h-42t-25.5 -2zM256 297l6 109q2 25 3 60.5t1 69 t1 59.5t3 32q0 39 -14 75q23 68 76 124.5t114 70.5q27 -8 55.5 -17.5t53.5 -45.5q31 -25 49.5 -57t28.5 -73.5t14 -94t6 -117.5q0 -14 2 -28.5t2 -31.5q0 -72 -25.5 -149.5t-72.5 -128.5q-25 -25 -47.5 -39.5t-56.5 -20.5q-20 0 -48 9.5t-56.5 32t-54.5 61.5t-40 100z M287 332q14 -59 35.5 -95t45 -55.5t47 -27t44.5 -7.5q55 0 89 36t51 89.5t22.5 116t5.5 115.5q0 113 -22.5 189.5t-63.5 129.5q-31 14 -46.5 22.5t-52.5 14.5q-29 0 -55.5 -20.5t-47 -50t-33.5 -61.5t-13 -52q0 -8 4 -29.5t4 -25.5z" />
<glyph unicode="c" horiz-adv-x="667" d="M57 473q0 121 30 221.5t86 171t136 109.5t180 39q51 0 93.5 -12.5t68.5 -32.5q-8 -43 -18 -82q-7 -28 -7 -51q0 -9 1 -17q-29 8 -62 17.5t-67 9.5h-31q-45 0 -83 -31t-65.5 -80t-43 -109.5t-15.5 -121.5v-35q0 -92 24.5 -162.5t65.5 -99.5q20 -25 35.5 -37t29 -18.5 t27 -7.5t29.5 -1q16 -4 30.5 -4h24.5q27 0 54.5 7.5t58.5 11.5q0 -23 4 -57.5t8 -69.5q-25 -20 -77 -35.5t-130 -22.5q-61 6 -131.5 28t-130.5 67q-51 68 -88 175t-37 230zM92 492q2 -66 9.5 -125.5t22.5 -108.5t39.5 -87t59.5 -58q47 -47 99.5 -76t113.5 -29l58 -4 q41 0 74.5 13.5t47.5 23.5q4 12 -1 43t-9 47q-29 -14 -64.5 -24.5t-70.5 -12.5q-68 0 -116 38t-79.5 97.5t-46 133t-14.5 145.5q0 100 26.5 173t65.5 118t84 66.5t84 21.5q33 0 53.5 -1t32.5 -4t22.5 -10.5t22.5 -19.5q0 16 6 51t17 51q-23 14 -67 18.5t-91 14.5 q-12 0 -44 -6t-74 -25.5t-88 -53.5t-85 -88t-63.5 -134t-24.5 -188z" />
<glyph unicode="d" horiz-adv-x="872" d="M59 543q0 100 25 188t68 153.5t102 103.5t129 38q66 0 115 -28.5t80 -75.5q-2 29 -4.5 71.5t-3.5 92t-2 100.5t-1 96q0 59 4 103.5t11 54.5q2 2 23.5 2h48t50 -1t31.5 -1q21 -7 41 -23v-54t-1 -136t-2 -189.5t-2 -215t-1 -215t-1 -187.5q0 -41 -0.5 -73.5t0.5 -57.5 q1 -49 1 -47v-109q0 -35 2 -70.5t8 -70.5q-2 0 -15 -1t-32.5 -2t-41 -2t-36.5 -1q-12 0 -25.5 2t-17.5 6q-2 2 -4 17.5t-4 33.5t-4 38.5t-4 37.5q-23 -55 -55.5 -86t-67.5 -45.5t-66.5 -16.5t-50.5 -2q-51 0 -89 24.5t-68 61.5q-41 33 -68 75t-43 100.5t-22.5 135 t-6.5 175.5zM86 535q0 -70 2 -134.5t12.5 -123t35 -107.5t67.5 -86q20 -20 63 -51t105 -31q78 0 133 43t82 102q4 6 12 9.5t14 3.5t10.5 -7.5t4.5 -15.5v-112h24.5h38t36.5 1t22 5q-6 47 -16.5 110.5t-10.5 145.5l-4 104q0 53 2 136t4 180.5t4 201t3 197.5t1 171v122 q-29 -4 -72 -4t-63 4q2 -14 3 -54t1 -93.5v-112t1 -109.5t1 -89t2 -50q4 -16 4 -26.5t-4 -12.5t-13 7t-13 18q-29 53 -77 77.5t-122 34.5q-37 -4 -79 -19.5t-83 -56.5q-68 -53 -99.5 -149t-31.5 -229zM213 440q0 41 5 116t25.5 148.5t61.5 128t115 54.5q68 0 124 -58.5 t68 -150.5q-10 -14 -10 -30.5t-2 -31.5q2 -16 5 -41.5t3 -62.5q0 -94 -12 -139q6 -25 4 -47.5t-10 -38.5q-16 -61 -39 -99t-46.5 -58.5t-45 -28t-35.5 -9.5q-47 16 -66.5 28.5t-46.5 35.5q-51 41 -74.5 116.5t-23.5 167.5zM240 494q0 -66 7 -129.5t28.5 -112.5t58.5 -79 t98 -30q31 0 72 34t55 124q6 20 7 37.5t-3 30.5q2 14 4 48t4 71.5t4.5 69.5t2.5 44q0 6 -4.5 30.5t-0.5 29.5q-10 88 -52 136t-105 48h-6q-53 -12 -86 -47t-51.5 -84t-25.5 -106.5t-7 -114.5z" />
<glyph unicode="e" horiz-adv-x="790" d="M49 471v18q1 117 25 209q26 100 75.5 170t117 109t147.5 45q61 -4 115.5 -19.5t91.5 -52.5q39 -47 61.5 -94t33.5 -99t14 -109.5t3 -121.5q2 -20 5 -29.5t7 -15.5q-8 -16 -34 -26l-467 4q25 -330 229 -330q14 0 40 2t54.5 7t57 12.5t51.5 19.5q2 -4 5 -21.5t8 -40t9 -44 t7 -31.5q-20 -16 -50 -27.5t-64 -18.5t-69 -12.5t-63 -7.5q-92 0 -157.5 32t-111 82t-73 109.5t-43 115.5t-20.5 101.5t-5 63.5zM94 410q0 -115 32 -191t83 -122t113.5 -65.5t123.5 -19.5q72 0 125.5 10.5t104.5 26.5q-8 6 -16.5 34t-16.5 50q-27 -10 -59.5 -20.5 t-69.5 -10.5h-20.5t-20.5 4q-55 0 -102 14.5t-83 54.5t-58.5 112.5t-30.5 189.5q12 13 22 17h36t79 1t103.5 1h108.5h94t60 -2q8 18 11.5 35.5t7.5 31.5q-14 113 -43 207t-70 141q-37 35 -73.5 53.5t-71.5 18.5h-15.5t-15.5 -4q-57 0 -111.5 -10.5t-99.5 -67.5 q-39 -37 -63.5 -91t-39 -118.5t-19.5 -136.5t-5 -143zM219 571q2 43 9.5 99.5t30 105.5t63 84t110.5 35q27 0 55.5 -15.5t50.5 -51.5q22 -38 36 -98q9 -42 10 -97q0 -25 -2 -53h-217q-53 0 -84 -2.5t-62 -6.5zM256 606q14 0 59 2t94.5 4t93.5 2t60 -2q-4 74 -21.5 131 t-56.5 84q-12 33 -49 33q-6 0 -15 -1t-15 -5q-41 0 -70 -25.5t-47.5 -62.5t-26.5 -80q-6 -34 -6 -65v-15z" />
<glyph unicode="f" horiz-adv-x="489" d="M0 961.5v23.5q6 23 29 27q20 -2 53 -5t49 -8q-4 16 -5 29.5t-5 28.5q16 90 37.5 172t66.5 135t99.5 67.5t89.5 14.5q66 0 110.5 -13.5t57.5 -27.5q0 -12 -2 -30.5t-5.5 -39t-7.5 -38t-10 -25.5q-6 -2 -19.5 -1t-29.5 4t-31.5 9t-25.5 12q-20 -14 -44 -21t-24 -24 q-16 -8 -28.5 -31.5t-21.5 -57.5t-14.5 -73.5t-5.5 -80.5q12 0 43 1t64 2t59.5 3t30.5 4v-105q0 -37 -4 -43q-7 -10 -19 -10q-6 -2 -26.5 -2h-46t-52 -1t-43.5 -3q0 -31 2.5 -101.5t3.5 -160.5t3 -187.5t3 -181.5t2 -143.5t1 -71.5q-8 -6 -27.5 -13t-36.5 -9q-8 0 -25.5 -1 t-38 0t-40 4t-31.5 7q0 2 -1 59.5t-1 144.5t-1 190.5t-1 197.5t1 166.5t3 95.5q-29 4 -65.5 5t-53.5 1q-6 12 -9 30.5t-5 38t-2 37zM31 969q2 -10 4 -36t2 -42q29 0 67.5 -7t67.5 -12q-4 -27 -7 -72.5t-3 -137.5q0 -86 2 -190.5t3 -198t3 -162t2 -84.5q20 -2 49 -4.5 t58 -2.5q-2 10 -2.5 77t-0.5 160v199.5v197.5t1.5 152.5t1.5 63.5q4 6 38.5 11.5t69.5 5.5h52.5t33.5 -4q2 4 3 18t1 29.5v30v20.5q-10 -2 -37.5 -5t-59.5 -6t-58.5 -6t-32.5 -6q-2 10 -1 26.5t1 45.5q0 59 7 112.5t26.5 94.5t51.5 65.5t81 24.5q14 0 31.5 -6t31.5 -10 q6 12 16.5 39.5t10.5 44.5q-23 4 -47.5 10t-65.5 12q-16 -4 -36.5 -6t-45 -7t-51.5 -18.5t-51 -39.5q-83 -100 -83 -250q0 -19 1 -39q2 -14 2 -36v-52q-23 -2 -62 1q-17 1 -34 1q-21 0 -41 -2z" />
<glyph unicode="g" horiz-adv-x="872" d="M51 492q2 133 35 231t83 162.5t110.5 96.5t121.5 36q68 0 116 -22.5t79 -80.5q0 23 3 50.5t13 35.5q4 2 22.5 3.5t41 1.5h45t37.5 4l9 -13.5l9 -13.5q-6 -59 -12 -129q-4 -42 -4 -98q0 -37 2 -80q2 4 3 -35t1 -99.5t-1 -131t-2 -133t-1 -104.5v-42q2 -44 2 -82.5 t-2 -72.5q-4 -66 -16.5 -116t-35 -88t-55.5 -69q-45 -66 -117.5 -98.5t-152.5 -32.5q-18 0 -55 5t-76 14.5t-75 23t-52 29.5q-2 2 2 23.5t8 46t7 48t1 31.5q8 0 24.5 -6t39.5 -10q39 -10 88 -19.5t92 -13.5q25 2 57.5 11t62.5 39t49.5 89.5t19.5 161.5q-4 -4 -4.5 9.5 t-0.5 17.5q-31 -37 -83 -61.5t-119 -28.5q-20 0 -72.5 18t-108 72.5t-97.5 155t-42 264.5zM78 500q0 -16 4 -57.5t15.5 -93.5t30.5 -108.5t50 -102.5t75 -75.5t103 -29.5q68 0 126.5 16.5t99.5 89.5q4 8 6 16.5t8 8.5q12 0 22 -25q-2 -6 -3 -22.5t-2 -32.5t-1 -29.5 t-2 -13.5q-4 -98 -25.5 -166t-56.5 -119q-23 -12 -59.5 -30.5t-83.5 -18.5q-14 0 -41 1t-57.5 7t-60.5 19t-50 33q-4 -25 -11 -60t-18 -51q47 -16 107.5 -31.5t112.5 -19.5q82 6 149.5 31.5t124.5 84.5q14 18 31.5 44t31 66t22.5 96.5t9 135.5l-4 166q0 59 1 138t2 151 t4 124t7 56v68q0 66 -1 116t-5 91q-20 -4 -48.5 -4t-49.5 4l-4 -107q0 -10 -8 -26q-4 4 -12.5 12t-12.5 14q-43 63 -92 94t-96 31q-61 0 -110.5 -23.5t-84.5 -62.5q-47 -43 -87 -136t-56 -269zM227 518q0 174 55.5 268.5t147.5 102.5q68 -10 112 -46t54 -118 q16 -16 19 -31.5t-1 -52.5q-4 2 -7 -41t-3 -94q0 -100 14 -131q-4 -20 -5 -45t-21 -45q-16 -88 -61.5 -123t-122.5 -35q-29 0 -54.5 8t-46.5 37q-51 37 -65.5 127t-14.5 219zM240 500q8 -55 19 -116.5t30.5 -113t49.5 -84t73 -32.5q6 0 10 2l12 6q11 -3 22 -3q30 0 57 25 q36 35 46 101q14 23 13 50t6 36q-4 20 -6.5 59t-2.5 92q0 45 4.5 87t8.5 48q0 8 -6.5 24.5t-6.5 20.5q-10 25 -20 50.5t-24.5 47t-36 35t-54.5 13.5l-33 4q-23 0 -51 -23.5t-53 -68.5t-41 -110.5t-16 -149.5z" />
<glyph unicode="h" horiz-adv-x="880" d="M96 1405q4 8 7 16.5t14 14.5q20 -2 42.5 -3t51.5 -1h42t23 4q6 -10 6.5 -20.5t2.5 -29.5q0 -10 2 -69.5t4 -136t3 -152.5t1 -115q37 43 80 50q29 16 68 35.5t100 19.5q49 0 92 -30t73.5 -81t49 -119.5t18.5 -148.5v-195q0 -61 1 -124.5t3 -120t4 -105.5t7 -82 q0 -8 -9 -24q-6 0 -26.5 -2t-45 -4t-49 -5.5l-38.5 -5.5q-6 4 -16.5 6.5t-16.5 12.5q1 25 1 71v51q-1 85 -3 180t-5 184t-5 136q6 20 6 54q0 53 -14.5 93t-37.5 68q-20 8 -39.5 13.5t-31.5 15.5q-68 -10 -99.5 -45t-48.5 -113q-8 -8 -17 -32.5t-1 -44.5q2 4 3 -37t1 -107.5 v-146.5t1 -153t3 -126t4 -65q-18 2 -48 1t-61.5 -3t-58 -4.5t-39.5 -2.5q2 10 2 74t1 161q0 48 0.5 103t-0.5 117q-1 123 -1 251t-1 252t-1 224.5t-1 166t-3 79.5zM141 8q29 4 55.5 8t57.5 7q0 18 1 70t2 120t3 142.5t3 137t1 102.5t-2 40q-4 10 -4 20.5v20.5q0 12 10.5 47 t33 71.5t59.5 64.5t92 28q20 0 51 -14.5t59.5 -47t49 -83t20.5 -121.5q-2 -2 -2 -40t-1 -95.5t-2 -128t-2 -136t-3 -121t-5 -84.5q25 -4 60 -4t63 -4q6 16 7.5 81t1.5 153v411v15q0 40 -8 88q-10 58 -36 108.5t-69 85.5t-105 35q-4 0 -20 -3t-39.5 -8t-50.5 -12.5t-47 -17.5 q-14 -10 -23.5 -18t-18.5 -16.5t-18.5 -17.5t-23.5 -24q-4 -4 -9.5 -12t-13.5 -8t-11 10t-3 21q4 0 5 31.5t2 81.5t1 110.5t-1 117t-1 101.5t2 65q-18 6 -51 8h-18q-25 0 -52 -3v-155t1 -250t1.5 -297t0.5 -295t-0.5 -242.5t-2.5 -143.5z" />
<glyph unicode="i" horiz-adv-x="395" d="M80 1247q0 4 2 10.5t2 16.5q0 35 2 56.5t16 25.5q29 20 47.5 34.5t53.5 14.5q41 -8 71.5 -33.5t30.5 -79.5l-4 -37q0 -43 -22 -81q-23 -10 -48.5 -17.5t-33.5 -5.5q-14 -10 -38 1t-34 32q-20 6 -32.5 20.5t-12.5 42.5zM90 995q12 2 41 3t60.5 4.5l58.5 6.5t35 7 q14 -14 20 -35q-6 2 -9 -54.5t-5 -145.5t-3 -199.5t-2 -218t-3 -199.5t-4 -144q4 -12 4 -20t-4 -18q-12 0 -36 1t-49.5 2t-50 2t-43.5 3l2 45v123t-1 192.5t-3 220t-3 206.5t-3 154.5t-2 63.5zM112 1245.5q5 -20.5 17 -39t28.5 -29t32.5 -3.5q16 -2 39 4t27 18 q20 12 21.5 38t1.5 36q0 53 -27 75.5t-55 22.5q-33 0 -59 -22q-25 -21 -25 -62v-6q-6 -12 -1 -32.5zM139 513q0 -114 1 -215t1 -176t2 -95q23 -4 53.5 -5.5t55.5 -1.5q0 27 1 100t2 167t2 201.5t2 203.5t1 172v109q-6 2 -21.5 3t-33 2t-34 2t-28.5 1q-2 -14 -2 -85t-1 -170 t-1 -213z" />
<glyph unicode="j" horiz-adv-x="403" d="M-74 -302q0 34 11 48q35 0 67.5 21.5t67.5 52.5q16 37 28 102q9 54 9 155v36l1 65q1 66 2 163t2 211t1 212v167v75q6 2 33.5 3t59.5 1t59.5 -2t35.5 -9q2 -8 3 -79v-78v-94q-1 -103 -2 -220.5t-2 -217t-1 -167t2 -67.5q1 -19 1 -38q0 -126 -24 -205q-28 -91 -79 -143 t-121 -77t-148 -45q0 6 -1 22.5t-3 38.5q-2 35 -2 69zM-53 -299q4 -20 9 -47t13 -43q18 0 45 8t55.5 20.5t56.5 29t50 32.5q57 51 75.5 142t29.5 225q-2 2 -4.5 60t-2.5 147.5t-1 196t-1 206.5t-1 180t-1 115q-27 4 -62.5 4h-62.5q0 -25 -1 -97.5t-1 -168v-200.5v-193.5 t3.5 -146.5t7.5 -58q0 -70 -4.5 -119t-12.5 -85t-23.5 -62.5t-35.5 -49.5q-6 -25 -22.5 -40t-35 -25.5t-39 -17.5t-34.5 -13zM86 1278q0 51 32 86q22 24 54 24q16 0 35 -6q10 4 22 4q33 0 51.5 -12t28.5 -30.5t13.5 -40t3.5 -37.5q0 -25 -9.5 -48.5t-26 -42t-37 -28.5 t-40.5 -6q-39 10 -54.5 15t-35.5 5q-14 25 -25.5 56.5t-11.5 60.5zM117 1274q8 -31 16 -44t25 -24q0 -16 9 -21t32 -9q10 4 17 4h28q12 0 19 11t12.5 28.5t7.5 36t2 32.5q0 27 -15.5 47.5t-40.5 20.5h-9t-13 -4q-16 8 -23 8q-4 0 -15 -4t-22.5 -14.5t-20.5 -27t-9 -40.5z " />
<glyph unicode="k" horiz-adv-x="763" d="M96 718v258t1 226.5t2 164t3 67.5q8 4 26.5 3t29.5 -1q8 -2 27.5 -4t40 -4.5t39 -3.5t28.5 3q0 -20 -1 -76.5t-2 -133t-2 -166.5t-3 -176.5t-3 -162t-3 -122.5q27 37 69.5 102.5t82.5 132t68.5 117.5t26.5 57q4 2 34 2t66 -1t66.5 -4t38.5 -7q2 -2 -14.5 -30.5t-44 -71.5 t-61 -94.5t-64.5 -97.5t-56.5 -78.5t-35.5 -38.5q10 -18 35.5 -64.5t59.5 -107t69.5 -126t66.5 -124t50.5 -100.5t21.5 -52q-10 -10 -33 -13t-51 -3q-29 0 -62.5 2t-62.5 6q-2 4 -14.5 31.5t-33 68.5t-44 91.5t-48 99.5t-45 91t-34.5 68q-8 -10 -22.5 -31.5t-14.5 -43.5v-46 t-1 -71t-2 -81t-1 -78v-59.5v-25.5q2 -12 -7.5 -16t-31.5 -8q-4 0 -19.5 -1t-32 -2t-32.5 -1h-23q-25 0 -30 8q-10 10 -11 28q-2 0 -3 59.5t-1 158t-1 224.5t-1 258zM131 852q0 -135 1 -273.5t2 -255t2 -198.5t3 -107q35 4 66 5.5t57 3.5q-2 20 -5 76.5t-6 118t-4 111.5 t1 58q8 8 19.5 22.5t23.5 30t22.5 28.5t14.5 17q23 -23 58.5 -89t72.5 -141t66.5 -140.5t41.5 -85.5h33t43.5 -1t43 -2t34.5 -3q-27 49 -73 135t-93 173t-84 157.5t-45 89.5q6 6 40 52t76 107.5t83 125t65 102.5q-16 2 -37.5 2t-43 -1t-40 -4.5t-28.5 -7.5q-4 -4 -29 -48 t-55.5 -100t-59 -108.5t-41.5 -70.5q-27 -33 -45 -72t-24 -45q-6 0 -13.5 5t-7.5 13q0 14 -2 74t-4 145t-3 186t-1 200q0 86 1 153.5t5 102.5q-8 2 -24.5 4t-36 3t-37 1h-29.5q-2 -27 -3 -81t-1 -126v-160v-182z" />
<glyph unicode="l" horiz-adv-x="395" d="M98 1369.5v66.5l140 -4h30.5t18.5 4q6 -15 18 -27q-4 -20 -6 -81.5t-4 -149.5t-3 -198t-3 -226.5t-2 -233.5v-219q0 -68 1 -114t1 -80.5t1 -61.5t1 -53q-20 -2 -46 -2h-48q-33 0 -48.5 -3t-27.5 -7q-12 4 -15 20v63.5v162t-1 228.5t-2 261t-2 261t-2 229.5t-1 164z M129 1386q0 -41 1 -126.5t3 -197.5t3 -241t3 -253t3 -235.5t1 -189.5v-127q23 -4 58 -4t59 4v1375h-74t-57 -5z" />
<glyph unicode="m" horiz-adv-x="1343" d="M102 535v292v35v47.5t1.5 48t5.5 35.5q12 -1 26 -1q27 0 60 3q49 4 67 9q4 2 7 -8.5t4 -26t2 -31.5t1 -29q31 43 62 66.5t61.5 35t60 13.5t56.5 2q74 0 123 -41t80 -108q25 35 48.5 62.5t51 47t62 29.5t86.5 10q68 0 105.5 -20.5t60.5 -65.5q59 -41 77.5 -116.5 t18.5 -184.5q2 -109 6 -209q2 -86 4 -179t2 -155q0 -16 -1 -52t-7 -52q-4 -2 -29.5 -1t-56.5 1t-58.5 1t-33.5 -1q-10 25 -11.5 92.5t-1.5 159.5v127.5t2.5 118t3.5 88t5 38.5q-2 53 -7.5 92.5t-21.5 68t-45 49t-76 36.5q-35 -16 -71.5 -47t-67.5 -104v-4q0 -14 6 -35t2 -33 l-6 -651q-8 -2 -30.5 -3t-51.5 -1h-59.5h-53.5q0 12 2 66t3.5 126t3.5 153t3 149.5t1 113.5v47q-6 72 -16.5 117t-32.5 75q-25 10 -44.5 16.5t-46.5 10.5q-20 0 -44.5 -13.5t-45 -35t-35 -48t-14.5 -50.5q0 -25 -3 -39.5t-7 -42.5l2 -36t3 -93.5t2 -127t2 -135t1 -121v-83.5 l-12 -56q-53 6 -102.5 8.5t-84.5 10.5q0 4 -1 58.5t-1 134t-1 173t-1 173.5zM134 969q4 -25 3.5 -63t-0.5 -60q0 -49 15 -113q-2 -2 -2 -47t-1.5 -114.5t-2.5 -153.5t-2 -162t-3 -141.5t-4 -91.5q20 -4 55 -2t58 -3q0 10 2 59.5t3 117t2 145.5t2 146.5t2 116.5t3 59 q2 10 0 27.5t-4 33.5q12 61 56 112.5t106 51.5q51 0 84 -5t39 -40q47 -47 56 -108.5t9 -162.5v-134t-1 -151.5t-2 -147t-1 -120.5q20 4 53 4q3 0 6 1q30 0 62 -5q2 18 3 66.5t2 109t2 129t2 130t3 110.5t2 70q-4 25 -6 37t-2 22q0 25 10.5 57.5t33 62.5t57 49.5t84.5 19.5 q16 0 43.5 -3.5t68.5 -23.5q18 -27 30.5 -82t12.5 -133q4 -16 5 -88t1 -162v-116.5v-116t1 -93t3 -45.5q25 4 60 6.5t63 -1.5v92v127.5t1 141.5t2 131t2 95t3 37q-4 102 -31.5 171t-72.5 114q-16 23 -55 42t-80 19q-33 -4 -60 -10q-25 -6 -48 -14t-40 -25q-14 -4 -25 -16.5 t-22.5 -27.5t-25 -30.5t-27.5 -27.5q-2 -6 -10 -8q-6 -4 -12 8q-29 74 -77 108.5t-108 34.5q-94 0 -156.5 -40t-72.5 -103h-20.5t-14.5 -4q0 6 -2 21t-5 35.5t-5 41t-2 35.5q-20 4 -52.5 3t-55.5 -5z" />
<glyph unicode="n" horiz-adv-x="880" d="M84 907q8 20 7 47t-5 45q10 6 29 -6q16 -2 38.5 -1t46 3t42 4t28.5 5q-2 -10 -1 -19.5t2 -21t3 -25.5t2 -35q39 53 96.5 83t129.5 34q45 -6 95 -16.5t91 -51.5q18 -23 35.5 -62.5t32 -85.5t22.5 -89t8 -68l-6 -667q-10 4 -35.5 7t-48.5 3t-45 -1t-45 -7q-16 0 -31 20 q0 2 1.5 50t2.5 117t2 148.5t2 148.5t3 113t2 42q-4 78 -18.5 125t-49.5 63q-6 29 -22.5 39t-40.5 10q-47 0 -77 -20.5t-46.5 -47t-22.5 -52t-6 -33.5q-2 -4 -3 -17.5t-1 -28v-26.5t-2 -19q-2 2 -3 -36.5t-2 -99t-2 -135.5t-2 -146.5t-2 -131t-1 -90.5q-12 2 -38 3.5 t-55.5 3.5t-56 3t-41.5 5v297v150.5t1 139t2 102.5t3 40q0 16 2 30.5t2 28.5q0 47 -9 78t-13 51zM135 264q0 -80 1 -145.5t1 -98.5q31 -4 60.5 0.5t62.5 -0.5q-4 14 -5 87t-1 161q0 53 1 107.5t2 101.5t2 81t1 48v8q6 39 9 56.5t3 48.5q14 72 68.5 115t122.5 47 q23 -4 48.5 -10.5t31.5 -34.5q35 -27 56.5 -71t21.5 -118l-1 -41q-2 -41 -3 -103.5t-2 -137t-1 -144v-125v-76.5q23 -4 63 -2t64 7q2 29 4.5 93t3.5 140t1 153.5v135.5v96q-10 109 -31 169t-60 101q-37 35 -74.5 53.5t-72.5 18.5q-76 0 -143.5 -32.5t-92.5 -106.5 q-12 -2 -30 6q-2 4 -3 18.5t-1 32v35.5v33q-4 0 -17.5 1t-30 1h-33h-26.5q0 -90 1 -146.5t5 -103.5q-2 4 -3 -38t-2 -108.5t-1 -149.5v-163z" />
<glyph unicode="o" horiz-adv-x="841" d="M59 543q0 117 29 205t78 148t115.5 90t142.5 30q61 0 116.5 -20.5t108.5 -55.5q66 -76 102.5 -183.5t36.5 -262.5q0 -135 -38.5 -245t-100.5 -183q-57 -47 -117.5 -67t-111.5 -24q-55 8 -115.5 26.5t-114.5 53.5q-82 82 -106.5 202t-24.5 286zM90 422q0 -113 35 -199 t78 -139q76 -76 209 -82q11 -1 21 -1q60 0 113 30q62 35 109 101.5t75 161.5t28 212q-8 63 -18.5 123.5t-26 114t-37 96.5t-53.5 71q-18 18 -45 34t-56.5 25t-58.5 14t-51 5q-109 0 -172.5 -58.5t-97 -144.5t-43 -185t-9.5 -179zM209 539q0 43 7 103t28.5 117.5t60.5 100.5 t101 47q70 0 112.5 -52t65 -122.5t31 -144.5t8.5 -117q0 -31 -3.5 -75t-12.5 -90t-27.5 -88t-51.5 -66q-25 -29 -56.5 -39t-47.5 -2q-16 -2 -30 -2q-60 -1 -96 33q-44 42 -63.5 108.5t-22.5 144.5t-3 144zM244 539q0 -57 5 -114.5t16 -106t27.5 -85t41.5 -51.5 q14 -20 30.5 -35.5t47.5 -5.5h5q43 0 73 29q32 31 52.5 78t30 105.5t9.5 113.5v90q0 29 -4.5 63.5t-14.5 71.5t-28.5 71t-47.5 58q-10 25 -27.5 36t-43.5 20q-25 -10 -42.5 -23.5t-51.5 -26.5q-20 -29 -36 -66.5t-25 -77.5t-13 -78t-4 -66z" />
<glyph unicode="p" horiz-adv-x="874" d="M88 954q0 6 6 18.5t10 22.5q6 -2 31 -2t53.5 1t53 2t30.5 5q-2 -2 -3 -16t-1 -32.5v-38v-31.5q33 51 63.5 78.5t60.5 40t62.5 14.5t71.5 2q41 0 83 -20.5t65 -55.5q66 -66 100.5 -165t34.5 -218q0 -135 -13.5 -226t-33 -147.5t-38.5 -85t-32 -41.5q-45 -31 -76.5 -47 t-57.5 -24t-52.5 -9.5t-61.5 -1.5q-37 0 -74.5 18.5t-72.5 49.5q-2 -84 -3 -161t-1 -137v-98t2 -44q-12 -2 -42 -3t-62.5 -2t-60.5 -1h-36q0 8 2 45t3 94t2 130t1 155l-4 657q0 96 -3 156.5t-7 117.5zM125 965q-2 -2 1 -40t7 -87.5t7 -95.5t3 -62q-4 0 -6 -66.5t-4 -170 t-3 -228.5t-2 -241.5t-1 -210t2 -132.5q16 0 56 -3t71 -3q4 25 4 83.5v125.5q0 51 -1 99.5t-2 88t-2 67.5t-1 34q6 6 22 4q29 -53 85.5 -87t115.5 -44q57 2 110.5 30.5t96.5 88t72.5 155t36.5 234.5q-8 133 -37 241.5t-90 174.5q-41 37 -74 52t-80 15q-25 0 -52.5 -4 t-57 -17.5t-63.5 -41t-71 -76.5q-16 -12 -22 4q-2 4 -3 18.5t-2 33t-2 35.5t-1 30q-23 -6 -58 -7t-55 3zM260 608l14 86q12 86 63.5 135.5t111.5 53.5q41 0 67.5 -13.5t54.5 -40.5q35 -35 59.5 -123t35.5 -219q0 -119 -19.5 -191.5t-51.5 -113.5t-76 -55t-93 -14 q-16 0 -37.5 6t-41 25.5t-37 57.5t-27.5 99q-14 10 -15 37q0 6 2 12t4 10q-2 8 -5 41t-5 73t-3 78t-1 56zM288 498q1 -52 5 -100.5t8 -73.5q10 -53 27.5 -89t37 -58.5t38 -32t32.5 -9.5q61 0 98 31t58.5 80t29 109.5t7.5 117.5q0 10 -4 55t-14.5 100.5t-30 110t-50.5 80.5 q-6 10 -27.5 23.5t-43.5 17.5q-55 -12 -88 -47t-50.5 -73t-21.5 -67.5t-4 -31.5q-6 -10 -7 -51v-43.5v-48.5z" />
<glyph unicode="q" horiz-adv-x="872" d="M59 496q0 135 29 234t76 165t107.5 97.5t125.5 31.5q2 0 24.5 -3t54.5 -15.5t64.5 -37t55.5 -67.5q12 70 22 94q12 4 35 6.5t46.5 4.5t42 3t24.5 1q4 -23 5 -71q1 -24 1 -49t-1 -52q-1 -52 -3 -97t-2 -61q4 -16 6 -99t2 -200v-249t-1 -247.5t-2 -196.5t-1 -96 q-35 2 -66.5 2h-44.5h-36.5t-49.5 -2q2 33 4.5 98.5t3.5 138.5t2 140.5t3 106.5q-27 -41 -73 -75t-112 -34q-61 0 -114.5 15.5t-87.5 52.5q-53 63 -81 124.5t-41.5 120t-15.5 112.5t-2 104zM100 522q0 -74 4.5 -163t29 -165.5t76.5 -129t150 -52.5l50 -4q33 0 65.5 13.5 t59 34t40 41t7.5 36.5l26 -8q4 -6 6 -68.5t3 -142.5t1 -159v-122q35 0 64.5 -1t56.5 -3q0 29 1 115v92.5v105.5q-1 113 -2 239t-3 234.5t-4 185.5t-6 93q12 65 12 126v18v18q0 58 11 105q-16 4 -51 4h-62v-95q-2 -10 -4 -15t-13 -7q-10 -2 -12 3l-6 15q-35 63 -81 90t-87 27 t-67.5 -1t-50 -7t-45 -20.5t-52.5 -39.5q-51 -76 -84 -170t-33 -223zM213 473q0 61 9 133t33 133.5t65.5 102.5t107.5 41q68 0 119 -51.5t61 -137.5q4 -31 5 -44t5 -27q-4 -23 -7 -55.5t-3 -80.5q0 -45 3 -83.5t7 -43.5q4 -16 1 -40.5t-7 -24.5q-14 -57 -36.5 -93t-50 -56.5 t-57.5 -27.5t-58 -7q-23 0 -50.5 9t-48.5 23q-37 47 -67.5 134.5t-30.5 195.5zM258 410q0 -78 18.5 -132.5t44 -87t53 -47t46.5 -14.5q18 0 41.5 8t45 27.5t37 50.5t19.5 76l4 80q0 14 1 57t2 92t2 91t1 57q-14 82 -46.5 133t-84.5 55q-37 -10 -58.5 -21.5t-49.5 -31.5 q-25 -20 -39 -54t-21.5 -74t-9.5 -85t-2 -90q-4 -23 -4 -44.5v-45.5z" />
<glyph unicode="r" horiz-adv-x="534" d="M96 872v27t1 39t2 37.5t3 25.5q0 4 24 3.5t50 -0.5h54.5t33.5 -5q-1 -18 -1 -35q0 -16 1 -34q2 -34 2 -70q38 68 94 113q42 34 92 34q15 0 31 -3q29 14 45 10q2 -2 5.5 -26.5t4.5 -57.5t3 -66t4 -51q-20 0 -58 10q-33 0 -63.5 -16t-56 -42t-45 -59.5t-27.5 -66.5l2 -39 q-2 -18 -6 -34.5t-6 -35.5q4 -37 6 -90t4 -111.5t2 -117.5v-107.5t-1 -81t-3 -36.5h-174q-8 43 -14.5 133t-6.5 219v222t4 142q-2 51 -4 92.5t-2 77.5zM127 956q4 -31 7 -73.5t3 -71.5q0 -25 1 -45.5t-7 -36.5v-58.5v-132v-167.5t2 -169t4 -132.5t6 -59.5q25 0 62 5t65 5 q-4 35 -5 92.5t-1 123v131v116.5v55.5t-2 36.5q0 33 14 46q4 47 19.5 88t39 71.5t53.5 48t65 17.5h23.5t21.5 4q2 8 2 28.5v42t-1 40t-1 24.5q-90 0 -142.5 -47t-66.5 -119q-2 -6 -7.5 -14t-9.5 -8q-10 0 -14 14q-2 2 -4 19.5t-5 41t-5 49t-4 42.5q-20 0 -55 -1t-58 -6z" />
<glyph unicode="s" horiz-adv-x="628" d="M31 33q4 12 11 35.5t16.5 48t19.5 46t16 30.5q29 -16 70 -38t78 -22q86 0 121.5 33t35.5 92t-23.5 96t-88.5 88q-117 59 -176.5 132t-59.5 145q8 129 91 213t216 88h31q51 0 97 -19.5t75 -44.5q-14 -29 -31.5 -70.5t-23.5 -72.5q-23 18 -48.5 31.5t-54.5 13.5h-75 q-10 0 -24.5 -7t-29 -21.5t-23.5 -35t-9 -44.5q0 -29 8 -47.5t23.5 -33t39 -28.5t54.5 -35q33 -23 70.5 -53.5t71.5 -70.5q33 -40 55 -90q20 -46 20 -101v-10q1 -17 1 -33q1 -54 -15 -96q-20 -54 -62 -101q-66 -51 -129.5 -61t-114.5 -10q-14 0 -25.5 -2.5t-23.5 -2.5 q-51 0 -103.5 21.5t-80.5 36.5zM70 66q35 -29 88 -48.5t110 -19.5q51 0 103.5 18.5t93.5 55.5t66.5 90t25.5 123q0 162 -203 270q-68 51 -103.5 89t-35.5 91q0 20 3 48t18.5 52.5t50.5 41t98 16.5q29 0 55.5 -12.5t57.5 -18.5q4 20 13 49t24 39q-41 10 -81 24.5t-104 14.5 q-23 0 -49.5 -7t-53 -18.5t-50 -26.5t-37.5 -30q-41 -37 -51.5 -76.5t-20.5 -99.5q0 -86 50 -148.5t161 -117.5q61 -47 96 -88t35 -92q0 -41 -5 -80t-40 -60q-16 -20 -34.5 -32.5t-41.5 -12.5h-20t-25 4q-33 0 -53.5 1t-36.5 4.5t-32.5 10.5t-39.5 21q-8 -14 -16 -36.5 t-16 -38.5z" />
<glyph unicode="t" horiz-adv-x="548" d="M10 840q2 6 2 29.5v53v55.5t4 36q14 -4 55.5 -6t61.5 -4v94t2 65q4 4 27.5 12.5t51.5 19.5t51.5 22.5t29.5 21.5q16 -8 22 -14q0 -6 1 -35t3.5 -64.5t4.5 -70.5t6 -56q12 2 39.5 2h57.5h56.5t34.5 3q6 -6 9 -27t4.5 -43.5t2 -41t0.5 -20.5q-4 -10 -11 -16t-13 -10 q0 4 -15.5 4h-25.5q-18 0 -43 -1t-47.5 -3t-39.5 -3t-24 -1q4 -23 7.5 -69t4.5 -104.5t2 -121t1 -115.5q0 -61 -2 -103t-2 -46q0 -37 5 -71t25 -54q18 -6 51 -12.5t50 -6.5q16 0 29.5 1t23.5 -1q-2 -6 0 -27.5t4 -44t3 -42t-3 -21.5q-10 -6 -35.5 -10t-53.5 -8t-51.5 -6.5 t-25.5 -2.5q-51 0 -86 18.5t-65 39.5q-25 47 -43.5 109.5t-18.5 164.5q-4 16 -4 86v168v165t4 118q-12 2 -29.5 2t-36 -1t-36 -3t-25.5 -4zM39 973q4 -14 7 -40t7 -46q14 0 36 -1t41.5 -3t33.5 -3t14 -3q-2 2 -4 -39t-4 -103.5t-3 -135.5t-3 -138.5t-4 -111.5t-4 -52 q4 -92 23.5 -141.5t47.5 -79.5q16 -31 44 -49.5t65 -18.5q10 0 20.5 2t24.5 6q10 -4 19.5 -6t17.5 -2q16 0 29.5 5t19.5 10q0 23 -2 50t2 44h-37q-27 -2 -46 5t-38 25q-23 9 -34 51q-8 30 -8 72q0 15 1 31q-4 10 -7 51t-6 99.5t-4 126t-1 129.5q0 68 3 123t3 59l25 1 q26 1 62 0t69.5 -3t48.5 -4q-4 14 -6.5 38.5t2.5 47.5q-27 0 -60 -1t-63.5 -1t-54 2t-31.5 8q2 8 4 44t2 77v96q-27 -14 -61.5 -28.5t-55.5 -22.5q0 -12 -2 -42t-2 -61q0 -16 1 -39.5t5 -37.5q-4 2 -23.5 3t-42 2t-44 2t-27.5 3z" />
<glyph unicode="u" horiz-adv-x="866" d="M90 999q6 4 14.5 6.5t18.5 6.5q16 0 38.5 -3t45.5 -8q23 -4 44 -5t38 -1q2 -4 -1 -34.5t-3 -75.5q0 -61 1 -144.5t4 -157t6 -124.5t7 -51q-4 -16 -4 -31v-29q0 -74 16.5 -117t32.5 -71q6 0 23.5 -5t52.5 -14q66 8 98.5 40t32.5 73q12 31 15 50.5t3 29.5t-2 36.5t-2 49.5 q2 12 2 61v108.5t-1 116t-1 80.5q0 86 3 145.5t10 84.5q20 -4 46.5 -11.5t61.5 -7.5q29 0 43.5 2t26.5 2q4 -27 6 -80t3 -121.5t1 -145v-149.5t1 -135.5t1 -101.5q-4 -20 -5 -37.5t-1 -33.5q0 -41 5 -74.5t5 -56.5q0 -16 -2 -39t-8 -43q-6 4 -23.5 4h-33.5h-45t-41 -2 t-16.5 6t-4.5 16v21.5t-2 36.5q-37 -37 -93 -67t-124 -38q-96 0 -153.5 42t-87.5 103q-30 62 -38 134q-6 49 -5 91q0 20 1 40q-4 72 -5 173t-1 197.5t-1 170t-3 87.5zM123 963q0 -51 1 -122t2 -153t2 -169v-57q0 -57 -1 -112q4 -104 24.5 -178t79.5 -111q12 -16 49 -33.5 t68 -17.5q53 0 93 13.5t69 32t48.5 41t33.5 40.5q16 -6 35 0q-2 -8 -3 -23.5t-1 -33t1 -34.5t3 -30q14 4 48 4h60q-4 14 -6 51.5t-3 78t-1 75.5t2 47q2 4 3 52.5t2 119t2 155.5t2 162t1 135t2 79h-125q-2 -29 -2 -81t-1 -113.5t-1 -128v-126t-2 -104.5t-4 -66q-2 -23 1 -38 t3 -31q0 -23 -13 -52.5t-38 -56t-57.5 -45t-71.5 -18.5l-35 -4q-39 0 -63 45q-34 20 -52 84q-13 48 -14 118q0 24 2 50q-2 63 -4 146t-3 164t-2 149.5t-3 103.5q-35 0 -77 -2t-54 -6z" />
<glyph unicode="v" horiz-adv-x="757" d="M12 993q10 10 42 12.5t59 2.5t51 -1t47 1q0 -16 11 -64.5t26.5 -112t33 -132t32 -126t22.5 -95.5t6 -38q12 -25 23.5 -52.5t19.5 -61.5h2q4 31 14.5 61.5t20.5 71.5q12 45 32.5 121.5t40 156.5t34 150.5t18.5 103.5q4 8 16 13.5t26.5 7.5t29 3t20.5 1t22.5 -1t35 -2 t33.5 -4t22 -8q-2 -4 -21.5 -76.5t-50.5 -180t-66.5 -233.5t-67.5 -235.5t-55.5 -187.5t-29.5 -90q-12 -4 -30.5 -9t-47.5 -5q-70 0 -94 10q-6 18 -31 99t-56.5 192.5t-66.5 235.5t-63 229q-28 106 -46 174q-15 56 -15 67q0 2 1 2zM63 971q8 -37 28 -111t46.5 -168 t55 -197.5t55 -196.5t47 -167t29.5 -106q20 4 56 2t56 2q6 23 25.5 91t45 160.5t55.5 197t58.5 199.5t51 172t35.5 114h-62t-59 4q-14 -41 -37 -128t-45.5 -176.5t-38.5 -155t-19 -63.5q-10 -66 -19 -130t-13 -109q-2 -4 -3 -9.5t-5 -13.5q-10 4 -20.5 2t-25.5 -2 q-10 68 -18 133.5t-31 122.5q-4 25 -14 72t-21.5 103.5t-25.5 115.5t-25.5 110.5t-21.5 88.5t-15 47q-18 -4 -58 -8q-13 -1 -25 -1q-24 0 -42 5z" />
<glyph unicode="w" horiz-adv-x="1216" d="M14 997q16 10 27 13q16 0 43 -2t54.5 -3t50 -2.5t28.5 -1.5v-6q-1 -19 9 -71q12 -60 29 -135.5t36.5 -151.5t34.5 -123q4 -57 14 -118.5t20 -110.5h2q16 55 30 114.5t24 118.5q0 6 8 40t20.5 84t27.5 106.5t27.5 107.5t20.5 88t8 47q29 10 71 14.5t73 8.5 q14 -37 33.5 -95.5t38 -127t34 -142.5t25.5 -143q6 -43 22.5 -102.5t28.5 -112.5h4q4 53 16.5 108.5t26.5 114.5q6 25 21.5 93.5t32 147.5t29.5 149.5t17 96.5q6 4 14.5 7.5t12.5 5.5q16 0 41 -3t49.5 -4t47 -2t34.5 1q0 -6 -18.5 -81t-46 -185.5t-60.5 -238.5t-62.5 -241 t-51 -191.5t-27.5 -88.5l-150 -5q0 8 -14 64.5t-34.5 132.5t-42 157t-36.5 138q-16 55 -30.5 103t-20.5 100l-4 2q-10 -53 -19.5 -104.5t-19.5 -100.5q-10 -31 -23.5 -77t-28.5 -98t-30.5 -105.5t-28 -95.5t-19.5 -70.5t-9 -30.5q-14 2 -36.5 3t-44 1t-41 -1t-28.5 -1 q-4 23 -24.5 104.5t-49 190t-60 230.5t-59.5 225.5t-46.5 175t-20.5 79.5zM55 973q6 -18 23.5 -87t41 -163t51.5 -203.5t52.5 -210t43 -178.5t26.5 -111q8 2 23.5 3.5t33 2.5t32.5 2t24 3q10 31 30.5 99.5t41 142t35.5 132t15 66.5v4q6 63 22.5 143t45.5 162q4 12 8 19 q4 4 10.5 4t16.5 -10q4 -51 9 -92.5t11 -77t15.5 -67.5t19.5 -67q2 -2 10.5 -31.5t20.5 -74.5t25.5 -99.5t26.5 -105.5t23.5 -93t14.5 -60q23 -4 54.5 -6.5t43.5 -2.5q6 23 26.5 93.5t46.5 166t55.5 204t56 207.5t48 178t29.5 114q-20 -4 -59 -6t-61 -4q-8 -14 -18.5 -52 t-22 -89.5t-22.5 -106.5l-20.5 -102.5t-14.5 -79t-3 -33.5q-20 -80 -36.5 -164t-20.5 -160q-18 -8 -29.5 -9t-19.5 -3q-8 98 -31 185t-29 159q0 2 -7 30.5t-18.5 71.5t-25.5 95.5t-27.5 102.5t-24.5 92t-20 67q-15 2 -34 2q-15 0 -31 -1q-38 -3 -41 -13q-8 -29 -18.5 -75 t-22.5 -98.5t-24.5 -105.5t-22.5 -96t-18.5 -70t-12.5 -27q-12 -78 -22.5 -156.5t-26.5 -135.5l-8 -31q-4 -2 -6 -4t-7 2q-4 -4 -6 2t-8 12q-25 78 -35 150.5t-24 146.5l-4 25q2 2 -3.5 33.5t-14.5 77.5t-20 102.5t-21.5 108.5t-19.5 95.5t-11 61.5q-10 -2 -29 -3t-39.5 -2 t-39.5 -1h-32z" />
<glyph unicode="x" horiz-adv-x="737" d="M3 -2q1 6 3 16q8 12 27.5 47t44 83.5t52.5 103.5t52.5 105t44 91t27.5 62q-8 16 -27.5 57t-46 93.5t-56.5 109.5t-54.5 107.5t-42 87t-19.5 49.5q10 -2 39 -5.5t53 -3.5q37 0 73 3.5t52 11.5q4 -29 17.5 -66t29 -71.5t29.5 -62.5t25 -40l57 -121q8 27 21.5 57.5 t33.5 59.5q0 2 14.5 37t32 75t32.5 74.5t20 38.5q4 -2 29.5 -2t57 1t60.5 5.5t37 10.5q18 -6 22 -15q-2 -4 -20 -37.5t-45 -85t-58.5 -109.5t-60.5 -111.5t-50.5 -93.5t-27.5 -50q4 -8 25.5 -47t49.5 -94.5t59.5 -118t57 -116.5t41 -90t13.5 -38q0 -16 -33 -16q-8 0 -27.5 1 t-42 1t-45 -1t-38.5 -3q-6 4 -11.5 9t-11.5 9q-6 20 -18.5 52t-26.5 63t-28.5 56.5t-24.5 31.5q-10 35 -21.5 76t-27.5 82q0 -2 -10.5 -23.5t-22.5 -47.5t-24.5 -47.5t-14.5 -21.5q2 -6 -12.5 -44t-35 -82t-38.5 -79.5t-25 -39.5q-14 2 -36.5 4t-45 3t-42 0t-27.5 -1 q-20 -4 -31 -4q-4 8 -3 14zM45 20q14 2 33.5 2.5t39 0.5t37 1t25.5 5q10 23 25.5 57.5t30 68t25.5 61.5t15 34q20 37 36 76t32 77q2 8 3 11.5t1 7.5q14 0 21 2q4 -16 29.5 -72.5t55 -122t56.5 -125t37 -84.5q12 0 32.5 1.5t42 1.5h40t24.5 -3q-14 29 -36.5 76t-49.5 101.5 t-53.5 111t-50 102.5t-39 75.5t-19.5 29.5q18 31 56 96.5t78 136t75 133t47 89.5q-16 -4 -36.5 -5t-42 0t-39 2t-25.5 3q-10 -20 -24.5 -53t-28 -66t-21.5 -57.5t-4 -26.5q-8 -27 -20.5 -47.5t-24.5 -39.5t-22.5 -41t-16.5 -48l-5 -5t-11 -1t-9.5 6t-5.5 14q-14 35 -32.5 79 t-44.5 73q-4 12 -16.5 41.5t-26 61.5t-25.5 59.5t-18 40.5q-23 0 -62 1t-70 5q14 -37 46 -106.5t69 -142.5t72 -135.5t51 -82.5q-6 -4 -23.5 -36t-42 -80t-52 -103.5t-54.5 -107.5t-49.5 -93t-34.5 -60z" />
<glyph unicode="y" horiz-adv-x="751" d="M8 1004q16 4 45 -1.5t66 -5.5h84q2 -12 14 -59t29.5 -111.5t36 -135t34 -131t24.5 -99.5t5 -39q12 -47 24.5 -93t16.5 -69q6 18 11 41t8.5 47.5t4.5 46t-5 35.5q4 0 15 41t27.5 103.5t34 135t31.5 137t23.5 108.5t9.5 49l190 -15q0 -10 -13 -62.5t-32.5 -125t-43 -154.5 t-42 -150.5t-31 -111.5t-8.5 -41q-29 -98 -56.5 -190.5t-59 -175t-71.5 -152.5t-91 -121q-25 -43 -54.5 -71.5t-57 -47t-51.5 -28t-36 -11.5q-12 35 -29.5 83t-33.5 89q37 20 78.5 54t70.5 71q37 20 58.5 65.5t31.5 92.5q4 29 8.5 45t10.5 37q-31 86 -66 199.5t-71.5 237.5 t-72.5 249t-67 234zM41 971q8 -27 31.5 -101.5t54.5 -173t62.5 -206t58 -196.5t42 -147.5t11.5 -58.5q6 -23 6 -48.5t-6 -41.5q-23 -57 -40 -96t-40.5 -70t-58.5 -59.5t-94 -67.5q0 -8 5 -25.5t12 -36t14 -35t14 -24.5q14 10 59 42t113 98q39 53 73.5 123.5t65.5 151.5 t55.5 168t46.5 173l78 272q14 53 29.5 107.5t30 102.5t25.5 87t18 62q-23 4 -62 4t-59 -4q-6 -25 -19.5 -74t-30 -110.5t-34 -126t-30.5 -119t-22.5 -89t-7.5 -34.5q2 -27 -1 -58.5t-9 -60.5t-12 -50.5t-8 -25.5q-6 -10 -12.5 -21.5t-16.5 -11.5t-14 10.5t-7 26.5q0 8 -6 31 t-12 50.5l-12 55t-8 44.5q0 4 -8.5 42.5t-21.5 95t-30.5 122t-34 127t-31 109.5t-22.5 67q-10 0 -28.5 1t-38 1h-38t-30.5 -2z" />
<glyph unicode="z" horiz-adv-x="679" d="M8 117q6 8 34 55t64.5 112.5t78.5 140.5t78 136.5t60.5 101t26.5 35.5q6 8 17.5 29t25 43.5t25.5 43t18 28.5q-154 0 -244 -2t-131 -6q-6 18 -6 38.5t2 38.5t2 44t-6 40l572 19q10 -8 18 -13.5t19 -13.5q-2 -4 -2.5 -19.5t-1.5 -34t-3 -36t-4 -23.5t-27.5 -53 t-63.5 -113.5t-81 -141t-80 -139.5t-62.5 -106.5t-27.5 -41.5q0 -4 -5 -14.5t-10 -23t-10 -22.5t-5 -12q-6 -10 -11 -19q-4 -8 -7 -17t-5 -13q39 -4 95.5 -6t114.5 -3.5t110.5 -3.5t80.5 -2q-8 -33 -11 -71.5t-3 -83.5q-19 -2 -71 -3q-26 0 -56 -0.5t-64 0.5q-68 1 -143.5 2 t-139 2t-105 2t-46.5 1q6 29 4 62.5t-14 62.5zM51 104l2 -81q23 -2 70 -4.5t103.5 -3.5t119 -2t117.5 -1h97t61 2l-9 99q-25 0 -90 2t-135 5t-126 5t-62 2q2 8 10 22.5t18.5 29t18.5 26.5t10 16q0 -4 6 7.5t13.5 26.5t14.5 30.5t11 21.5q10 20 37 71.5t61.5 115t72.5 131 t68.5 124t51 94.5t22.5 40q2 16 2 44.5v45.5q-29 -4 -98 -6t-150 -4t-157 -4.5t-117 -4.5v-84h97.5t124 -1t108.5 -4t53 -9q-4 -18 -21.5 -46l-27.5 -44q-4 -23 -21.5 -43.5t-46.5 -54.5q-14 -25 -40.5 -75t-60.5 -110.5t-68.5 -126t-65.5 -120t-51.5 -91t-22.5 -41.5z" />
<glyph unicode="{" horiz-adv-x="528" d="M33 627.5q0 17.5 4 21.5q53 -2 97 22.5t44 67.5q0 8 -1 15.5t-5 17.5q0 23 3 49.5t3 52.5q0 43 -14 82q-2 4 -3 18.5t-1 31v32v21.5l-4 86q0 123 71.5 195.5t198.5 78.5q39 -4 61 -24q-4 -6 -5 -18.5t-1 -27t1 -27.5t3 -19v-20.5t-2 -16.5q-6 2 -22.5 4t-30.5 2 q-47 4 -75.5 -21.5t-28.5 -72.5v-17.5t4 -19.5l10 -180q4 -16 6 -34t2 -38q0 -31 -12 -64q4 -14 4 -24v-25q0 -76 -30.5 -123t-78.5 -71q61 -27 94 -84.5t33 -159.5l-18 -152q-4 -14 -11 -45.5t-7 -103.5q0 -78 29.5 -103.5t82.5 -27.5q12 -4 25.5 -9.5t19.5 -9.5 q-2 -8 -2 -26.5v-37t1 -34.5t5 -22q-6 -4 -18 -9.5t-27 -9.5q-61 10 -111.5 27.5t-86 48.5t-54 81t-18.5 124q-6 27 -7 53.5t-1 48.5q0 10 4 39t9 62.5t9 63.5t4 42l-4 68q0 16 -8 37.5t-25.5 39t-44 27.5t-63.5 4q0 12 -2 32.5t-4 42t-2 39zM74 551q66 -4 100.5 -50 t34.5 -118q0 -20 -3 -71.5t-8 -108t-8.5 -106.5t-3.5 -68q0 -55 20.5 -96.5t61.5 -75.5q23 -37 66 -49.5t100 -18.5q4 6 6 31.5t-2 40.5q-68 4 -110.5 52t-42.5 116q4 51 10 100t12 80v80q0 16 -1 32.5t-7 30.5q0 41 -2 76t-12.5 62.5t-32 49t-62.5 38.5q-10 0 -18 3t-14 5 l6 6t8 4q27 12 52.5 25.5t46 36t31.5 56.5t11 85l-6 166q-16 43 -17 82.5t-9 85.5q2 70 35.5 120t117.5 50v4q4 10 5 27.5t10 31.5q-49 8 -94.5 -1t-79 -34.5t-54 -67.5t-20.5 -100q0 -74 1 -122t11 -72q8 -57 7 -99.5t7 -89.5q-8 -72 -48 -113.5t-105 -58.5v-57z" />
<glyph unicode="|" horiz-adv-x="423" d="M125 1530q4 6 14.5 6h16.5l82 4q16 0 32.5 -2t24.5 -12q2 0 4 -85t2 -225.5v-320.5t-1 -367.5t-2 -370t-1 -326.5t-1 -237.5t-1 -101.5q-10 -8 -28.5 -11t-41.5 -3t-47 1t-45 5q0 2 -1 91t-1 232.5v325.5v372.5t-1 373t-1 326t-1 232.5t-3 93zM166 1511q0 -16 1 -101 t2 -215t1 -293t1 -335t1 -341v-312t-1 -248.5t-1 -148.5h49t49 4q0 47 -1 152.5t-1 244.5v303v331v325.5t1 288.5t2 219t3 118q-6 0 -21 1t-31.5 2t-32 2t-21.5 3z" />
<glyph unicode="}" horiz-adv-x="528" d="M34 -159.5q-1 24.5 3 46.5q10 10 19.5 15.5t25.5 7.5q12 2 32.5 6t41 17.5t35 41t14.5 74.5q0 10 -3 35t-6 53.5t-6.5 53t-3.5 34.5q0 20 -2 43t-2 51l4 54q0 92 25 140t80 77q-61 35 -90 105.5t-29 168.5q0 29 3 59.5t13 59.5q8 20 9.5 39.5t1.5 40t2 43t8 47.5 q-4 57 -26.5 89t-82.5 32h-9t-9 -4q-6 6 -13.5 12t-21.5 8q-2 29 -1 70t-9 63q37 4 78 -6q47 4 94 -11t80 -60q53 -43 61 -124t8 -204v-29.5t4 -30.5q-16 -27 -15 -72.5t-11 -84.5q0 -20 4 -44t18.5 -44.5t41 -31.5t71.5 -5q12 -16 23 -37q0 -6 -1 -22.5t-3.5 -35t-6.5 -35 t-10 -24.5q-70 10 -99.5 -24.5t-29.5 -91.5q4 -53 9 -93.5t9 -91.5q0 -16 2.5 -36.5t2.5 -41.5q0 -4 -1 -19t-3.5 -32.5t-3.5 -34t-1 -22.5q0 -63 -14 -113.5t-45 -71.5q-41 -41 -88 -58t-115 -28q-20 0 -32.5 5.5t-28.5 17.5q0 29 -1 53.5zM70 1315q10 6 15 7l15 3 q78 -31 109 -79t31 -120q0 -37 -5.5 -81t-15.5 -66v-29.5t-1 -44t-1 -41v-22.5q0 -43 4 -77t17.5 -63.5t42 -54t77.5 -49.5l-14 -16q-53 -8 -92 -57.5t-51 -168.5q10 -45 10 -84t4 -73q10 -45 15.5 -92.5t5.5 -94.5q0 -63 -39 -100t-125 -29q-4 -12 1 -42.5t9 -37.5 q45 -2 91 8.5t83 38t60.5 76.5t23.5 127q-8 37 -8 79t-15 93l-4 211q0 61 37 94t103 33q-4 16 -7.5 32.5t-3.5 31.5q-59 6 -94 52t-31 105q-4 23 -4 43.5v40.5q0 55 17 86q-2 27 -3 46.5t-1 39.5q0 111 -4.5 172.5t-26 94t-68.5 49t-131 37.5q-14 2 -26 0v-78z" />
<glyph unicode="~" horiz-adv-x="1220" d="M127 444q8 78 22.5 133.5t59.5 106.5q23 23 73 42t103 30q43 -4 113.5 -34t156.5 -71q66 -27 112 -49t91 -14q12 2 26.5 2t24.5 6q6 2 13.5 22.5t14.5 44t12 46t3 30.5q12 0 33 1t41.5 2t39 2.5t28.5 3.5q4 -45 1 -81t-12.5 -67t-22.5 -58.5t-26 -56.5q-35 -35 -95 -45 t-122 -10q-47 0 -100 22.5t-133 63.5q-59 25 -108.5 51.5t-100.5 30.5q-16 2 -25.5 3t-13.5 1q-25 0 -37 -18.5t-17.5 -42t-4 -46t3.5 -28.5q-16 -23 -50 -37q-23 0 -56.5 4t-47.5 10zM168 475l78 -4q6 68 30.5 113t53.5 45q14 0 22 -4q20 6 38 6t44.5 -9.5t66.5 -30 t105 -52.5q78 -37 136.5 -58.5t123.5 -21.5q57 0 91 12t54.5 42t31 77t22.5 117l4 8q-6 -4 -33.5 -4h-52.5q-4 -41 -13 -75t-32 -48q-16 -18 -26.5 -24.5t-30.5 -6.5q-51 -4 -111.5 15.5t-146.5 60.5q-59 39 -121 56.5t-113 17.5h-45q-39 0 -70.5 -20.5t-55 -53.5t-36 -74 t-14.5 -84z" />
<glyph unicode="&#xa1;" horiz-adv-x="425" d="M86 889q4 57 40 100t83 41q51 0 88 -30.5t37 -61.5q0 -8 -2 -17.5t-6 -19.5q0 -57 -21.5 -91t-60.5 -34h-15.5t-15.5 4q-6 -8 -13 -9t-14 -1q-16 0 -30.5 8t-18.5 15q-23 31 -30 56t-21 40zM115 -346q0 45 2 116.5t3 160.5t4 182.5t5 183.5t5 161.5t6 119t5 53.5 q29 -10 72 -14.5t78 -4.5q4 -10 9 -81.5t9 -174t6.5 -223.5t4.5 -228.5t2 -188t-2 -105.5q-8 -2 -37 -5t-63 -5t-64.5 -2t-44.5 4v51zM119 905q14 -37 21 -49t14 -27q4 -2 13 -8t19.5 -12t18.5 -11t12 -5q29 0 50.5 19t21.5 71q8 14 9 24.5t1 16.5q0 16 -9 31.5t-22.5 26.5 t-28 15t-26.5 -2q-23 0 -34 -9t-15 -17q-16 -14 -28.5 -35t-16.5 -29zM141 -356q12 -2 33 -3t42.5 -3.5t39.5 -3.5t29 -3q-2 8 -4 76t-5.5 166t-6.5 213t-5 218.5t-4 180t-2 101.5h-45t-45 4q-4 -37 -7 -112t-6 -171t-5.5 -199.5t-4.5 -197.5t-3 -166t-1 -100z" />
<glyph unicode="&#xa2;" d="M115 633q0 94 18.5 183t55 161t93 120t132.5 64v68q0 41 1 72.5t11 44.5q4 2 24.5 5t45 4t47 0t28.5 -7q0 -10 -2 -32t-3 -48.5t-2 -54t1 -48.5q41 0 83 -13t65 -40q0 -8 -5.5 -25.5t-10.5 -38t-9 -38t0 -25.5q-2 -6 -2 -17.5t-4 -11.5t-10 1t-10 6q-25 20 -47.5 30.5 t-57.5 10.5q-68 0 -106.5 -15.5t-59.5 -25.5q-31 -45 -54.5 -101.5t-23.5 -138.5v-102q0 -82 17.5 -144.5t54.5 -103.5q29 -25 62.5 -31t64.5 -18q47 4 91 17t67 28q12 8 16 0q2 -4 6 -11.5t4 -17.5q0 -4 4.5 -20.5t8.5 -36t7 -38t1 -24.5q-35 -25 -82 -39t-78 -8 q0 -10 2 -36.5t2 -57.5q0 -35 -3 -63.5t-9 -45.5q-4 0 -22.5 1t-40 2t-41 3.5t-25.5 2.5q-4 29 -6 81t-6 117q-72 12 -127.5 58.5t-92 111t-55 139t-18.5 146.5zM137 674q14 -125 35 -216t78 -145q45 -41 82 -69.5t94 -32.5h27q-4 -49 -4 -89t-5 -63l-4 -61q10 4 37 7t49 3 q-4 35 -1 80t5 78v35q43 0 82 12t66 20q-4 20 -6 51t-2 52q-47 -35 -105 -35h-19t-20 4q-59 -4 -95 10.5t-50 34.5q-53 47 -82 134t-39 186q8 70 25.5 135t48.5 118.5t77 88.5t109 41q31 -10 63.5 -19.5t63.5 -25.5q6 16 13.5 40.5t13.5 45.5q-16 14 -56 33.5t-92 17.5 q2 6 4 26.5t2 45v50t-2 42.5q-16 0 -35.5 1t-35.5 9q-2 -12 -4 -41t-4 -59.5t-5.5 -56t-5.5 -32.5q-137 -43 -211.5 -162.5t-91.5 -293.5z" />
<glyph unicode="&#xa3;" d="M59 0v21.5t1 32t1 31.5t-2 21q35 16 70 52.5t63.5 83.5t46 101t17.5 108l-4 157q-6 -2 -23.5 -2h-38t-38 1t-23.5 1q-14 0 -24.5 1t-18.5 -3q-16 8 -18 12q4 10 6 29t2 39t-5 34.5t-10 18.5q8 8 16.5 13.5t20.5 9.5q2 0 16.5 -1t36 -3t44 -3t38.5 -1q-20 53 -25 107 t-5 100q0 74 18.5 144.5t58 123.5t99 86t143.5 33h31q14 4 27.5 4h27.5q47 0 80 -15.5t49 -38.5q0 -6 -5 -25.5t-10 -40t-9 -35.5t-2 -15q-6 -8 -18.5 -19.5t-22.5 -13.5q-4 23 -33 32t-66 9q-35 0 -56 -3t-33.5 -7t-18.5 -9.5t-8 -7.5q-25 -29 -44.5 -70.5t-23.5 -95.5 q6 -90 14.5 -146t8.5 -93q6 2 33.5 2t61.5 -1t66.5 -4t49.5 -5q31 2 26 -23q0 -4 -1 -18.5t-2 -30.5t-2 -33.5t-3 -30.5q-8 -4 -37 -6t-62.5 -3t-63.5 -2t-40 -3q0 -61 -1 -120.5t-11 -115t-33.5 -107.5t-66.5 -99q45 4 117.5 5t144 0t127 -4t65.5 -9q2 -4 2 -19.5v-34 t-1 -36t-1 -23.5v-22.5t-4 -22.5q-4 0 -48 -2t-105 -2q-74 0 -169.5 1t-180.5 3t-145 4t-67 4zM94 104l4 -71q41 -8 124 -9t177 -1q106 0 202.5 3t141.5 7v98q-18 -4 -54 -5t-79 -2t-89 -1h-89h-153q-16 0 -24.5 7t-8.5 15t6 15.5t12 11.5q51 41 80 97.5t51 109.5 q0 45 7.5 115.5t7.5 142.5q8 0 32.5 1t55 2t62.5 2t52 -1v37.5t4 38.5q-14 0 -43.5 -2t-64.5 -2t-68.5 2t-54.5 4q0 31 -5 59.5t-12.5 61t-13.5 69.5t-8 82q2 41 13.5 83t35 76t60.5 55.5t90 21.5q35 0 62.5 -5t58.5 -22q8 16 16 47t16 51q-43 8 -68.5 13.5t-41 8.5t-25.5 4 t-22 1q-88 0 -146.5 -28.5t-92.5 -83t-47 -130t-13 -168.5q0 -41 9 -90t21 -96q-6 -2 -24.5 -3t-43 -3t-50 -3t-41.5 -3q-4 -16 -5.5 -39t-1.5 -37q18 -2 47 -2t57 1t48.5 2t26.5 3q0 -10 2 -33.5t5 -50t6 -50.5t3 -32q0 -92 -24.5 -157.5t-57.5 -110.5t-68.5 -70.5 t-56.5 -36.5z" />
<glyph unicode="&#xa4;" d="M-16 289q6 4 21 18.5t34.5 34.5t40 42t37.5 40q-10 47 -15.5 83t-8.5 66.5t-3 61.5v67q0 47 8 95.5t33 99.5q-6 8 -27.5 30.5t-45 49.5t-42 51.5t-20.5 38.5q14 14 43 42t37 44q4 4 8 9t8 5t8 -7t9 -15q2 -6 14 -23.5t27.5 -38t32 -41t28.5 -32.5q31 43 86 59t113 29 q57 -4 113.5 -25.5t97.5 -44.5q55 59 87.5 100t32.5 46q8 -16 23.5 -36t31 -37.5t28 -32.5t16.5 -21q0 -6 -18.5 -26t-43 -43.5t-50.5 -45t-40 -27.5q12 -27 23.5 -64.5t18.5 -72.5l12.5 -62.5t5.5 -33.5q0 -68 -16.5 -127.5t-37.5 -112.5q6 -4 27.5 -27.5t45.5 -51t43 -51 t21 -28.5q0 -4 -12 -17t-26.5 -27.5t-28.5 -29t-19 -22.5q-6 0 -22 16.5t-37.5 39t-41 48l-32.5 42.5q-45 -37 -97 -58.5t-105 -21.5q-57 10 -113.5 27.5t-85.5 47.5q-6 -6 -21.5 -22t-33 -34.5t-34 -37t-24.5 -26.5q-8 -10 -16 -16.5t-19 -10.5zM31 274q10 -14 25.5 -26 t29.5 -27q12 14 27.5 32.5t33 37t35 36t33.5 29.5q41 -35 93 -53t110 -33q55 10 106 37t86 64q6 -2 21.5 -20.5t36 -43t40 -49.5t31.5 -37q10 14 33 34.5t29 29.5q-47 43 -81 76.5t-69 62.5q23 33 37 92t14 119q0 45 -1 81t-6 66.5t-14 60t-26 64.5q2 10 22.5 33t46.5 46.5 t48.5 43t28.5 25.5q-12 14 -30.5 28.5t-31.5 24.5q-10 -12 -27.5 -34.5t-33.5 -44t-29.5 -39t-15.5 -21.5q-12 -4 -29 4q-45 47 -95 61.5t-91 24.5q-53 -4 -100.5 -23.5t-73.5 -58.5q-12 -4 -23.5 -2t-21.5 12q0 -2 -15.5 15.5t-35 40t-38 45t-24.5 30.5 q-10 -14 -25.5 -31.5t-29.5 -31.5q14 -16 35.5 -38t42 -43.5t36 -38t17.5 -20.5q-20 -47 -32.5 -100t-12.5 -121q0 -72 9 -134t54 -128q-4 0 -24.5 -18.5t-45 -45t-48 -53t-31.5 -41.5zM215 698q0 61 16.5 111.5t44 87.5t65.5 55.5t83 16.5q35 0 57.5 -9.5t48.5 -21.5 q35 -47 57.5 -120t28.5 -161q-6 -86 -25.5 -143t-53.5 -104q-29 -20 -57.5 -29.5t-55.5 -20.5q-70 0 -112 46.5t-63.5 105.5t-27.5 114.5t-6 71.5zM244 653q0 -59 16 -106t41 -79t52.5 -49.5t47.5 -17.5h9.5t13.5 5q29 2 55.5 23.5t48 57t34.5 80.5t13 95q0 4 -3 28.5 t-11 60t-22.5 77.5t-38.5 81q-10 14 -34.5 26.5t-59.5 6.5q-29 2 -58 -15.5t-52.5 -55t-37.5 -93t-14 -125.5z" />
<glyph unicode="&#xa5;" d="M0 1348q14 2 42 -1.5t52 -3.5q37 0 66.5 3.5t56.5 7.5q2 -2 13.5 -34t27.5 -78t34.5 -99t35 -99.5t28 -78t13.5 -31.5q14 -37 28.5 -74t24.5 -74q14 37 29.5 74t25.5 74q12 37 33.5 90t45.5 110.5t46.5 111.5t34.5 93h47q35 4 74 2t67 -6q-33 -70 -71.5 -153.5 t-77.5 -165.5t-73 -155t-58 -120q12 0 41.5 1t63.5 2t63.5 1h42.5q6 -29 6 -63q4 -10 7 -21.5t5 -23.5q-4 -6 -9 -12.5t-9 -10.5q-10 -4 -42 -6t-79 -2q-37 0 -75 2t-60 6v-112q25 -2 66.5 -3t82.5 -1t73 -1t38 -3v-24.5t2 -35t4 -35t6 -24.5q-8 -4 -40 -7t-73 -4.5 t-82.5 -1.5h-68.5q0 -31 -2 -89t-4 -116.5t-3 -104.5t1 -54q-10 -12 -23 -14q-8 2 -28.5 4t-44 4l-47 4t-38.5 2v184v102.5t-4 77.5q-20 2 -58 3.5t-78 3.5t-74.5 3t-49.5 3q-2 10 -3 28.5t-1 38.5q0 41 10 56h168q31 0 55.5 -1t39.5 -10q-4 6 -5.5 22.5t-3.5 37t-3 40 t-3 31.5q-16 0 -54 -1t-78 -2t-69.5 -2t-31.5 -3q-12 6 -19 19q0 2 -2 17.5t-3 32.5t-1 31.5v18.5q4 14 19 16h21.5h48t60 -1t56.5 -3q-12 31 -33.5 83.5t-46 113.5t-52.5 128t-51.5 124t-43 99t-29.5 59zM53 1309q14 -35 40 -91.5t55.5 -122t59.5 -134t53.5 -124t37.5 -92 t14 -38.5q-8 -4 -50 -5.5t-79 -1.5q-31 0 -58.5 2.5t-41.5 6.5q4 -10 5 -31t1 -37q12 2 52 2h83h81h48q0 -6 3 -32.5t3 -49.5q0 -29 -3 -57.5t-11 -44.5q-6 4 -42 7t-80 4t-85 1h-55q4 -10 5 -23.5t1 -39.5q20 -4 61.5 -7.5t81.5 -3.5q45 0 75 1t34 5q4 -14 8 -70.5 t4 -115.5q0 -57 -2 -106.5t-6 -77.5q6 -2 22.5 -3t35 -2t36 -1t27.5 2v82t-2 117.5t-4 110.5t-4 62q18 6 51 7q14 0 47 -1t68.5 -1h66.5t43 2q0 14 -2 26t-2 23q-23 2 -63.5 2h-82.5t-75 -1t-39 -1q4 14 4 29.5v33.5q0 31 2 72t4 59q10 -4 25.5 -5t25.5 -1l199 6q0 6 2 20.5 t6 24.5q-2 0 -38.5 2t-82 4.5t-84 3.5t-40.5 1q2 2 20 39.5t45 96t59.5 128t63.5 136.5t55.5 121t38.5 81q-31 4 -66.5 0t-54.5 -4q-4 -20 -26.5 -81t-49 -124.5t-50 -111.5t-27.5 -44q-25 -66 -33 -119t-23 -106q-4 -14 -18 -14q-6 0 -13 8t-7 18q-23 45 -35.5 90 t-28.5 117q-2 -6 -11 16.5t-24.5 59.5t-34 83t-36 89t-32 76.5t-20.5 46.5h-131z" />
<glyph unicode="&#xa6;" horiz-adv-x="423" d="M129 1382q25 4 47.5 4h50.5q20 0 51 -3t35 -13q0 -14 -2 -72.5t-4 -137.5t-5 -168t-5 -164.5t-5 -128t-3 -56.5q-8 2 -30.5 2h-47.5t-46.5 1t-29.5 7q4 18 5 88t1 172q0 76 -1 156t-2 147.5t-4 113.5t-5 52zM133 356q8 6 34 9.5t53.5 5.5t49 2h25.5q0 -6 1 -45t2 -97.5 t1 -130v-141.5v-194.5t-4 -129.5q-6 -4 -21.5 -5t-33 0t-32.5 3t-22 2q-12 0 -26.5 -4t-26.5 -2q2 2 3 54.5t2 128t2 165t1 166.5q0 92 -2 152.5t-6 60.5zM164 -330q23 2 47.5 3t52.5 -3q4 31 6 111t2 178q0 59 -1 118.5t-2 112t-4 92.5t-5 60h-90zM174 801q0 -43 1 -75 t3 -46q20 4 53 2t45 -2q-2 29 -3 82t-2 118.5t-2 136t-1 136.5v115.5t4 72.5q-6 4 -35.5 5.5t-58.5 1.5q0 -45 -2 -144.5t-2 -208.5v-102v-92z" />
<glyph unicode="&#xa7;" horiz-adv-x="860" d="M68 700q0 2 2 23.5t14 55.5t37.5 78t73.5 91q-23 35 -40.5 71t-23.5 87q4 74 35 129t79 92t109.5 56.5t126.5 25.5q76 -4 133.5 -20.5t104.5 -47.5q2 -4 -3 -23.5t-13.5 -42t-17.5 -42t-17 -23.5q-29 23 -59.5 36.5t-71.5 13.5q-14 0 -31 -1.5t-33 -7.5q-6 4 -15 4h-16 q-45 0 -88 -30.5t-43 -104.5q0 -61 53.5 -99t149.5 -67q57 -25 110.5 -53.5t94.5 -67t66.5 -89t29.5 -119.5q-4 -43 -13 -78t-23.5 -63.5t-36 -55.5t-52.5 -55q23 -20 40.5 -66.5t21.5 -105.5q0 -84 -36 -145.5t-89.5 -101.5t-118 -60.5t-121.5 -20.5q-35 0 -74 7 t-76.5 21.5t-71.5 34t-56 44.5q2 2 11 21t20.5 40.5t19.5 39t12 15.5q16 -12 48 -23.5t67 -19.5t69.5 -13t57.5 -5q16 0 44.5 3t56.5 18.5t47.5 46t19.5 85.5q0 51 -50.5 92.5t-152.5 88.5q-59 29 -115.5 58.5t-99.5 68.5t-69.5 88t-26.5 116zM90 696q14 -104 82 -170.5 t219 -117.5q98 -53 157.5 -99.5t59.5 -111.5q0 -14 -4 -23q4 -14 6 -26.5t2 -18.5q0 -53 -59 -94t-162 -41q-59 0 -115.5 16.5t-91.5 32.5q-6 -20 -15 -40.5t-19 -31.5q29 -16 103.5 -32.5t182.5 -16.5q53 0 103.5 14.5t88.5 46t61.5 81t23.5 118.5q0 31 -1 50.5t-7.5 38 t-18.5 40t-37 56.5q12 8 34 27.5t43.5 50t37.5 74.5t16 102q-6 63 -30.5 109t-61.5 81t-87 63.5t-109 57.5q-41 8 -80 22.5t-70 37t-49.5 56t-18.5 80.5q0 25 12.5 53.5t40 53.5t69.5 41t104 16q41 0 81 -12t76 -29l33 72q-41 23 -93 38t-105 15q-84 0 -143.5 -23.5 t-97.5 -59.5t-56.5 -77.5t-18.5 -80.5v-56q0 -41 27 -78t43 -57q-59 -55 -102.5 -120.5t-53.5 -127.5zM195 715q-10 63 22.5 103t83.5 81q18 -10 48 -26.5t61.5 -32t62.5 -27.5t53 -12q76 -41 114 -91.5t44 -107.5q-6 -66 -30.5 -111t-75.5 -73q-23 18 -50.5 34.5t-55.5 32 t-53.5 27.5t-39.5 23q-88 41 -140.5 85t-43.5 95zM223 729q-2 -27 7.5 -48.5t29 -42t50 -42t73.5 -47.5q51 -8 106.5 -31.5t96.5 -58.5q31 27 42 60.5t7 64.5q4 72 -39 116.5t-96 73.5q-6 -2 -28.5 6t-51.5 20.5t-59.5 29t-53.5 28.5q-45 -29 -67.5 -60.5t-16.5 -68.5z" />
<glyph unicode="&#xa8;" horiz-adv-x="614" d="M43 1260q0 25 16.5 41t38 24t41 11t25.5 3q14 0 31.5 -10t33 -25.5t24.5 -36t9 -40.5q-4 -23 -14 -37t-35 -25q0 -29 -21.5 -35t-50.5 -16q-14 14 -31.5 20.5t-43.5 30.5q-6 2 -11.5 14.5t-7.5 28t-3 29.5t-1 23zM59 1241q16 -20 22.5 -40.5t22.5 -31.5q4 4 17.5 -9 t19.5 -13q35 4 53.5 26.5t28.5 63.5q-10 6 -16 20.5t-21 24.5q-10 16 -16 21.5t-20 5.5q-27 0 -50 -23q-16 -16 -20 -23.5t-21 -21.5zM367 1210q0 68 25.5 96.5t86.5 24.5q0 8 15 8q12 0 25 -5t28 -11q14 -16 18 -44t19 -56q-10 -23 -16.5 -38.5t-28.5 -25.5 q-14 -20 -32 -28.5t-32 -6.5q-61 14 -84.5 27.5t-23.5 58.5zM389 1245q0 -12 7 -29.5t19.5 -31t27 -19.5t28.5 0q29 0 50.5 20.5t25.5 51.5q-6 4 -14.5 18.5t-22.5 34.5q4 4 -12.5 14.5t-36.5 4.5q0 -4 -17.5 -9.5t-31.5 -21.5q-23 -23 -23 -33z" />
<glyph unicode="&#xa9;" horiz-adv-x="1386" d="M55 680q0 154 52.5 274.5t140.5 203.5t204.5 128t245.5 49q100 10 211 -34t203 -130t152.5 -206.5t60.5 -262.5q-6 -143 -48 -247.5t-104.5 -178t-136 -119.5t-142.5 -72t-124 -35t-80 -9q-117 0 -231.5 47t-203.5 131t-144.5 202t-55.5 259zM82 694q0 -80 31.5 -184 t100.5 -197.5t175.5 -158t255.5 -64.5h57q123 -2 229.5 44t185.5 129t127 195.5t54 243.5q-6 57 -18 117t-33.5 116t-54.5 106.5t-78 88.5q-78 82 -184.5 128t-231.5 42q-125 6 -236.5 -42t-196.5 -133t-134 -197.5t-49 -233.5zM154 676q0 141 46 249.5t120.5 182.5 t170 109.5t195.5 29.5q133 0 234.5 -49t169 -125t102.5 -166t35 -172v-45q0 -117 -51.5 -219t-128.5 -192q-51 -72 -132 -106t-180 -34q-182 0 -294.5 58.5t-177 142.5t-87 176t-22.5 160zM190 702q0 -123 41 -222t109 -168.5t156 -107.5t184 -38q102 10 192.5 41t163.5 94 q8 12 33 43t50.5 82t46 124t20.5 167q0 141 -52.5 239.5t-129 158t-162 82.5t-148.5 17q-82 12 -171 -20.5t-162.5 -100t-122 -168t-48.5 -223.5zM334 676q0 102 40 179t99 127t129 74.5t129 24.5q88 -10 155.5 -20t96.5 -39q0 -10 -3 -27.5t-7 -35t-11.5 -33t-13.5 -23.5 q-45 16 -73.5 26.5t-54 15.5t-54.5 7t-72 2q-90 0 -143 -75q-10 -6 -22.5 -15.5t-22.5 -33t-16.5 -65.5t-6.5 -112q0 -51 21.5 -93t54.5 -72.5t71 -47t72 -16.5l78 -4q25 0 50.5 5t50 14.5t45 20.5t32.5 21q2 -4 7.5 -20.5t10.5 -37t9 -38.5t4 -27q-31 -16 -69.5 -25 t-77.5 -14.5t-72 -8.5t-53 -9q-86 0 -157 26.5t-121 76t-77.5 119t-27.5 153.5zM375 725q0 -33 1 -70t9 -74.5t25.5 -77.5t50.5 -79q51 -35 107.5 -62.5t133.5 -27.5q61 0 119.5 6t132.5 47q4 4 0 13.5t-8 23.5q-37 -25 -89 -35t-103 -10q-86 4 -144.5 32.5t-94.5 74.5 t-50 108.5t-14 134.5q0 119 74.5 186.5t187.5 67.5l71 4q37 0 71 -9t69 -24q0 10 5 22.5l9 22.5q-29 23 -74 32t-116 24q-6 0 -36 -5.5t-71 -18.5t-88 -35.5t-87 -59.5t-65.5 -89t-25.5 -122z" />
<glyph unicode="&#xaa;" horiz-adv-x="583" d="M49 754q0 37 18.5 74.5t49.5 60.5q37 47 105.5 65.5t154.5 34.5q-2 6 -1 16.5t0 20.5t-6 19.5t-20 15.5q-6 10 -23.5 22.5t-54.5 12.5q-47 0 -80.5 -11t-68.5 -38q-4 4 -10.5 18t-11.5 32.5t-9 39t-4 37.5q45 23 97.5 31.5t97.5 13.5q57 -4 106 -14.5t70 -30.5 q27 -51 48 -100.5t32 -121.5q0 -2 -1 -20.5t-1 -46t-1 -60t-1 -61.5v-55.5v-63.5t-2.5 -65.5t-6.5 -59.5q-35 4 -69.5 6t-57.5 17q4 4 2 17t-6 24q-20 -29 -57 -48.5t-78 -19.5q-20 0 -55 10.5t-70 38t-60.5 72.5t-25.5 117zM80 764q0 -6 1 -28.5t7 -47t16.5 -48.5t28.5 -34 q23 -14 44.5 -34.5t51.5 -20.5q8 0 29 6t47.5 17.5t54 27.5t50.5 39q8 -6 15 -29.5t7 -38.5h27.5t34.5 -4l-9 121q4 4 6.5 39t2.5 80q0 53 -2.5 101t-2.5 57q4 51 -9 100t-54 70q-27 20 -55.5 34.5t-65.5 14.5q-51 -4 -92 -11.5t-80 -23.5q0 -10 1 -29.5t5 -29.5q12 4 51 18 t97 14q25 0 45 -9t41 -13q20 -31 38.5 -68t14.5 -90q-45 0 -90 -5t-84 -16.5t-68.5 -28.5t-44.5 -40q-59 -37 -59 -90zM162 750q0 6 9 28.5t30.5 47t55.5 44t85 19.5h39t37 -4v-41v-63.5t-4 -61.5q0 -14 -10.5 -33.5t-29 -37t-46 -30t-60.5 -12.5q-10 4 -32.5 17.5 t-38.5 35.5q-10 10 -20.5 30t-14.5 61zM197 709q0 -14 23.5 -39t43.5 -25q25 0 54.5 16.5t39.5 28.5q10 23 16.5 33t6.5 27q-2 -2 -2 12t1 33.5t3 39t4 27.5q-10 0 -41 -5t-63.5 -16.5t-57 -32t-24.5 -50.5q0 -8 -2 -20.5t-2 -28.5z" />
<glyph unicode="&#xab;" horiz-adv-x="747" d="M37 504q25 43 57.5 98t65.5 110.5t59.5 103.5t40.5 77q6 2 26.5 2h42t41 1t25.5 5q12 -2 25.5 -8t21.5 -12q-25 -27 -59.5 -82.5t-70.5 -113.5t-65.5 -106.5t-41.5 -60.5q10 -12 28.5 -39.5t41 -63.5t47 -75t45 -74t37 -60.5t22.5 -33.5q0 -15 14 -29q-25 2 -53.5 2h-56 t-49 -1t-31.5 -1q-4 16 -29.5 61.5t-59.5 100.5t-69 109.5t-55 89.5zM76 510q2 -2 18.5 -25.5t39 -59.5t48 -78t47 -79t38 -61.5t20.5 -26.5t10 -3t20 -1h33t31 4q-23 25 -56.5 75t-66.5 101.5t-57.5 93.5t-26.5 50q-2 4 -7 10t-5 10q2 6 8 12q2 2 26.5 42t58.5 92.5 t68.5 106.5t57.5 87q-23 0 -51.5 -1t-42.5 -7q-6 -8 -23.5 -34.5t-41 -63.5t-48 -77t-46.5 -76t-36 -60.5t-16 -30.5zM336 520q10 12 29.5 42t44 69t50 81t48 78.5t40 62.5t23.5 30l140 14q12 0 12 -10q-4 -8 -12 -17q2 0 -10.5 -22.5t-33 -56t-47 -75.5t-50 -81t-43 -71 t-27.5 -46q10 -12 28.5 -42t41 -68.5t46 -80.5t44 -77t35 -59.5t16.5 -28.5q4 -14 -11 -25h-20t-36.5 1t-41 3t-31.5 6q-23 18 -57.5 73.5t-69 116t-65.5 114t-43 69.5zM369 518q-2 0 9 -21.5t31.5 -55t45 -74.5t48 -80t43 -71t27.5 -44q10 4 39 6t54 2q-47 84 -98.5 166 t-98.5 166q4 18 32.5 71.5t64.5 111t68 105.5l40 60q-23 0 -44.5 1t-31.5 -1q0 -2 -14.5 -24.5t-36 -58.5t-49 -77t-53 -78.5t-46 -66.5t-30.5 -37z" />
<glyph unicode="&#xac;" horiz-adv-x="1220" d="M66 767q2 50 4 71q18 -2 97 -3t188.5 -1h236.5t240.5 1t200.5 2t120 1q0 -12 -1 -59.5t-3 -112t-3 -136t-1 -135t-1 -110t1 -56.5q-25 -2 -68 1t-69 6q-2 2 -4.5 29.5t-4.5 69.5t-3 93t-2 100.5t-3 91.5t-2 66h-581h-125.5t-104.5 -1t-74.5 -3t-35.5 -6q-4 41 -2 91z M96 721h115t179 -1t208 -3t202 -4t158.5 -4t79.5 -2q-4 -12 -4 -46v-75q0 -43 1 -90t1 -92.5t1 -81t1 -56.5h47t35 4q-4 16 -4 63.5v108.5q0 47 1 99.5t1 99.5t1 86t1 61q-35 4 -115.5 4.5t-191.5 0.5l-717 -5v-67z" />
<glyph unicode="&#xad;" horiz-adv-x="579" d="M51 475v29.5t1 50.5t4 47.5t7 22.5q20 -6 77 -7.5t127.5 -1.5h145t134.5 -2q-4 -16 -4 -53q0 -29 3 -53.5t11 -28.5q-4 -12 -18 -16q-6 2 -42 4t-85.5 3t-107.5 1h-109.5t-91.5 1t-52 3zM88 489q25 0 82 1.5t122.5 2.5t126 2t93.5 3q4 20 6 47.5t2 42.5q-8 -2 -37.5 -2 t-72.5 1t-92.5 2t-94.5 1t-82 1t-53 1v-103z" />
<glyph unicode="&#xae;" horiz-adv-x="1044" d="M53 944q0 94 38 177t101.5 145.5t148.5 99.5t181 41q104 0 189.5 -30.5t138.5 -112.5q55 -49 84 -96.5t43 -93.5t16 -92t2 -91q0 -86 -43 -164t-108.5 -135t-144 -91t-150.5 -34h-78q-78 0 -148.5 41t-121.5 98q-49 33 -78 72t-44.5 82t-20.5 89t-5 95zM80 958 q0 -72 27.5 -152.5t81 -148t129 -111.5t171.5 -44h56q88 0 164.5 31.5t132 89t87.5 134.5t34 169q0 72 -29 150.5t-85 145t-139 111.5t-190 47q-49 0 -123.5 -25.5t-145.5 -76.5t-121 -130t-50 -190zM129 948q4 82 37 152.5t86 124t122.5 85t147.5 33.5q90 -4 159 -36.5 t120 -73.5q39 -55 60.5 -96t30.5 -78t11 -76t2 -88q0 -82 -31.5 -147.5t-80 -111.5t-107.5 -71.5t-115 -25.5l-82 4q-59 0 -123.5 23.5t-119.5 70.5q-20 33 -39 67.5t-34 71.5t-26.5 79t-17.5 93zM170 918q0 -43 20.5 -103.5t63.5 -117t107.5 -96.5t154.5 -40q100 0 169 38 t112 95.5t61.5 125t18.5 124.5q0 78 -24 140.5t-89 107.5q-53 61 -112.5 85t-116.5 28q-78 10 -136.5 -17.5t-101.5 -87.5q-47 -35 -72.5 -75t-38 -77.5t-14.5 -71.5t-2 -58zM340 653q2 2 3 41t2 95.5t1 123t1 125t1 99.5t2 47q29 10 82 13t121 3q37 0 69.5 -5t57.5 -26 q10 -20 24.5 -48.5t28.5 -63.5q-4 -47 -22.5 -84t-63.5 -51q16 -14 33.5 -46t34.5 -67q6 -25 9 -50.5t5 -47t3 -36t3 -16.5q-10 -2 -26.5 0.5t-34.5 -0.5q-16 0 -30.5 -2t-27.5 -6q-4 16 -11 51t-7 76v13q-6 45 -32.5 65.5t-80.5 20.5h-18t-18 -5q-2 -16 -2.5 -51 t-0.5 -71.5v-65.5t-2 -33q-23 0 -55.5 -1t-48.5 3zM369 1169q4 -29 6 -90t2 -135q0 -82 -2 -156.5t-2 -105.5l41 6q2 12 3 41t2 62.5t2 65.5t1 50q16 4 36.5 3t49.5 -11q51 -4 72.5 -24.5t35.5 -65.5q4 -57 16.5 -89t16.5 -38q18 -8 47 0q-4 16 -5 42t-11 62 q-10 61 -31.5 85t-50.5 20q-16 27 0 49q47 4 66.5 28.5t19.5 61.5v35q0 31 -19.5 53.5t-48 36.5t-62.5 21.5t-60 7.5q-8 -2 -25.5 -4t-36 -4t-36 -3.5t-27.5 -3.5zM418 954v30v61.5t1 61.5t3 32q23 4 50.5 3t53.5 1q27 0 47.5 -14.5t32.5 -30.5q14 -10 18.5 -27.5 t14.5 -28.5q-8 -16 -6 -37.5t-21 -37.5q-12 -10 -41.5 -22.5t-52.5 -8.5q-12 -4 -31.5 -6t-29.5 -4q-12 -2 -23.5 5t-15.5 23zM455 1039.5q0 -39.5 4 -64.5q14 0 30 6q14 -2 36 -3t41.5 4t32.5 16.5t13 31.5q-8 10 -9 24.5t-13 28.5q-14 16 -34.5 19.5t-53.5 5.5h-25.5 t-21.5 -2v-66.5z" />
<glyph unicode="&#xaf;" horiz-adv-x="614" d="M80 1296q57 8 130 5t140 -1q35 0 78 2.5t80 6.5q8 -4 15.5 -6.5l19.5 -6.5q-2 -10 -4 -30.5t-4.5 -43t-5.5 -41t-9 -22.5q-18 6 -86.5 8t-154.5 2q-68 0 -123.5 -2t-63.5 -2q-4 4 -5 24.5t-2 43t-2 41t-3 22.5zM115 1274q4 -14 5 -30.5t1 -33.5q37 -2 93 -5t112.5 -5 t103.5 -3t68 3q4 14 2 29.5t-2 30.5z" />
<glyph unicode="&#xb0;" horiz-adv-x="585" d="M51 1126q0 8 3 33t12.5 56.5t26 67.5t44.5 69q14 14 36 25.5t47.5 19.5t51 15t45.5 15q47 2 98.5 -19.5t86.5 -47.5q31 -51 56.5 -99.5t25.5 -95.5q0 -80 -29 -136t-70 -93t-88 -54.5t-84 -17.5q-57 0 -105 25.5t-83 63.5t-54.5 84t-19.5 89zM92 1126q0 -113 62.5 -169 t171.5 -56q43 0 84 16.5t72.5 46t50 71.5t18.5 95q0 35 -7 81t-31 88t-68.5 71t-118.5 31q-10 0 -32 -6t-46.5 -16.5t-50 -26t-41.5 -33.5q-47 -41 -55.5 -90t-8.5 -103zM145 1139q0 43 14.5 79.5t38 64.5t55 42t66.5 10q8 2 27 -2t38 -10t37.5 -12t27.5 -11 q16 -16 27 -41.5t11 -56.5q0 -10 -2 -20.5t-6 -24.5q4 -10 4 -22.5v-22.5q0 -35 -11 -64.5t-42 -39.5q-14 -12 -32.5 -23.5t-36 -19t-32 -11.5t-16.5 -4q-23 0 -57.5 17.5t-54.5 27.5q-14 35 -35 72t-21 72zM168 1149q14 -35 23.5 -67.5t31.5 -45.5q20 -23 51 -34t66 -11 q43 0 67.5 19.5t35 45t12.5 52.5t2 41q0 41 -11.5 68.5t-33.5 66.5q-29 10 -47.5 16.5t-57.5 10.5q-59 -16 -99 -53t-40 -109z" />
<glyph unicode="&#xb1;" horiz-adv-x="1220" d="M68 637q-2 4 1 25.5t6 47t6 47t1 27.5q16 2 72.5 -1t142.5 -3q68 0 136.5 3t103.5 8q-2 27 -2 81v114.5t-1.5 115.5t-1.5 84q8 2 32 0t49.5 -4t49 -3t33.5 3q0 -47 -1 -108.5t-1 -112.5v-117t-4 -72q20 0 61.5 2t92.5 3t104 2t98.5 2t75 1t31.5 -2q2 -10 3 -32.5t1 -42.5 t-3 -41t-9 -37q-8 0 -47 1t-92.5 2t-112.5 2t-109 1q-37 0 -65.5 -1t-38.5 -5q4 -78 7 -181.5t11 -201.5q-6 -4 -29.5 -7.5t-49 -4.5t-50 -1h-32.5q-2 43 -3.5 100.5t-1.5 116v110.5v83q-16 -2 -34.5 -3t-65.5 -1h-132h-232zM70 51.5v48v31.5q4 0 75.5 1t180 1h237.5t247 -1 t208 -2t121 -3q10 0 17 -23.5t7 -40.5q0 -25 -5 -49t-11 -24q-10 -2 -88 -3t-191.5 -2t-246 -1t-248 -1t-197.5 -1h-96q-6 2 -8 23.5t-2 46zM109 23h117.5t184 -1.5t216 -2.5t213 -2t175.5 -2t103 -1l-6 80h-124h-190.5t-219 1t-213 0t-169 -2t-87.5 -3v-67zM109 668 q35 4 90 4h120q45 0 89.5 -1t78 -2t56 -4t28.5 -6q0 -18 1 -56t2 -86t2.5 -98t1.5 -93q0 -16 -1.5 -21.5t-1.5 -8.5v-9v-21l87 2q-4 59 -5.5 125t-2.5 123t-2 97t-3 46q18 2 83 2.5t141.5 1.5t147.5 3t101 6l4 78q-37 2 -111.5 2t-150.5 -1t-134 -4.5t-64 -5.5 q-4 16 -6.5 53t-2.5 91q0 20 1 53t1 67.5v71.5t-2 68h-42.5t-43.5 4q-2 -41 -2 -101.5v-121t-1 -108.5t-1 -64q-39 0 -106.5 -1t-137 -2t-129 -3.5t-81.5 -2.5q-4 -23 -4 -45v-32z" />
<glyph unicode="&#xb2;" horiz-adv-x="593" d="M45 602q6 2 22.5 19.5t35 38t35 37t24.5 18.5q33 49 70.5 97t69.5 95t53.5 93.5t23.5 93.5q-4 37 -10.5 57t-20.5 51q-14 6 -25.5 7t-21.5 1l-39 -4q-51 0 -85 -20.5t-50 -30.5q-10 8 -19.5 23.5t-15.5 34t-11 35t-9 24.5q37 35 65.5 54.5t57 27.5t58.5 9t71 1 t78.5 -16.5t67.5 -46t48.5 -68.5t18.5 -84q0 -117 -60.5 -221.5t-165.5 -216.5q-4 -6 -10 -13l-22 -22h68.5t74.5 -2t70.5 -4t56.5 -6q-2 -6 -2 -24.5t1 -39t3 -40t8 -25.5q-4 -8 -18 -17q-6 2 -42 4t-88.5 2t-111.5 -1t-111.5 -1t-88.5 2t-40 4q-2 2 -4 11.5t-3 21.5 t-3 23.5t-4 17.5zM86 553q20 -2 86 -2t139.5 1t137 2t77.5 3v74q-96 2 -151.5 3t-86 1t-41.5 1t-20 3q-2 12 7.5 29.5t21.5 33t24.5 27.5t16.5 14q37 39 76 82t70.5 92.5t51 103.5t19.5 114q0 37 -17.5 70.5t-45.5 64.5q-16 29 -46 39t-71 10q-51 0 -82 -1t-54.5 -6 t-42.5 -15.5t-46 -30.5l22 -60q20 16 51 30.5t66 14.5l37 -4q37 0 61.5 -18.5t37.5 -44t19.5 -52t6.5 -42.5q0 -78 -83 -197t-233 -285q-4 -8 -6 -26.5t-2 -28.5z" />
<glyph unicode="&#xb3;" horiz-adv-x="589" d="M41 553q4 16 15.5 48t33.5 83q6 -2 20.5 -9t34 -14.5t41 -13.5t41.5 -6q8 0 24.5 4t35 10.5t35 13.5t26.5 13q10 16 20.5 38.5t20.5 47.5q-6 43 -25.5 68.5t-49 41t-66.5 22.5t-80 13l4 113h32.5t31.5 2q18 2 38.5 10.5t38 25.5t28.5 43t11 62q0 16 -28.5 37t-55.5 21 q-39 0 -80 -14.5t-61 -24.5q-6 6 -13.5 19.5t-14.5 28.5t-13 28.5t-8 19.5q37 25 62.5 39t50 21.5t50 10.5t62.5 3q43 0 83 -15.5t69.5 -42t47 -62.5t17.5 -75q0 -53 -28.5 -106t-79.5 -82q51 -31 89 -82t38 -125q0 -8 -9.5 -48t-36 -84t-74.5 -80t-128 -36h-78 q-51 0 -94 13.5t-78 19.5zM74 588q14 -14 34.5 -21.5t43 -11.5t45 -7t39.5 -9q129 4 200.5 65.5t79.5 159.5q-2 39 -16.5 71.5t-36 58.5t-46 42t-46.5 20q-10 2 -15.5 2h-15.5q0 15 4 25q72 33 103.5 80t31.5 100q-6 35 -11 62.5t-34 50.5q-20 25 -60 40t-75 15 q-8 0 -28.5 -5t-47 -13t-55.5 -19.5t-53 -25.5q6 -6 12 -18.5t10 -26.5q20 6 52 17t69 20q25 0 52.5 -12.5t37.5 -33.5q14 0 22.5 -7t12.5 -18t7 -26.5t7 -29.5q-4 -33 -23.5 -59.5t-48 -45t-61.5 -28t-63 -9.5v-65q109 6 152.5 -34t43.5 -112q8 -10 9.5 -20t1.5 -25 q0 -41 -21.5 -63.5t-50.5 -34.5t-57.5 -15.5t-42.5 -3.5l-41 -4q-29 0 -53.5 8.5t-41.5 18.5q-6 -16 -13 -31.5t-13 -21.5z" />
<glyph unicode="&#xb4;" horiz-adv-x="614" d="M205 1100q0 6 20.5 41t49 82t58 98t46.5 92q8 -2 34.5 -5t56.5 -6t56.5 -4t34.5 -1q4 -2 11.5 -5t11.5 -8q-2 -2 -18.5 -22.5t-41 -51t-53.5 -66.5t-54.5 -66.5t-45 -52t-25.5 -25.5q-18 -6 -55.5 -6.5t-57.5 -8.5q-4 2 -12 4.5t-16 10.5zM268 1122q16 0 39 1t29 5 q2 8 22.5 37t46 66t54 74.5t49.5 64.5q-31 0 -62.5 -2t-46.5 -2z" />
<glyph unicode="&#xb5;" horiz-adv-x="866" d="M100 456.5v532.5q12 2 26.5 3t33.5 1q37 0 71.5 2t51.5 13q2 -10 5 -43t5 -106t4 -190.5t2 -295.5q0 -84 11.5 -130t30.5 -67.5t45 -25t52 -3.5q33 0 58.5 16.5t43 41t24.5 52.5t1 48v55.5t-1 125t-1 160.5v162v127t2 58q12 2 45 4t68 3t62.5 0t29.5 -3q0 -4 1 -59 t1 -136t-1 -174t-2 -174t-3 -135.5t-4 -58.5q0 -35 3 -65.5t3 -61.5v-29.5t1 -41t1 -42v-30.5q-8 0 -13 -2t-12 -4q2 4 -22 8q-12 2 -26.5 2h-28.5q-23 0 -40.5 -2t-27.5 -4q-4 4 -4 28.5t-4 44.5q-51 -53 -101.5 -62t-89.5 -9q-4 -4 -11 -5t-15 -1q-20 0 -46 9t-48 32v-109 v-131.5t-1 -117.5t-4 -64q-6 0 -30.5 -1t-52 -2t-52 -2t-32.5 3q-2 18 -4.5 129.5t-3.5 296t-1 430zM123 958q0 -35 1 -140t2 -244.5t2 -294t1 -289.5t-1 -233.5t-1 -123.5q6 2 23.5 4.5t37 2.5t39 -2.5t31.5 -4.5q0 18 -1 56.5t-1 84.5t-1 95t-1 92v87t4 44 q12 -27 31.5 -41t40 -23.5t37 -14.5t22.5 -11q43 6 77 24.5t57.5 38t36.5 35t18 19.5q4 8 6 11l6 9q10 2 24.5 0t20.5 -2l-2 -117q16 -4 49 -4t53 4v113l4 131q2 0 2 44v112.5v152.5t-1 162t-2 140.5t-3 91.5q-23 6 -62.5 7t-62.5 -3q0 -18 1 -73.5t2 -127.5t1 -151.5 t-1 -147.5t-3 -114t-6 -48q4 -20 -6 -55t-31.5 -67.5t-53.5 -56.5t-75 -24q-51 0 -82.5 14.5t-52 48.5t-30 90t-15.5 140q2 -2 3 17.5t2 53.5t2 77t1 90q0 51 -1 103.5t-2 98.5t-4 81.5t-5 54.5z" />
<glyph unicode="&#xb6;" horiz-adv-x="858" d="M47 944q0 129 43 215t113.5 137.5t158 72t177.5 15.5l213 -4q-2 -133 -3 -294.5t-1 -326.5t-1.5 -320.5t-2.5 -279.5t-3 -202t-4 -86q-6 2 -25.5 3t-43 3t-44 5t-30.5 7q2 20 3 49t1 68v90v121v190.5t-1 206t-1 202.5t-1 183t-1 148.5v97.5l-86 4q2 -4 3 -36.5t1 -87 v-125v-152.5l-4 -963q-31 0 -72 2t-63 7q2 152 4 280q0 55 1 110.5t1 103.5t-1 85t-1 55q-39 -2 -95.5 13.5t-108.5 60.5t-89 127t-37 215zM88 967q0 -115 25.5 -191t68.5 -122t101.5 -65.5t124.5 -21.5l10 -647l57 2q2 39 2 118v179v216v230.5v221t-1 189.5t-1 135.5v56.5 q0 6 26.5 10t51.5 4q27 0 53.5 -6t26.5 -12q2 -66 3 -178.5t2 -246.5t2 -278.5t1 -272.5t-1 -227.5t-1 -144.5h57v109.5v179v223.5v243v238.5v208.5t-1 154.5t-3 77.5q-10 -2 -18 -3t-23.5 -2.5t-40 -1.5h-67.5q-123 -4 -209 -34.5t-141.5 -80.5t-80 -118t-24.5 -143z" />
<glyph unicode="&#xb7;" horiz-adv-x="401" d="M80 520q0 6 1 15.5t5 27.5q0 23 8 46.5t21.5 43t32 31.5t40.5 12q16 0 41 -9t46.5 -27.5t37 -46t15.5 -62.5q0 -27 -7.5 -54.5t-23.5 -31.5q-16 -27 -45 -38t-49 -7q-31 10 -49.5 13t-40.5 32q-16 0 -24.5 17.5t-8.5 37.5zM109 545q0 -23 4 -39.5t26 -30.5 q10 -12 27.5 -17t36.5 -3q45 6 60.5 39.5t15.5 60.5q0 55 -21.5 77.5t-46.5 26.5q-20 -10 -43 -9t-29 -9q-6 -14 -13 -44t-17 -52z" />
<glyph unicode="&#xb8;" horiz-adv-x="614" d="M129 -377q0 10 6 24.5t13.5 31t13.5 32t8 25.5q6 -4 23.5 -11.5t37 -14.5t36 -13t20.5 -6q31 4 43 19.5t12 21.5q-4 20 -18.5 35.5t-36 24.5t-46 13.5t-48.5 1.5q0 25 13 59t29.5 65.5t32 55t21.5 29.5q6 2 21.5 3t35 1t38 -1t28.5 1q-4 -6 -10.5 -20t-14.5 -30.5 t-15 -33t-14 -28.5q23 -4 45.5 -16.5t41 -34t28.5 -51t8 -66.5q4 -20 -7 -49t-25 -49q-20 -23 -38 -35.5t-41.5 -17.5t-56 -6t-84.5 -1q-25 0 -46 7.5t-44 21.5q4 0 -3 4t-7 8zM166 -373q27 -12 59.5 -15t53.5 -7q35 6 67.5 16t57 27.5t40 43t15.5 62.5t-17.5 59.5t-39 36 t-43 18.5t-27.5 7l-31 10q6 2 17.5 16.5t21.5 33t18.5 37t10.5 26.5q-10 0 -28 -2t-32 -2q-6 -12 -14 -31.5t-17.5 -40t-17.5 -40t-14 -34.5q41 -4 65.5 -15t36.5 -25.5t14.5 -29t-4.5 -24.5q8 -6 9.5 -15t1.5 -15q0 -35 -25 -40.5t-47 -5.5q-51 0 -69.5 1.5t-34.5 11.5 q-4 -14 -12.5 -33.5t-14.5 -30.5z" />
<glyph unicode="&#xb9;" horiz-adv-x="583" d="M80 1243q18 6 51 24.5t66.5 39t59.5 36t30 15.5q4 -2 23.5 -2t42 -2t44 -4t29.5 -7q-2 -6 -2 -67.5v-150.5v-191.5v-191.5t1 -150.5t1 -67.5q-10 2 -34.5 1t-51.5 -3t-48.5 -3t-25.5 1q-4 14 -6 59.5t-4 108t-2 135v141v125t2 89.5q-16 -6 -37.5 -16.5l-43 -21t-39 -17.5 t-23.5 -9q-2 14 -7.5 33.5t-11.5 39t-10 35t-4 21.5zM117 1219l12 -64q14 8 35.5 20.5t43 24.5t42 24.5t35.5 18.5q0 -2 1 -48t2 -117.5t3 -154.5t4 -159t3 -131t3 -68l90 -6q-2 27 -4 85t-4 132t-3 155t-2 155.5t-1 135v91.5q-16 0 -39 3t-37 1z" />
<glyph unicode="&#xba;" horiz-adv-x="636" d="M47 864q0 94 25.5 162t66.5 110t91.5 61t101.5 17q47 4 92 -15t82 -42q33 -49 50 -96t25.5 -87t9.5 -72t1 -48q0 -90 -22.5 -152.5t-59.5 -103.5t-83 -59.5t-91 -18.5q-59 0 -103.5 13.5t-91.5 54.5q-25 29 -43 71.5t-29.5 84.5t-16.5 76t-5 44zM84 864 q8 -78 24.5 -151.5t69.5 -110.5q6 -8 16.5 -18.5t29 -19.5t45 -15t67.5 -6t80 17.5t68.5 54t48 93t18.5 134.5t-10.5 128t-23.5 81.5t-27.5 48t-22.5 24.5q-16 35 -53 45t-78 2q-47 10 -87 -12t-71 -53q-37 -27 -60.5 -95.5t-33.5 -146.5zM178 850q0 113 33 186.5t113 75.5 q27 8 48 2t21 -16q25 -23 40.5 -53.5t24.5 -64.5t12 -65.5t5 -56.5q-4 -23 -6 -50.5t-9 -58t-19.5 -61.5t-37.5 -55q-4 -2 -18 -6t-31.5 -9.5t-32 -8.5t-18.5 -3q-20 0 -31.5 6t-21.5 35q-16 14 -28.5 39t-20.5 53.5t-14.5 57t-8.5 53.5zM209 891q0 -86 11 -145.5t48 -94.5 q16 -14 25.5 -13t19.5 -9q45 0 71 28.5t37 68.5t11 80t-2 62q6 41 -3 82t-25.5 72t-38 48t-41.5 9q-33 0 -54.5 -23.5t-35 -55t-18.5 -63.5t-5 -46z" />
<glyph unicode="&#xbb;" horiz-adv-x="747" d="M31 893q23 8 61.5 3t59.5 -9q10 -2 19 -2t13 -4q4 -2 21.5 -29t41 -64.5t51.5 -81.5t51.5 -82t42 -67t24.5 -33q0 -4 -15.5 -31.5t-39 -67.5t-52 -87t-54.5 -89t-45.5 -73t-25.5 -39q-8 2 -28.5 2h-43h-43t-28.5 2q-2 10 13.5 42t39 72t51 85t52 84t41 68.5t16.5 37.5 q-16 20 -48 68.5t-67 104t-64.5 107.5t-43.5 83zM76 854l221 -334q-4 -6 -29.5 -49t-59.5 -98.5t-66.5 -111.5t-51.5 -89l90 6q18 39 48 95.5t60.5 109.5t55.5 93t31 48q-6 8 -34 49t-60.5 94.5t-65.5 105.5t-49 81q-16 -4 -43 -4t-47 4zM330 885q10 2 30.5 4t45 4t49 1 t41.5 -5q20 -37 56 -97.5t69.5 -119t58.5 -102.5t27 -52q-16 -35 -49 -94t-67 -117.5t-61.5 -106t-33.5 -59.5q-10 -4 -38 -6t-34 -2q-29 0 -49.5 1t-30.5 7q-2 14 12.5 48t36 76t48 86t49 82t39 64.5t16.5 30.5q-18 33 -54 88.5t-71 110.5t-61.5 100t-28.5 58zM379 854 q20 -33 53 -83t65.5 -101.5t59.5 -93t37 -56.5q-6 -12 -36 -59t-65.5 -103.5t-67.5 -106.5t-42 -69l76 -4q14 16 42.5 63.5t61.5 99.5t62.5 100t46.5 69q0 4 -28 50t-62.5 104.5t-66.5 113.5t-42 80h-36.5t-57.5 -4z" />
<glyph unicode="&#xbc;" horiz-adv-x="1304" d="M51 1243l47 23.5l74 37t68.5 34t31.5 14.5q8 -4 21.5 -5t28 1t25.5 5t15 7q4 -2 9.5 -4t9.5 -4q0 -8 1 -55.5t2 -118t1 -158.5t1 -178t1 -175t2 -151q-10 8 -35.5 11t-50.5 3q-20 0 -40 -1t-36 -1q0 12 1 59.5t2 112t2 140t3.5 146.5t3.5 126t3 82q-10 -10 -33 -23.5 t-47.5 -23.5t-48 -17.5t-37.5 -3.5q0 8 -2 23.5t-5 33t-7.5 34t-10.5 26.5zM106 1235q4 -10 6.5 -29.5t6.5 -34.5q35 16 77 36t50 28q4 0 15 -3t15 -7v-48v-111v-145.5t-2 -151.5t-4 -130t-6 -80q16 -4 45 -5t49 -1q2 12 3 47t2.5 84t2.5 109.5t1 126.5q0 63 -1 125.5 t-2.5 117t-2.5 94t-3 58.5q-6 -2 -20 -2h-29.5t-28.5 1l-12 1q-8 -4 -27.5 -12.5t-42 -20.5t-47 -24.5t-45.5 -22.5zM213 -18q2 8 32.5 69.5t81 158.5t114 220t129 249t128 248t112.5 217t82 155.5t34 64.5q39 4 78.5 -2t58.5 -14q0 -4 -29.5 -64.5t-79 -158t-113 -219.5 t-130 -249t-131 -248.5t-115.5 -219t-85 -158t-38 -64.5q-14 2 -33.5 3t-39 1t-35 2t-21.5 9zM264 4h58q8 8 37.5 61.5t74.5 136.5t101.5 188.5t115 219t115.5 226t106.5 210t86 172t53.5 111.5q-29 4 -36 4h-15q-2 -4 -30 -56t-73 -138t-103.5 -195.5t-120 -226.5 t-122.5 -233.5t-111.5 -214t-87.5 -168t-49 -97.5zM682 291q6 -2 11 3t12 5q0 2 21.5 40t54 95.5t71.5 123t74 121.5t59.5 95t30.5 41q10 6 49 7t86 1q2 -6 4 -38.5t3 -81t1 -104.5v-108.5v-94.5v-62q35 4 56.5 4t41.5 -4q-4 -12 -6 -35t-2 -39v-29.5t-2 -25.5 q-10 4 -32.5 3t-49.5 -5q0 -20 -3 -58.5t-3 -72.5q0 -14 -2 -47t-2 -41q-10 -2 -30.5 -3t-41 -1t-39 1t-24.5 1q-10 10 -14.5 45.5t-4.5 70.5q0 31 1.5 60.5t5.5 44.5h-195q-37 0 -63.5 -3t-30.5 -7q-10 4 -19.5 9t-13.5 9q4 14 0 45t-4 35zM715 289q4 -10 6 -22.5t6 -22.5 q18 -4 65.5 -5t98.5 -2t96 -1h57q-4 -14 -7 -75t5 -138h86q-4 18 -4 50.5t2 66.5t3 60.5t1 35.5q18 4 45 6t48 2v29.5t-4 27.5q-6 -2 -20.5 -4t-31 -3t-33 -1t-24.5 4q6 23 10 91.5t5 148t2 152.5t1 108l-116 -11q-4 -6 -24.5 -41.5t-50.5 -89t-64.5 -114t-66.5 -114.5 t-56.5 -92t-34.5 -46zM803 291q-2 14 18.5 54t46 84t51 80t33.5 40q4 31 24.5 64.5t43.5 62.5q6 4 17.5 5t19.5 -3q-10 -20 -14.5 -64.5t-0.5 -95.5q4 0 4.5 -27.5t0.5 -62.5q0 -41 -1.5 -77t-3.5 -52q-18 4 -37.5 5t-48.5 1q-18 0 -41.5 -2t-45 -4t-40 -4t-26.5 -4z M862 338h40h47.5t42 -1t24.5 -3q0 43 -1 94t-5 92l2 70q-10 -16 -18.5 -29.5t-18.5 -23.5q-2 0 -14.5 -24t-30 -56.5t-35.5 -65.5t-33 -53z" />
<glyph unicode="&#xbd;" horiz-adv-x="1304" d="M16 1243l39 19.5t68 33t69.5 31.5t45.5 16q10 6 26.5 8.5t31.5 3.5t27.5 1t16.5 2q10 -10 12 -19.5t6 -21.5q0 -14 1 -73.5t2 -142.5t2.5 -177.5t1.5 -175v-138t-3 -67.5q-6 -16 -22 -23q-10 6 -26.5 7t-45.5 1h-38t-25 2q-2 4 -3 44t-2 99.5t-2 132.5t-2 142.5t-1 129 t-2 91.5q-14 -6 -35 -17t-42.5 -20.5t-39 -15.5t-23.5 -4q-2 8 -6 28.5t-9 42t-10 39t-12 21.5zM61 1223q4 -10 7.5 -34t7.5 -38q10 8 28.5 21.5t39 26.5t37 22.5t20.5 9.5q10 0 16 -9.5t10 -21.5q0 -25 2 -75t3 -112.5t3.5 -131t3.5 -133t2 -116.5t1 -81h29.5t52.5 -4 q-2 18 -3.5 73.5t0 130t2.5 160.5t2 164t2 141.5t1 92.5q-25 0 -55 1t-40 7q2 2 -21.5 -10.5t-53 -29.5t-58 -32.5t-39.5 -21.5zM168 -35q2 10 33.5 73.5t81 161t112 218.5t127 247t127 246.5t112.5 217t81.5 159t36.5 70.5q10 -4 34 -4q16 0 38 1t38 5q10 -6 15 -19 q-2 -4 -33 -65.5t-80 -157.5t-111.5 -218t-127 -249t-128 -248.5t-114 -219t-82 -158t-33.5 -64.5h-21.5h-38t-40 1t-27.5 3zM227 2q16 0 34 -2t22 -2q4 8 32.5 62.5t71.5 138.5t98.5 189.5t112.5 218t115.5 224t106.5 209t85 171t53 110.5h-55q-10 -18 -42 -77.5 t-77 -144.5t-99 -189.5t-110.5 -214t-112.5 -218t-102.5 -202t-82 -165t-50.5 -108.5zM739 -12q0 8 2 31.5t4 41.5q6 8 22.5 29t35 41.5t34 36.5t19.5 20q18 23 54 70t72 102.5t62.5 110.5t26.5 98q0 18 -8 41t-23.5 40.5t-39 26.5t-52.5 1q-16 6 -33.5 1t-33 -16.5 t-28.5 -24.5t-22 -24q-10 0 -24 8.5t-21 18.5q0 -2 -4 12.5t-10 33t-12 34.5t-8 18q27 29 84 53.5t131 24.5q14 0 37.5 -2t49 -8t52.5 -18.5t51 -30.5q45 -43 53.5 -86t8.5 -121q0 -98 -64.5 -191.5t-161.5 -195.5q-4 0 -19.5 -17.5t-25.5 -27.5h76h96t82 1t37 3 q0 -29 3 -72t5 -59q-12 -6 -78.5 -8t-147.5 -3t-154.5 -1h-100.5q-14 0 -27 8zM774 14q14 -2 72.5 -3t128 -1t136.5 1t99 3q4 10 4 36t-4 42q-20 -4 -58 -4h-81h-100t-53 4q-4 6 -6.5 18.5t1.5 22.5q10 10 35 31.5t33 30.5q41 41 78 85t65.5 91t46 96t17.5 98 q0 98 -46 159.5t-175 61.5q-57 0 -102.5 -17t-73.5 -34l22 -57q25 14 57.5 28.5t69.5 20.5q37 -10 65.5 -26.5t55.5 -32.5q4 -10 22.5 -43t22.5 -74q-4 -49 -26.5 -99.5t-57.5 -98.5t-78 -94t-84 -87q-6 -12 -18.5 -28.5t-24.5 -34t-23.5 -30.5t-15.5 -18q-8 -27 -4 -47z " />
<glyph unicode="&#xbe;" horiz-adv-x="1304" d="M45 557q-2 2 2 24.5t11.5 48t14.5 46t11 20.5q14 -6 49 -24.5t78 -18.5h63q16 0 33 8.5t27 32.5q39 18 39 64q-2 53 -17.5 82.5t-43 44t-65.5 18.5t-85 10q2 12 2 28.5v33t2 29t8 16.5q88 10 137 40t49 81q0 27 -13 44t-30.5 26.5t-33 11.5t-17.5 -2q-41 10 -78.5 -4.5 t-72.5 -42.5q-2 4 -6.5 20t-9.5 34.5t-11 36t-10 23.5q18 25 55 38t76 20.5t68.5 8.5t33.5 1q51 0 89 -20.5t63.5 -52.5t38 -67.5t12.5 -66.5q-4 -53 -27.5 -101.5t-80.5 -70.5q49 -14 75.5 -41t38.5 -58.5t14.5 -65.5t2.5 -64q0 -41 -14.5 -79t-49.5 -83 q-45 -29 -107.5 -57.5t-127.5 -28.5q-51 10 -106.5 25.5t-86.5 31.5zM86 582q0 -4 45 -22.5t117 -18.5q111 4 181.5 59t70.5 158v45q0 29 -13.5 54.5t-35 45t-48 31.5t-53.5 14q-4 8 0 22.5t15 24.5q47 14 83.5 59.5t36.5 90.5v31q0 27 -15 53t-37.5 46.5t-51.5 33t-53 12.5 q-10 0 -20.5 -3l-24.5 -7q-10 4 -19.5 4h-15.5q-41 0 -72 -16.5t-55 -32.5q0 -16 10 -41q16 14 51 27.5t78 17.5q31 -10 52.5 -21.5t52.5 -27.5q6 -6 16 -35t20 -51q-10 -72 -69.5 -109t-128.5 -43q0 -10 2 -20.5t2 -20.5q94 -10 148.5 -47t54.5 -121q0 -45 -17.5 -77.5 t-41 -53t-50.5 -30t-45 -9.5q-68 0 -103.5 19.5t-50.5 29.5q-4 -16 -10 -38.5t-6 -32.5zM244 -27q2 2 33.5 62.5t82 158t115 220.5t131 251t131 251.5t114.5 221t81 158t33 64.5q10 -6 27.5 -9t31.5 -3q18 0 38.5 3t37.5 3q-2 -4 -34 -66.5t-82 -160t-113.5 -221.5 t-130 -252t-129 -249.5t-110.5 -217t-78 -155t-28 -59.5q-10 -2 -32.5 -3t-46 -1t-44 1t-28.5 3zM301 4h72q10 20 41.5 80.5t77 149t101.5 195t114.5 219t116 221t105.5 199.5t81.5 158.5t48.5 94.5q-16 0 -33.5 2t-34.5 -2q-12 -23 -61 -116t-119 -224t-149.5 -282.5 t-152.5 -291t-129 -248t-79 -155.5zM688 255q0 15 2 29.5t4 22.5q2 0 24.5 37t56.5 91t73 120t73.5 122t58.5 95t28 43q10 -4 32.5 -4t45 2t40 6t19.5 10q10 -8 18 -15t13 -17q-2 -8 -3.5 -38t-2.5 -73t-3 -93t-3 -99.5t-2 -90.5t-1 -65q25 4 54.5 1t35.5 -9q2 -6 4 -24.5 t4.5 -39t1.5 -39t-4 -24.5l-96 -4q0 -10 1 -42t1 -68t-2 -66.5t-6 -36.5q-4 2 -23.5 3t-43 1t-46 1t-28.5 1q-4 2 -4 30.5t2 65.5t4 69.5t2 45.5h-203l-121 4q-4 6 -5 19.5t-1 28.5zM725 244q12 -6 60.5 -9.5t103.5 -4.5t99 -2t48 -3q2 -4 3 -27.5t2 -54t1 -63.5t-2 -53 q8 -4 22.5 -7.5t30 -3.5h26.5t16 2q-2 18 -2 51t-1.5 66t-3.5 58.5t-6 29.5q4 2 18.5 5t32 6.5t35 4.5t27.5 1q-4 12 -7 33.5t1 27.5h-103q2 2 3 33t2.5 77t2.5 102t1 110q0 57 -2.5 103t-2.5 67q-16 -4 -43.5 -4.5t-50.5 -0.5q-14 -20 -42.5 -64t-62.5 -98.5t-70 -113.5 t-64.5 -109.5t-47 -86.5t-18.5 -42q-2 -6 -4 -14t-2 -16zM805 297q2 18 32.5 70.5t66.5 110t65.5 102.5t29.5 51q6 20 15.5 31.5t25.5 23.5q8 -4 10.5 -14t6.5 -21q0 -18 -4 -42.5t-4 -30.5v-31t4 -35q0 -18 -1 -53t-3 -70t-5.5 -62.5t-7.5 -33.5q-61 4 -110 6q-41 2 -78 2 t-43 -4zM860 324q31 4 78 7t76 -1q-4 12 -4 34.5v49.5q0 41 4 77.5t8 40.5l2 99h-2q-8 -27 -51 -96q-14 -35 -47 -95.5t-64 -115.5z" />
<glyph unicode="&#xbf;" horiz-adv-x="665" d="M51 -90q0 43 11.5 82t30 78t42 77.5t47.5 81.5q47 74 77 137.5t30 129.5q0 16 -3 60t-12 75q18 -4 52 -6t59 -2q14 2 24.5 3t26.5 7q6 -14 12.5 -26.5t8.5 -28.5q14 -88 -10.5 -193.5t-84.5 -204.5q-51 -78 -84.5 -139t-33.5 -135q0 -53 17.5 -83t41 -43t48 -17.5 t38.5 -6.5q14 -4 26.5 -4h22.5q29 0 58.5 10.5t60.5 26.5q6 -10 11 -29.5t10.5 -40t10.5 -39t11 -30.5q-2 -2 -20.5 -14.5t-50 -28t-75.5 -27.5t-98 -12q-78 14 -124 36.5t-87 57.5q-61 53 -77.5 108.5t-16.5 139.5zM92 -72v-24t4 -21q-20 -117 46.5 -191.5t205.5 -74.5 q14 0 44 3t63.5 8t64.5 12.5t49 17.5h-4q-4 0 -9 10t-10 23.5t-10.5 29t-7.5 27.5q-23 -16 -67.5 -21.5t-85.5 -5.5q-72 0 -115 45.5t-43 116.5q0 96 38 172t81 135q47 92 72.5 166t25.5 150q0 16 -4 40.5t-14 49.5q-20 4 -53 5t-56 -1q4 -29 7 -63.5t3 -59.5 q0 -59 -24.5 -131t-63.5 -131q-23 -31 -47 -64.5t-44.5 -70.5t-33 -75t-12.5 -77zM254 911q0 47 33 82t92 31q27 2 50.5 -3t39.5 -34q10 -4 16.5 -14t9.5 -23.5t5 -27t6 -21.5q0 -33 -15.5 -59.5t-36 -46t-42 -30.5t-33.5 -11q-29 4 -48.5 12t-35.5 37q-14 2 -22.5 17.5 t-12.5 32.5t-5 34.5t-1 23.5zM281 915q0 -4 2 -8t2 -10q4 -29 13 -46t13 -30q10 -8 29.5 -14t30.5 -23q41 4 67.5 36t26.5 73q-6 20 -8 38.5t-33 41.5q-4 8 -10 14t-29 4q-35 0 -55.5 -9t-30.5 -21.5t-14 -25.5t-4 -20z" />
<glyph unicode="&#xc0;" horiz-adv-x="952" d="M39 12q0 8 14.5 69.5t39 159t55 217.5t62.5 244.5t62.5 244.5t54 213t39 149.5t15.5 58.5q2 8 0 14q-4 6 4 7q4 0 13.5 -3.5t19.5 -3.5q20 0 45.5 1t48.5 3.5t40 3.5t19 1q4 0 3 -3.5t4 -7.5q2 -2 6 -3t6 -5q2 -14 16.5 -80.5t37 -166t50 -220.5t57 -245.5t58.5 -242.5 t50.5 -211t35.5 -149.5t14 -58.5q2 -6 -4 -12q-2 -2 -24.5 -2t-52 1t-56.5 2t-39 3q-14 4 -14 8q0 10 -11.5 62.5t-24.5 117t-27.5 127t-20.5 90.5q-25 2 -70 2h-94h-91t-56 -2q-2 -14 -11.5 -50t-20.5 -83t-24.5 -97t-25 -92t-19.5 -70l-8 -28q-4 4 -24.5 4.5t-47.5 0.5 q-31 0 -56.5 -1.5t-25.5 -7.5l-14 9q-8 6 -8 32zM76 25l129 6q6 12 19.5 73.5t28.5 132t28.5 128t19.5 61.5q8 -2 55 -1t104.5 3t112 5t76.5 5q6 -25 17.5 -65.5t23.5 -87.5t25.5 -94.5t26 -86t19.5 -64.5t9 -28q16 4 48 4h54q-4 31 -20 99.5t-37.5 163t-49.5 204t-55.5 222 t-54 220t-50 194.5t-39 147.5t-21.5 79.5h-72q-29 0 -51.5 2t-26.5 6q-4 -27 -26.5 -125.5t-55 -234.5t-69.5 -290.5t-71 -294t-60.5 -244t-36.5 -140.5zM213 1737q6 2 32.5 3t58.5 2t64.5 2t51.5 1q8 -14 33.5 -44t57.5 -66t64.5 -71.5t59.5 -62.5q12 -14 15 -24.5t5 -14.5 q-27 8 -51 10.5t-51 2.5q-14 0 -29.5 -2.5t-25.5 -6.5q-16 16 -56.5 54.5t-86.5 81.5t-87 80.5t-55 54.5zM279 1710q27 -23 60.5 -52.5t65 -58t59.5 -55.5t42 -41q6 4 25.5 4h43.5q-16 25 -40.5 55.5t-49 59.5t-46 52.5t-31.5 31.5q-27 0 -64 2t-65 2zM309 543q0 4 7.5 30.5 t18.5 64.5t23.5 82t23.5 82t19.5 64.5t8.5 28.5q10 57 19 139t20 168q2 8 10 12.5t12 -0.5q6 -6 13.5 -1.5t9.5 -2.5q6 -43 12 -77.5t14 -70.5t18.5 -74t22.5 -85q0 -2 6 -27.5t14.5 -63.5t17.5 -81t18.5 -82t14.5 -65.5t7 -30.5q2 -12 0 -18q-4 -6 -10 -5q-4 2 -16.5 0 t-34.5 -12h-59t-73.5 -1t-70.5 -1h-51q-4 4 -7.5 6t-5.5 6q4 4 1 7.5t-3 7.5zM350 557q14 -2 49 -2h75h75t49 -2q-8 29 -20.5 79t-22.5 102t-18.5 96.5t-10.5 56.5q-8 59 -23.5 112.5t-25.5 112.5l-2 -2l-35 -211q-2 -8 -13 -54t-25.5 -102.5t-29 -109.5t-22.5 -76z" />
<glyph unicode="&#xc1;" horiz-adv-x="952" d="M39 12q0 8 14.5 69.5t39 159t55 217.5t62.5 244.5t62.5 244.5t54 213t39 149.5t15.5 58.5q2 8 0 14q-4 6 4 7q4 0 13.5 -3.5t19.5 -3.5q20 0 45.5 1t48.5 3.5t40 3.5t19 1q4 0 3 -3.5t4 -7.5q2 -2 6 -3t6 -5q2 -14 16.5 -80.5t37 -166t50 -220.5t57 -245.5t58.5 -242.5 t50.5 -211t35.5 -149.5t14 -58.5q2 -6 -4 -12q-2 -2 -24.5 -2t-52 1t-56.5 2t-39 3q-14 4 -14 8q0 10 -11.5 62.5t-24.5 117t-27.5 127t-20.5 90.5q-25 2 -70 2h-94h-91t-56 -2q-2 -14 -11.5 -50t-20.5 -83t-24.5 -97t-25 -92t-19.5 -70l-8 -28q-4 4 -24.5 4.5t-47.5 0.5 q-31 0 -56.5 -1.5t-25.5 -7.5l-14 9q-8 6 -8 32zM76 25l129 6q6 12 19.5 73.5t28.5 132t28.5 128t19.5 61.5q8 -2 55 -1t104.5 3t112 5t76.5 5q6 -25 17.5 -65.5t23.5 -87.5t25.5 -94.5t26 -86t19.5 -64.5t9 -28q16 4 48 4h54q-4 31 -20 99.5t-37.5 163t-49.5 204t-55.5 222 t-54 220t-50 194.5t-39 147.5t-21.5 79.5h-72q-29 0 -51.5 2t-26.5 6q-4 -27 -26.5 -125.5t-55 -234.5t-69.5 -290.5t-71 -294t-60.5 -244t-36.5 -140.5zM309 543q0 4 7.5 30.5t18.5 64.5t23.5 82t23.5 82t19.5 64.5t8.5 28.5q10 57 19 139t20 168q2 8 10 12.5t12 -0.5 q6 -6 13.5 -1.5t9.5 -2.5q6 -43 12 -77.5t14 -70.5t18.5 -74t22.5 -85q0 -2 6 -27.5t14.5 -63.5t17.5 -81t18.5 -82t14.5 -65.5t7 -30.5q2 -12 0 -18q-4 -6 -10 -5q-4 2 -16.5 0t-34.5 -12h-59t-73.5 -1t-70.5 -1h-51q-4 4 -7.5 6t-5.5 6q4 4 1 7.5t-3 7.5zM350 557 q14 -2 49 -2h75h75t49 -2q-8 29 -20.5 79t-22.5 102t-18.5 96.5t-10.5 56.5q-8 59 -23.5 112.5t-25.5 112.5l-2 -2l-35 -211q-2 -8 -13 -54t-25.5 -102.5t-29 -109.5t-22.5 -76zM373 1479q12 16 44 56t67.5 83t66.5 80t41 49q18 -4 48 -3t59.5 2t52 2t26.5 -1q24 -16 8 -45 q-10 -8 -50 -43t-86 -75t-85 -73.5t-45 -37.5h-34.5t-45 1t-42 2t-25.5 3zM430 1507q16 -4 39 -4h39q18 14 48 41t61.5 56.5t63.5 58.5t52 47q-29 -4 -60.5 -4h-51.5q-4 0 -30 -25.5t-58.5 -59.5t-62.5 -65.5t-40 -44.5z" />
<glyph unicode="&#xc2;" horiz-adv-x="952" d="M39 12q0 8 14.5 69.5t39 159t55 217.5t62.5 244.5t62.5 244.5t54 213t39 149.5t15.5 58.5q2 8 0 14q-4 6 4 7q4 0 13.5 -3.5t19.5 -3.5q20 0 45.5 1t48.5 3.5t40 3.5t19 1q4 0 3 -3.5t4 -7.5q2 -2 6 -3t6 -5q2 -14 16.5 -80.5t37 -166t50 -220.5t57 -245.5t58.5 -242.5 t50.5 -211t35.5 -149.5t14 -58.5q2 -6 -4 -12q-2 -2 -24.5 -2t-52 1t-56.5 2t-39 3q-14 4 -14 8q0 10 -11.5 62.5t-24.5 117t-27.5 127t-20.5 90.5q-25 2 -70 2h-94h-91t-56 -2q-2 -14 -11.5 -50t-20.5 -83t-24.5 -97t-25 -92t-19.5 -70l-8 -28q-4 4 -24.5 4.5t-47.5 0.5 q-31 0 -56.5 -1.5t-25.5 -7.5l-14 9q-8 6 -8 32zM76 25l129 6q6 12 19.5 73.5t28.5 132t28.5 128t19.5 61.5q8 -2 55 -1t104.5 3t112 5t76.5 5q6 -25 17.5 -65.5t23.5 -87.5t25.5 -94.5t26 -86t19.5 -64.5t9 -28q16 4 48 4h54q-4 31 -20 99.5t-37.5 163t-49.5 204t-55.5 222 t-54 220t-50 194.5t-39 147.5t-21.5 79.5h-72q-29 0 -51.5 2t-26.5 6q-4 -27 -26.5 -125.5t-55 -234.5t-69.5 -290.5t-71 -294t-60.5 -244t-36.5 -140.5zM233 1491q2 6 29 45t57.5 83t55 81t22.5 39q20 2 33.5 2h58.5h28.5t25.5 2q4 -6 19.5 -26.5t35.5 -46t43 -54.5 t42 -53.5t32.5 -41t13.5 -18.5q0 -18 -14 -37q-6 2 -24.5 4.5t-41 5.5t-43 5t-31.5 4q-8 0 -22 -10q0 2 -2 7t-10.5 18t-24.5 40t-45 70q-8 -14 -21.5 -34t-26.5 -39t-27.5 -36.5t-22.5 -25.5q-6 4 -26.5 6t-44 4t-43 3t-26.5 3zM268 1511h86q6 0 23.5 21.5t36 47.5t33 46.5 t16.5 20.5q4 4 6 8t6 10l9 -9t5 -9q-2 2 10.5 -15.5t28 -40t30.5 -45t22 -30.5q10 -2 26.5 -3.5t36.5 -1.5h41q-16 23 -43 55.5t-51.5 63.5t-43 53.5t-20.5 22.5q-6 2 -23.5 3t-37 2t-35.5 0t-20 -3q0 -2 -17.5 -26.5t-40 -57.5t-46 -64.5t-38.5 -48.5zM309 543 q0 4 7.5 30.5t18.5 64.5t23.5 82t23.5 82t19.5 64.5t8.5 28.5q10 57 19 139t20 168q2 8 10 12.5t12 -0.5q6 -6 13.5 -1.5t9.5 -2.5q6 -43 12 -77.5t14 -70.5t18.5 -74t22.5 -85q0 -2 6 -27.5t14.5 -63.5t17.5 -81t18.5 -82t14.5 -65.5t7 -30.5q2 -12 0 -18q-4 -6 -10 -5 q-4 2 -16.5 0t-34.5 -12h-59t-73.5 -1t-70.5 -1h-51q-4 4 -7.5 6t-5.5 6q4 4 1 7.5t-3 7.5zM350 557q14 -2 49 -2h75h75t49 -2q-8 29 -20.5 79t-22.5 102t-18.5 96.5t-10.5 56.5q-8 59 -23.5 112.5t-25.5 112.5l-2 -2l-35 -211q-2 -8 -13 -54t-25.5 -102.5t-29 -109.5 t-22.5 -76z" />
<glyph unicode="&#xc3;" horiz-adv-x="952" d="M39 12q0 8 14.5 69.5t39 159t55 217.5t62.5 244.5t62.5 244.5t54 213t39 149.5t15.5 58.5q2 8 0 14q-4 6 4 7q4 0 13.5 -3.5t19.5 -3.5q20 0 45.5 1t48.5 3.5t40 3.5t19 1q4 0 3 -3.5t4 -7.5q2 -2 6 -3t6 -5q2 -14 16.5 -80.5t37 -166t50 -220.5t57 -245.5t58.5 -242.5 t50.5 -211t35.5 -149.5t14 -58.5q2 -6 -4 -12q-2 -2 -24.5 -2t-52 1t-56.5 2t-39 3q-14 4 -14 8q0 10 -11.5 62.5t-24.5 117t-27.5 127t-20.5 90.5q-25 2 -70 2h-94h-91t-56 -2q-2 -14 -11.5 -50t-20.5 -83t-24.5 -97t-25 -92t-19.5 -70l-8 -28q-4 4 -24.5 4.5t-47.5 0.5 q-31 0 -56.5 -1.5t-25.5 -7.5l-14 9q-8 6 -8 32zM76 25l129 6q6 12 19.5 73.5t28.5 132t28.5 128t19.5 61.5q8 -2 55 -1t104.5 3t112 5t76.5 5q6 -25 17.5 -65.5t23.5 -87.5t25.5 -94.5t26 -86t19.5 -64.5t9 -28q16 4 48 4h54q-4 31 -20 99.5t-37.5 163t-49.5 204t-55.5 222 t-54 220t-50 194.5t-39 147.5t-21.5 79.5h-72q-29 0 -51.5 2t-26.5 6q-4 -27 -26.5 -125.5t-55 -234.5t-69.5 -290.5t-71 -294t-60.5 -244t-36.5 -140.5zM233 1493q2 31 8.5 67.5t22 69.5t43 55.5t72.5 22.5q35 -4 66.5 -12t46.5 -33q27 -12 51 -12q12 0 22 4q4 -4 8 -4 q10 0 17.5 13t23.5 50q0 2 15.5 3t36 1h38t23.5 4q4 -66 -14.5 -104.5t-34.5 -67.5q-10 -12 -44 -23t-69 -26q-10 8 -22.5 13.5t-24.5 9.5t-25.5 11t-27.5 21q-29 16 -45 17q-12 0 -23 -4q-4 0 -6 2t-6 2q-10 0 -19.5 -24.5t-19.5 -53.5q-10 2 -25.5 3t-32 0t-32 -3 t-23.5 -2zM272 1528q37 4 47.5 7t20.5 -1q0 20 8 48t45 28l27 4q33 0 49 -31l18 -4q8 -8 30 -18.5t56 -10.5q23 0 34 3t52 20q16 14 19.5 43t3.5 70h-22.5t-22.5 -5q-8 -23 -18.5 -45t-45.5 -26q-23 4 -49 9t-49 21q-35 10 -53.5 22.5t-59.5 18.5q-29 0 -46 -17t-26 -42 t-12.5 -51.5t-5.5 -42.5zM309 543q0 4 7.5 30.5t18.5 64.5t23.5 82t23.5 82t19.5 64.5t8.5 28.5q10 57 19 139t20 168q2 8 10 12.5t12 -0.5q6 -6 13.5 -1.5t9.5 -2.5q6 -43 12 -77.5t14 -70.5t18.5 -74t22.5 -85q0 -2 6 -27.5t14.5 -63.5t17.5 -81t18.5 -82t14.5 -65.5 t7 -30.5q2 -12 0 -18q-4 -6 -10 -5q-4 2 -16.5 0t-34.5 -12h-59t-73.5 -1t-70.5 -1h-51q-4 4 -7.5 6t-5.5 6q4 4 1 7.5t-3 7.5zM350 557q14 -2 49 -2h75h75t49 -2q-8 29 -20.5 79t-22.5 102t-18.5 96.5t-10.5 56.5q-8 59 -23.5 112.5t-25.5 112.5l-2 -2l-35 -211 q-2 -8 -13 -54t-25.5 -102.5t-29 -109.5t-22.5 -76z" />
<glyph unicode="&#xc4;" horiz-adv-x="952" d="M39 12q0 8 14.5 69.5t39 159t55 217.5t62.5 244.5t62.5 244.5t54 213t39 149.5t15.5 58.5q2 8 0 14q-4 6 4 7q4 0 13.5 -3.5t19.5 -3.5q20 0 45.5 1t48.5 3.5t40 3.5t19 1q4 0 3 -3.5t4 -7.5q2 -2 6 -3t6 -5q2 -14 16.5 -80.5t37 -166t50 -220.5t57 -245.5t58.5 -242.5 t50.5 -211t35.5 -149.5t14 -58.5q2 -6 -4 -12q-2 -2 -24.5 -2t-52 1t-56.5 2t-39 3q-14 4 -14 8q0 10 -11.5 62.5t-24.5 117t-27.5 127t-20.5 90.5q-25 2 -70 2h-94h-91t-56 -2q-2 -14 -11.5 -50t-20.5 -83t-24.5 -97t-25 -92t-19.5 -70l-8 -28q-4 4 -24.5 4.5t-47.5 0.5 q-31 0 -56.5 -1.5t-25.5 -7.5l-14 9q-8 6 -8 32zM76 25l129 6q6 12 19.5 73.5t28.5 132t28.5 128t19.5 61.5q8 -2 55 -1t104.5 3t112 5t76.5 5q6 -25 17.5 -65.5t23.5 -87.5t25.5 -94.5t26 -86t19.5 -64.5t9 -28q16 4 48 4h54q-4 31 -20 99.5t-37.5 163t-49.5 204t-55.5 222 t-54 220t-50 194.5t-39 147.5t-21.5 79.5h-72q-29 0 -51.5 2t-26.5 6q-4 -27 -26.5 -125.5t-55 -234.5t-69.5 -290.5t-71 -294t-60.5 -244t-36.5 -140.5zM209 1624q10 43 44 72.5t81 29.5q6 0 19.5 -2t28.5 -10t26.5 -23.5t11.5 -39.5q0 -18 -7 -46t-20.5 -51.5t-35 -37 t-48.5 -5.5q-10 -2 -15 -1t-9 1q-10 0 -15.5 7.5t-15.5 11.5q-16 16 -25.5 42.5t-19.5 51.5zM250 1628q4 -35 9 -45t13 -27q17 9 54 -22q49 23 56 46.5t7 43.5q0 14 -9 28.5t-24 24.5v4q0 10 -12 9.5t-18 5.5q-16 0 -29.5 -9.5t-24.5 -21.5q-10 -8 -13 -19.5t-9 -17.5z M309 543q0 4 7.5 30.5t18.5 64.5t23.5 82t23.5 82t19.5 64.5t8.5 28.5q10 57 19 139t20 168q2 8 10 12.5t12 -0.5q6 -6 13.5 -1.5t9.5 -2.5q6 -43 12 -77.5t14 -70.5t18.5 -74t22.5 -85q0 -2 6 -27.5t14.5 -63.5t17.5 -81t18.5 -82t14.5 -65.5t7 -30.5q2 -12 0 -18 q-4 -6 -10 -5q-4 2 -16.5 0t-34.5 -12h-59t-73.5 -1t-70.5 -1h-51q-4 4 -7.5 6t-5.5 6q4 4 1 7.5t-3 7.5zM350 557q14 -2 49 -2h75h75t49 -2q-8 29 -20.5 79t-22.5 102t-18.5 96.5t-10.5 56.5q-8 59 -23.5 112.5t-25.5 112.5l-2 -2l-35 -211q-2 -8 -13 -54t-25.5 -102.5 t-29 -109.5t-22.5 -76zM543 1575q0 10 1 20.5t7 24.5q-4 4 -4 8v8q0 39 25.5 64.5t76.5 25.5q8 -6 29.5 -8t38.5 -22q23 -16 27 -31.5t10 -50.5q-6 -20 -13.5 -42t-27.5 -26q-4 -14 -13.5 -21t-18.5 -10.5t-17.5 -4.5t-14.5 -3q-20 6 -44.5 12.5t-49.5 14.5q-12 18 -12 41z M573 1602q0 -10 4.5 -20.5t4.5 -25.5q10 -4 24.5 -6t34.5 -16q23 -2 45.5 25.5t26.5 68.5q0 4 2 7t2 7q0 10 -4 19.5t-8 19.5q-16 0 -36 3.5t-32 15.5q-31 0 -47.5 -24.5t-16.5 -33.5q0 -10 5 -14q-4 -10 -4.5 -15t-0.5 -11z" />
<glyph unicode="&#xc5;" horiz-adv-x="952" d="M39 12q0 8 14.5 69.5t39 159t55 217.5t62.5 244.5t62.5 244.5t54 213t39 149.5t15.5 58.5q2 8 0 14q-4 6 4 7q4 0 13.5 -3.5t19.5 -3.5q20 0 45.5 1t48.5 3.5t40 3.5t19 1q4 0 3 -3.5t4 -7.5q2 -2 6 -3t6 -5q2 -14 16.5 -80.5t37 -166t50 -220.5t57 -245.5t58.5 -242.5 t50.5 -211t35.5 -149.5t14 -58.5q2 -6 -4 -12q-2 -2 -24.5 -2t-52 1t-56.5 2t-39 3q-14 4 -14 8q0 10 -11.5 62.5t-24.5 117t-27.5 127t-20.5 90.5q-25 2 -70 2h-94h-91t-56 -2q-2 -14 -11.5 -50t-20.5 -83t-24.5 -97t-25 -92t-19.5 -70l-8 -28q-4 4 -24.5 4.5t-47.5 0.5 q-31 0 -56.5 -1.5t-25.5 -7.5l-14 9q-8 6 -8 32zM76 25l129 6q6 12 19.5 73.5t28.5 132t28.5 128t19.5 61.5q8 -2 55 -1t104.5 3t112 5t76.5 5q6 -25 17.5 -65.5t23.5 -87.5t25.5 -94.5t26 -86t19.5 -64.5t9 -28q16 4 48 4h54q-4 31 -20 99.5t-37.5 163t-49.5 204t-55.5 222 t-54 220t-50 194.5t-39 147.5t-21.5 79.5h-72q-29 0 -51.5 2t-26.5 6q-4 -27 -26.5 -125.5t-55 -234.5t-69.5 -290.5t-71 -294t-60.5 -244t-36.5 -140.5zM250 1626q0 33 13 72t41 71.5t71 52t104 15.5q47 4 86 -22.5t65.5 -63.5t41 -73t14.5 -48q-14 -37 -25.5 -68.5 t-27.5 -52.5q-41 -23 -83 -43t-89 -20q-51 0 -90 23.5t-65.5 54t-41 60.5t-14.5 42zM281 1630q0 -25 13 -53.5t36.5 -51t56.5 -37.5t74 -15q82 14 136 59t58 104q-10 35 -21 68t-28 39q-23 35 -65.5 50.5t-79.5 21.5q-41 -8 -73 -18.5t-48 -47.5q-29 -16 -37 -47t-22 -72z M309 543q0 4 7.5 30.5t18.5 64.5t23.5 82t23.5 82t19.5 64.5t8.5 28.5q10 57 19 139t20 168q2 8 10 12.5t12 -0.5q6 -6 13.5 -1.5t9.5 -2.5q6 -43 12 -77.5t14 -70.5t18.5 -74t22.5 -85q0 -2 6 -27.5t14.5 -63.5t17.5 -81t18.5 -82t14.5 -65.5t7 -30.5q2 -12 0 -18 q-4 -6 -10 -5q-4 2 -16.5 0t-34.5 -12h-59t-73.5 -1t-70.5 -1h-51q-4 4 -7.5 6t-5.5 6q4 4 1 7.5t-3 7.5zM350 557q14 -2 49 -2h75h75t49 -2q-8 29 -20.5 79t-22.5 102t-18.5 96.5t-10.5 56.5q-8 59 -23.5 112.5t-25.5 112.5l-2 -2l-35 -211q-2 -8 -13 -54t-25.5 -102.5 t-29 -109.5t-22.5 -76zM352 1630q0 45 30.5 87t96.5 44q41 -2 70 -29.5t29 -109.5q0 -10 -8.5 -27.5t-24 -35t-36 -29.5t-44.5 -12q-23 8 -40 8t-40 28q-10 14 -21.5 37t-11.5 39zM393 1622q0 -10 8.5 -24.5t24.5 -24.5q-2 -8 4 -13.5t15.5 -8.5t18.5 -4t15 -1q37 0 52.5 33 t15.5 61q0 33 -9.5 51.5t-21.5 28t-23.5 9t-13.5 -2.5q-18 4 -30.5 -4t-22.5 -14q-10 -20 -21.5 -50t-11.5 -36z" />
<glyph unicode="&#xc6;" horiz-adv-x="1218" d="M-18 -4q0 6 17 63.5t45 145.5t63.5 201.5t74.5 232.5t78 236.5t72 217t56.5 170t31.5 97.5q12 35 31 39q20 -2 68 -4t113.5 -5.5t141.5 -4.5t154 -1q20 0 45.5 1t50.5 2.5t45.5 2.5t30.5 1q4 -4 10 -7.5t12 -7.5q-4 -8 -5 -30.5t-2 -47t-2 -46t-1 -25.5q-2 -2 -27.5 -2 t-66.5 -1t-89 -2t-94.5 -1h-83t-53.5 2q4 -25 9.5 -82.5t11.5 -123t10 -127t6 -91.5h226q59 0 89.5 -1t53.5 -5q6 -6 7 -28t1 -46.5t1 -46t5 -27.5q-6 -18 -26 -27h-49.5t-101.5 1.5t-109.5 2.5t-73.5 5q-4 -29 -2 -94.5t5 -138t8 -138.5t7 -96q6 0 37 1t72 1t88 -1t88 -3 t69.5 -4t32.5 -4q4 -6 6 -28t3.5 -47.5t0 -48t-3.5 -30.5q-25 0 -70.5 -2t-102 -3t-118 -1t-116.5 2q-57 0 -99 1t-49 7q0 14 -3 73.5t-8 130t-12 138.5t-13 100l-252 4q-4 -10 -16.5 -44.5t-28 -83t-33 -101.5t-32.5 -100t-25.5 -81t-12.5 -42h-43t-63.5 -1t-59 -1t-30.5 4 zM33 18h112q6 18 18.5 57.5t28 88.5t31 101t28.5 96.5t22.5 75t11.5 34.5q20 6 52 7t73 1l202 -6q0 -10 2 -42t5.5 -77t6.5 -96t7 -98t8 -85t8 -57q20 4 81 5.5t136 1.5h275q6 43 0 90l-393 2q2 23 1 68.5t-5.5 104t-7.5 120t-7 116t-5 93t1 51.5q20 -2 72.5 -2t109 -2 t106.5 -4.5t68 -6.5q-4 20 -6 55t2 52q-23 2 -72 2t-104 -2t-108.5 -3t-83.5 -1q-6 49 -11.5 127t-10.5 154.5t-10 135t-11 68.5q29 0 89 2t124.5 4t123 4t82.5 4q-4 23 -4 53.5t-4 47.5q-18 0 -65 1t-107.5 0t-128 -1t-130 -1t-113 0t-72.5 1q-8 -23 -40 -118t-76 -230.5 t-94 -291t-96 -296.5t-79 -252t-43 -152zM326 582q8 37 25.5 103.5t36 132t35.5 115.5t23 54v6q0 16 9.5 55t19.5 68q4 23 9 47.5t10.5 46t9.5 37t6 21.5q4 4 22 10q10 -4 15.5 -5t11.5 -5q4 -16 7 -50t-3 -55q0 -4 3 -29.5t6 -54t6.5 -54.5t7.5 -32q-4 0 -4 -18.5v-32.5 q0 -41 3 -99.5t7 -115.5t8 -100t6 -49q-61 -12 -129 -13q-51 0 -84 2t-67 15zM356 604h203q-4 25 -6 88.5t-4 131t-3 121.5t-1 61q4 2 2 26.5t-5 54t-6.5 54t-3.5 26.5q-10 -27 -17 -47t-15 -24q0 -4 -3 -19.5t-7.5 -36t-8.5 -40t-8 -29.5q-8 -23 -21.5 -70t-31 -100 t-33.5 -106.5t-31 -90.5z" />
<glyph unicode="&#xc7;" horiz-adv-x="876" d="M47 666q2 201 51 341t127 227t172.5 128t186.5 43q72 -4 128 -17.5t79 -19.5q4 -51 -14.5 -103.5t-26.5 -76.5q-53 29 -77 37t-52 8q-90 0 -150.5 -28.5t-100.5 -75t-61.5 -104.5t-31 -118.5t-11.5 -117t-2 -97.5q-4 -29 -4 -51.5v-42.5q0 -127 35 -219t100 -152 q27 -43 77 -57t112 -18q51 4 99 12t89 8q2 -14 6 -34.5t7 -42t7.5 -41t8.5 -34.5q-51 -14 -103.5 -31.5t-113.5 -21.5l-27 -55q33 -4 58.5 -24.5t43 -45t25.5 -46t8 -27.5q0 -35 -15 -67t-42 -57.5t-61.5 -41t-71.5 -15.5h-31q-41 0 -70.5 10.5t-68.5 39.5q0 2 5 17t11 34.5 t10 39t4 27.5q29 -25 53.5 -34t59.5 -13q16 4 38 12.5t26 38.5q0 12 -18.5 25.5t-43 25t-51.5 19.5t-41 12q4 6 14.5 24.5t21.5 41t21.5 44t14.5 38.5q-199 41 -306.5 214t-103.5 462zM92 692q0 -39 2 -100.5t13.5 -133t36 -146t71.5 -136t119 -105t178 -53.5q-2 -2 -11 -19 t-21.5 -42t-26 -50.5t-19.5 -39.5q43 -6 67.5 -17.5t39 -25.5t19.5 -30.5t9 -33.5q-10 -23 -11 -37t-5 -30q-8 0 -30.5 -5t-28.5 -5l-31 -5q-25 0 -46.5 8.5t-35.5 14.5q-4 -10 -7 -21.5t-7 -19.5q16 -16 43.5 -28.5t52.5 -12.5q23 0 56.5 2t64 15.5t53 42t22.5 81.5 q-10 63 -53 93t-110 38q6 10 16 29t21.5 37t21.5 33.5t14 21.5q115 0 191 35q-4 25 -9.5 53.5t-9.5 42.5q-35 -10 -76.5 -21t-72.5 -16q-39 2 -69.5 11.5t-59.5 22t-55.5 28.5t-57.5 33q-55 61 -91 156.5t-36 230.5q0 25 2 50.5t2 53.5v49q0 135 29 232.5t76 160t105.5 92 t119.5 29.5q68 0 106.5 -3t69.5 -19q6 10 17.5 41t17.5 53q-27 14 -70 29.5t-114 25.5q-92 -14 -177 -44.5t-143 -90.5q-86 -102 -129 -238.5t-43 -316.5z" />
<glyph unicode="&#xc8;" horiz-adv-x="772" d="M96 10q-2 6 2 31q2 18 3 80.5t2 162t2 233.5t4 296v214t-1.5 177t-3.5 119t-6 41q-4 10 4 18q6 8 19 4q49 2 127 3.5t161 2.5t157.5 0t117.5 -1q6 0 7 -7.5t1 -15.5q0 -4 2 -22.5t5 -42t5.5 -46t2.5 -32.5q-4 -10 -12.5 -10.5t-14.5 -0.5t-48 2.5t-97.5 3.5t-114 3 t-96.5 2q-10 0 -16.5 -2t-10.5 -4v-185v-76.5t1 -69.5t3 -55.5t6 -31.5h219h87t40 -4q6 -6 10.5 -23.5t7.5 -37t4 -41t1 -36.5q0 -20 -23 -20h-112q-61 0 -131 -1t-109 -5q0 -43 1 -106.5t1 -131t-2 -130t-8 -105.5q-2 -10 8 -10q6 0 41 1t82 2t98 2t94 1h22.5h29t23.5 -1 t7 -3q6 -4 10.5 -4.5t8.5 -4.5t6 -28.5t2 -53.5q0 -35 -9 -56t-18 -15q-2 2 -19 3t-71.5 1h-157h-270.5h-49q-8 0 -17.5 1t-11.5 5q-4 4 -6 10zM123 1737q6 2 32.5 3t58.5 2t64.5 2t51.5 1q8 -14 33.5 -44t57.5 -66t64.5 -71.5t59.5 -62.5q12 -14 15 -24.5t5 -14.5 q-27 8 -51.5 10.5t-50.5 2.5q-14 0 -29.5 -2.5t-25.5 -6.5q-16 16 -56.5 54.5t-86.5 81.5t-87 80.5t-55 54.5zM135 914.5q0 -105.5 1 -215t2 -216t2 -197.5t2 -161t1 -105q33 2 111 2.5t165 -1t163.5 -2.5t107.5 -3q2 14 2 35t-1 39.5t-3 30.5t-8 12l-303 -4h-71.5t-31.5 4 q-2 16 -4 59.5t-4 100.5t-3 118.5t-3 114t-3 88t-1 37.5q-2 10 23 19q4 2 53 3t110.5 1h117.5h79q-4 20 -4 48t-4 42q-20 2 -77.5 2h-118t-106.5 1t-40 7q-8 4 -12.5 6t-10.5 11q-4 2 -7 46t-4 105.5t-2 127t-1 110.5q0 41 4 53q4 16 10 20q14 6 37 7q8 0 53 -2.5 t101.5 -4.5t113 -6t86.5 -6v50t5 55q-31 0 -105 1t-157 3t-156.5 3t-104.5 1q-2 -29 -3 -93.5t-1 -152.5v-193.5zM188 1710q27 -23 61 -52.5t65.5 -58t59.5 -55.5t42 -41q6 4 25.5 4h43.5q-16 25 -40.5 55.5t-49 59.5t-46 52.5t-32.5 31.5q-27 0 -63.5 2t-65.5 2z" />
<glyph unicode="&#xc9;" horiz-adv-x="772" d="M96 10q-2 6 2 31q2 18 3 80.5t2 162t2 233.5t4 296v214t-1.5 177t-3.5 119t-6 41q-4 10 4 18q6 8 19 4q49 2 127 3.5t161 2.5t157.5 0t117.5 -1q6 0 7 -7.5t1 -15.5q0 -4 2 -22.5t5 -42t5.5 -46t2.5 -32.5q-4 -10 -12.5 -10.5t-14.5 -0.5t-48 2.5t-97.5 3.5t-114 3 t-96.5 2q-10 0 -16.5 -2t-10.5 -4v-185v-76.5t1 -69.5t3 -55.5t6 -31.5h219h87t40 -4q6 -6 10.5 -23.5t7.5 -37t4 -41t1 -36.5q0 -20 -23 -20h-112q-61 0 -131 -1t-109 -5q0 -43 1 -106.5t1 -131t-2 -130t-8 -105.5q-2 -10 8 -10q6 0 41 1t82 2t98 2t94 1h22.5h29t23.5 -1 t7 -3q6 -4 10.5 -4.5t8.5 -4.5t6 -28.5t2 -53.5q0 -35 -9 -56t-18 -15q-2 2 -19 3t-71.5 1h-157h-270.5h-49q-8 0 -17.5 1t-11.5 5q-4 4 -6 10zM135 914.5q0 -105.5 1 -215t2 -216t2 -197.5t2 -161t1 -105q33 2 111 2.5t165 -1t163.5 -2.5t107.5 -3q2 14 2 35t-1 39.5 t-3 30.5t-8 12l-303 -4h-71.5t-31.5 4q-2 16 -4 59.5t-4 100.5t-3 118.5t-3 114t-3 88t-1 37.5q-2 10 23 19q4 2 53 3t110.5 1h117.5h79q-4 20 -4 48t-4 42q-20 2 -77.5 2h-118t-106.5 1t-40 7q-8 4 -12.5 6t-10.5 11q-4 2 -7 46t-4 105.5t-2 127t-1 110.5q0 41 4 53 q4 16 10 20q14 6 37 7q8 0 53 -2.5t101.5 -4.5t113 -6t86.5 -6v50t5 55q-31 0 -105 1t-157 3t-156.5 3t-104.5 1q-2 -29 -3 -93.5t-1 -152.5v-193.5zM283 1479q12 16 43.5 56t67.5 83t67 80t41 49q18 -4 48 -3t59.5 2t52 2t26.5 -1q24 -16 8 -45q-10 -8 -50 -43t-86 -75 t-85 -73.5t-45 -37.5h-34.5t-45 1t-42 2t-25.5 3zM340 1507q16 -4 39 -4h39q18 14 48 41t61.5 56.5t63.5 58.5t52 47q-29 -4 -60.5 -4h-52.5q-4 0 -29.5 -25.5t-58 -59.5t-62.5 -65.5t-40 -44.5z" />
<glyph unicode="&#xca;" horiz-adv-x="772" d="M96 10q-2 6 2 31q2 18 3 80.5t2 162t2 233.5t4 296v214t-1.5 177t-3.5 119t-6 41q-4 10 4 18q6 8 19 4q49 2 127 3.5t161 2.5t157.5 0t117.5 -1q6 0 7 -7.5t1 -15.5q0 -4 2 -22.5t5 -42t5.5 -46t2.5 -32.5q-4 -10 -12.5 -10.5t-14.5 -0.5t-48 2.5t-97.5 3.5t-114 3 t-96.5 2q-10 0 -16.5 -2t-10.5 -4v-185v-76.5t1 -69.5t3 -55.5t6 -31.5h219h87t40 -4q6 -6 10.5 -23.5t7.5 -37t4 -41t1 -36.5q0 -20 -23 -20h-112q-61 0 -131 -1t-109 -5q0 -43 1 -106.5t1 -131t-2 -130t-8 -105.5q-2 -10 8 -10q6 0 41 1t82 2t98 2t94 1h22.5h29t23.5 -1 t7 -3q6 -4 10.5 -4.5t8.5 -4.5t6 -28.5t2 -53.5q0 -35 -9 -56t-18 -15q-2 2 -19 3t-71.5 1h-157h-270.5h-49q-8 0 -17.5 1t-11.5 5q-4 4 -6 10zM135 914.5q0 -105.5 1 -215t2 -216t2 -197.5t2 -161t1 -105q33 2 111 2.5t165 -1t163.5 -2.5t107.5 -3q2 14 2 35t-1 39.5 t-3 30.5t-8 12l-303 -4h-71.5t-31.5 4q-2 16 -4 59.5t-4 100.5t-3 118.5t-3 114t-3 88t-1 37.5q-2 10 23 19q4 2 53 3t110.5 1h117.5h79q-4 20 -4 48t-4 42q-20 2 -77.5 2h-118t-106.5 1t-40 7q-8 4 -12.5 6t-10.5 11q-4 2 -7 46t-4 105.5t-2 127t-1 110.5q0 41 4 53 q4 16 10 20q14 6 37 7q8 0 53 -2.5t101.5 -4.5t113 -6t86.5 -6v50t5 55q-31 0 -105 1t-157 3t-156.5 3t-104.5 1q-2 -29 -3 -93.5t-1 -152.5v-193.5zM143 1491q2 6 29 45t57.5 83t55 81t22.5 39q20 2 33.5 2h58.5h28.5t25.5 2q4 -6 19 -26.5t35.5 -46t43 -54.5t42 -53.5 t33 -41t13.5 -18.5q0 -18 -14 -37q-6 2 -24.5 4.5t-41 5.5t-43 5t-31.5 4q-8 0 -22 -10q0 2 -2 7t-10.5 18t-24.5 40t-45 70q-8 -14 -21.5 -34t-27 -39t-27.5 -36.5t-22 -25.5q-6 4 -26.5 6t-44.5 4t-43 3t-26 3zM178 1511h86q6 0 23.5 21.5t36 47.5t33 46.5t16.5 20.5 q4 4 6 8t6 10l9 -9t5 -9q-2 2 10.5 -15.5t28 -40t30.5 -45t21 -30.5q10 -2 26.5 -3.5t37.5 -1.5h41q-16 23 -43 55.5t-51.5 63.5t-43 53.5t-20.5 22.5q-6 2 -23.5 3t-37 2t-35.5 0t-21 -3q0 -2 -17 -26.5t-39.5 -57.5t-46 -64.5t-38.5 -48.5z" />
<glyph unicode="&#xcb;" horiz-adv-x="772" d="M96 10q-2 6 2 31q2 18 3 80.5t2 162t2 233.5t4 296v214t-1.5 177t-3.5 119t-6 41q-4 10 4 18q6 8 19 4q49 2 127 3.5t161 2.5t157.5 0t117.5 -1q6 0 7 -7.5t1 -15.5q0 -4 2 -22.5t5 -42t5.5 -46t2.5 -32.5q-4 -10 -12.5 -10.5t-14.5 -0.5t-48 2.5t-97.5 3.5t-114 3 t-96.5 2q-10 0 -16.5 -2t-10.5 -4v-185v-76.5t1 -69.5t3 -55.5t6 -31.5h219h87t40 -4q6 -6 10.5 -23.5t7.5 -37t4 -41t1 -36.5q0 -20 -23 -20h-112q-61 0 -131 -1t-109 -5q0 -43 1 -106.5t1 -131t-2 -130t-8 -105.5q-2 -10 8 -10q6 0 41 1t82 2t98 2t94 1h22.5h29t23.5 -1 t7 -3q6 -4 10.5 -4.5t8.5 -4.5t6 -28.5t2 -53.5q0 -35 -9 -56t-18 -15q-2 2 -19 3t-71.5 1h-157h-270.5h-49q-8 0 -17.5 1t-11.5 5q-4 4 -6 10zM119 1624q10 43 44 72.5t81 29.5q6 0 19 -2t28.5 -10t27 -23.5t11.5 -39.5q0 -18 -7.5 -46t-20.5 -51.5t-34.5 -37t-48.5 -5.5 q-10 -2 -15 -1t-9 1q-10 0 -15.5 7.5t-15.5 11.5q-16 16 -25.5 42.5t-19.5 51.5zM135 914.5q0 -105.5 1 -215t2 -216t2 -197.5t2 -161t1 -105q33 2 111 2.5t165 -1t163.5 -2.5t107.5 -3q2 14 2 35t-1 39.5t-3 30.5t-8 12l-303 -4h-71.5t-31.5 4q-2 16 -4 59.5t-4 100.5 t-3 118.5t-3 114t-3 88t-1 37.5q-2 10 23 19q4 2 53 3t110.5 1h117.5h79q-4 20 -4 48t-4 42q-20 2 -77.5 2h-118t-106.5 1t-40 7q-8 4 -12.5 6t-10.5 11q-4 2 -7 46t-4 105.5t-2 127t-1 110.5q0 41 4 53q4 16 10 20q14 6 37 7q8 0 53 -2.5t101.5 -4.5t113 -6t86.5 -6v50 t5 55q-31 0 -105 1t-157 3t-156.5 3t-104.5 1q-2 -29 -3 -93.5t-1 -152.5v-193.5zM160 1628q4 -35 9 -45t13 -27q17 9 54 -22q49 23 56 46.5t7 43.5q0 14 -9 28.5t-24 24.5v4q0 10 -12 9.5t-18 5.5q-16 0 -29.5 -9.5t-24.5 -21.5q-10 -8 -13 -19.5t-9 -17.5zM453 1575 q0 10 1 20.5t7 24.5q-4 4 -4 8v8q0 39 25.5 64.5t76.5 25.5q8 -6 29.5 -8t38.5 -22q23 -16 26.5 -31.5t10.5 -50.5q-6 -20 -13.5 -42t-27.5 -26q-4 -14 -13.5 -21t-18.5 -10.5t-17.5 -4.5t-14.5 -3q-20 6 -45 12.5t-49 14.5q-12 18 -12 41zM483 1602q0 -10 4.5 -20.5 t4.5 -25.5q10 -4 24.5 -6t34.5 -16q23 -2 45 25.5t27 68.5q0 4 2 7t2 7q0 10 -4.5 19.5t-8.5 19.5q-16 0 -35.5 3.5t-31.5 15.5q-31 0 -47.5 -24.5t-16.5 -33.5q0 -10 4 -14q-4 -10 -4 -15v-11z" />
<glyph unicode="&#xcc;" horiz-adv-x="421" d="M-53 1737q6 2 32.5 3t58.5 2t64.5 2t51.5 1q8 -14 33.5 -44t57 -66t64.5 -71.5t60 -62.5q12 -14 15 -24.5t5 -14.5q-27 8 -51.5 10.5t-50.5 2.5q-14 0 -30 -2.5t-26 -6.5q-16 16 -56 54.5t-86 81.5t-87 80.5t-55 54.5zM12 1710q27 -23 60.5 -52.5t65.5 -58t60 -55.5 t42 -41q6 4 25.5 4h43.5q-16 25 -40.5 55.5t-49 59.5t-46 52.5t-32.5 31.5q-27 0 -63.5 2t-65.5 2zM115 -14q6 16 7 55t1 125v215t-1 258t-2 264t-2 234.5t-2 170t-1 68.5q12 4 32.5 7t34.5 3q20 0 45 -2t41 -2q10 0 20.5 -1t14.5 1t9 0t5 -6q-2 -4 -3 -64.5t-2 -157.5 t-2 -220t-1 -251v-251v-220v-156.5v-61.5q0 -6 -16 -6q-4 0 -27.5 -1t-51.5 -2t-52.5 -3t-30.5 -2q-20 0 -16 6zM145 25q6 -2 27 -3.5t44.5 -2.5t43 -2t25.5 -1q-2 39 -2 142.5v237.5t1 284.5t2 286t2 239t3 144.5q-10 -2 -31.5 -2t-44 1t-42 2t-28.5 3q2 -37 3.5 -137.5 t1.5 -232.5v-282.5t-1.5 -285.5t-2.5 -240.5t-1 -150.5z" />
<glyph unicode="&#xcd;" horiz-adv-x="421" d="M106 1479q12 16 44 56t68 83t66.5 80t41.5 49q18 -4 47.5 -3t59.5 2t52.5 2t26.5 -1q24 -16 8 -45q-10 -8 -50 -43t-86 -75t-85 -73.5t-45 -37.5h-34.5t-45 1t-42 2t-26.5 3zM115 -14q6 16 7 55t1 125v215t-1 258t-2 264t-2 234.5t-2 170t-1 68.5q12 4 32.5 7t34.5 3 q20 0 45 -2t41 -2q10 0 20.5 -1t14.5 1t9 0t5 -6q-2 -4 -3 -64.5t-2 -157.5t-2 -220t-1 -251v-251v-220v-156.5v-61.5q0 -6 -16 -6q-4 0 -27.5 -1t-51.5 -2t-52.5 -3t-30.5 -2q-20 0 -16 6zM145 25q6 -2 27 -3.5t44.5 -2.5t43 -2t25.5 -1q-2 39 -2 142.5v237.5t1 284.5 t2 286t2 239t3 144.5q-10 -2 -31.5 -2t-44 1t-42 2t-28.5 3q2 -37 3.5 -137.5t1.5 -232.5v-282.5t-1.5 -285.5t-2.5 -240.5t-1 -150.5zM164 1507q16 -4 39 -4h39q18 14 47.5 41t61.5 56.5t63.5 58.5t52.5 47q-29 -4 -60.5 -4h-52.5q-4 0 -29.5 -25.5t-58.5 -59.5 t-62.5 -65.5t-39.5 -44.5z" />
<glyph unicode="&#xce;" horiz-adv-x="421" d="M-33 1491q2 6 29 45t57.5 83t55 81t22.5 39q20 2 33.5 2h58.5h28.5t24.5 2q4 -6 19.5 -26.5t36 -46t43 -54.5t42 -53.5t33 -41t13.5 -18.5q0 -18 -14 -37q-6 2 -24.5 4.5t-41.5 5.5t-43.5 5t-30.5 4q-8 0 -22 -10q0 2 -2 7t-10.5 18t-25 40t-44.5 70q-8 -14 -21.5 -34 t-27 -39t-27.5 -36.5t-23 -25.5q-6 4 -26.5 6t-44 4t-43 3t-25.5 3zM2 1511h86q6 0 23.5 21.5t36 47.5t33 46.5t16.5 20.5q4 4 6 8t6 10l9 -9t5 -9q-2 2 10.5 -15.5t27.5 -40t30.5 -45t21.5 -30.5q10 -2 26.5 -3.5t37.5 -1.5h41q-16 23 -43 55.5t-51.5 63.5t-43 53.5 t-20.5 22.5q-6 2 -23.5 3t-37 2t-36 0t-20.5 -3q0 -2 -17 -26.5t-40 -57.5t-46.5 -64.5t-37.5 -48.5zM115 -14q6 16 7 55t1 125v215t-1 258t-2 264t-2 234.5t-2 170t-1 68.5q12 4 32.5 7t34.5 3q20 0 45 -2t41 -2q10 0 20.5 -1t14.5 1t9 0t5 -6q-2 -4 -3 -64.5t-2 -157.5 t-2 -220t-1 -251v-251v-220v-156.5v-61.5q0 -6 -16 -6q-4 0 -27.5 -1t-51.5 -2t-52.5 -3t-30.5 -2q-20 0 -16 6zM145 25q6 -2 27 -3.5t44.5 -2.5t43 -2t25.5 -1q-2 39 -2 142.5v237.5t1 284.5t2 286t2 239t3 144.5q-10 -2 -31.5 -2t-44 1t-42 2t-28.5 3q2 -37 3.5 -137.5 t1.5 -232.5v-282.5t-1.5 -285.5t-2.5 -240.5t-1 -150.5z" />
<glyph unicode="&#xcf;" horiz-adv-x="421" d="M-57 1624q10 43 43.5 72.5t81.5 29.5q6 0 19 -2t28.5 -10t27 -23.5t11.5 -39.5q0 -18 -7.5 -46t-20.5 -51.5t-34.5 -37t-48.5 -5.5q-10 -2 -15 -1t-10 1q-10 0 -15 7.5t-15 11.5q-16 16 -25.5 42.5t-19.5 51.5zM-16 1628q4 -35 9 -45t13 -27q16 9 53 -22q49 23 56.5 46.5 t7.5 43.5q0 14 -9.5 28.5t-23.5 24.5v4q0 10 -12 9.5t-19 5.5q-16 0 -29.5 -9.5t-23.5 -21.5q-10 -8 -13 -19.5t-9 -17.5zM115 -14q6 16 7 55t1 125v215t-1 258t-2 264t-2 234.5t-2 170t-1 68.5q12 4 32.5 7t34.5 3q20 0 45 -2t41 -2q10 0 20.5 -1t14.5 1t9 0t5 -6 q-2 -4 -3 -64.5t-2 -157.5t-2 -220t-1 -251v-251v-220v-156.5v-61.5q0 -6 -16 -6q-4 0 -27.5 -1t-51.5 -2t-52.5 -3t-30.5 -2q-20 0 -16 6zM145 25q6 -2 27 -3.5t44.5 -2.5t43 -2t25.5 -1q-2 39 -2 142.5v237.5t1 284.5t2 286t2 239t3 144.5q-10 -2 -31.5 -2t-44 1t-42 2 t-28.5 3q2 -37 3.5 -137.5t1.5 -232.5v-282.5t-1.5 -285.5t-2.5 -240.5t-1 -150.5zM276 1575q0 10 1.5 20.5t7.5 24.5q-4 4 -4 8v8q0 39 25.5 64.5t76.5 25.5q8 -6 29.5 -8t38.5 -22q23 -16 26.5 -31.5t9.5 -50.5q-6 -20 -13 -42t-28 -26q-4 -14 -13 -21t-18 -10.5 t-17.5 -4.5t-14.5 -3q-20 6 -45 12.5t-49 14.5q-12 18 -13 41zM307 1602q0 -10 4 -20.5t4 -25.5q10 -4 25 -6t35 -16q23 -2 45 25.5t26 68.5q0 4 2.5 7t2.5 7q0 10 -4.5 19.5t-8.5 19.5q-16 0 -35.5 3.5t-31.5 15.5q-31 0 -47.5 -24.5t-16.5 -33.5q0 -10 4 -14 q-4 -10 -4 -15v-11z" />
<glyph unicode="&#xd0;" horiz-adv-x="1001" d="M-9 715q-1 45 7 86q31 -2 68.5 -2t60.5 -8q0 12 -1 57t-1 106.5v130v127t-1 100.5t-1 48q57 20 130 27.5t140 17.5q119 -6 205 -35t164 -82q63 -74 100 -140.5t54.5 -138t21.5 -154.5t4 -189q-4 -180 -43 -311.5t-127 -207.5q-66 -78 -174.5 -129t-253.5 -51 q-6 0 -28.5 3t-53.5 7.5t-64.5 11.5t-60.5 15v635q-8 -2 -27.5 -4t-41 -3t-42 -1h-30.5q-4 39 -5 84zM18 672q12 2 32 1t41.5 -3t40 -3t28.5 -1q2 -20 4 -36t3 -35.5t1 -50v-81.5q0 -27 -1 -94.5t-1 -141v-133t2 -71.5q59 -4 116.5 -9.5t112.5 -1.5q104 6 199.5 49 t157.5 101q78 78 116.5 225.5t34.5 337.5q8 186 -42 324.5t-136 201.5q-41 41 -111.5 73t-158.5 32q-35 0 -76 -1t-83 -4t-78 -7.5t-56 -10.5q0 -18 1 -65t1 -108.5t-1 -130t-2 -126t-1 -98.5t-2 -49q-6 -2 -22.5 -3t-38 -1h-44h-37.5v-80zM281 768q0 2 1 38t3 88t3 113.5 t1 114.5t-1 89t-7 40q25 10 61.5 11.5t58.5 -5.5q84 6 138.5 -14t115.5 -67q57 -74 94.5 -186.5t41.5 -268.5q-14 -178 -47 -309t-121 -209q-23 -33 -50.5 -50.5t-66.5 -26.5t-89 -11t-118 -2q0 23 -1 71.5t-3 110t-4 127t-3 120t-3 89.5l-2 35q16 4 41.5 7t54.5 3l141 -4 q-4 20 -4 48t8 42q-12 2 -50 3t-80 1t-75.5 1t-37.5 1zM317 139q12 0 27.5 2t30.5 13q172 -14 266 122t94 386q0 84 -2 149.5t-12 120.5t-31.5 107.5t-62.5 109.5q-47 43 -100.5 68.5t-110.5 25.5q-23 -4 -43 -8q-16 -4 -32.5 -8t-23.5 -6q2 -33 4.5 -93.5t4.5 -125t3 -123 t1 -86.5q23 -2 58.5 -1t72.5 2t66.5 1t37.5 -2q-2 -8 -4 -30t-4 -46.5t-4 -44t-2 -23.5q-25 0 -55.5 -3t-62.5 -5t-62.5 -4t-53.5 2v-500z" />
<glyph unicode="&#xd1;" horiz-adv-x="1017" d="M109 184.5q0 98.5 1 216t2 248.5t3 261t3 253t3 228q6 0 29.5 1t52 2t52.5 3t30 6q2 -4 11 -13.5t17 -19.5q25 -57 61 -144t73.5 -178.5t72.5 -175.5t58 -133q49 -113 91 -212t70 -185h2q-6 66 -10 129.5t-6 128t-2 133v146.5q-2 -2 -3 18.5t-1 54v76.5v90q0 49 1 96.5 t2 84t2 59t3 22.5q2 2 27.5 3t56.5 4.5t59.5 7.5t34.5 10q0 -2 1 -62.5t1 -156.5v-220v-254t-1 -255t-4 -226.5t-6 -168t-9 -76.5q-12 2 -39 4t-56.5 4t-53 3t-25.5 3q-55 121 -99.5 218t-78 177t-58.5 148t-43 129q-45 66 -82 156t-69 182h-4q4 -53 8 -107.5t7 -118 t3 -136.5t-2 -161q-2 -29 -3 -70.5t-1 -88.5t-1 -94.5t-3 -86.5q4 -147 -13 -163q-31 4 -71.5 8t-59.5 4q-12 4 -20 8t-12 14q-2 68 -2 166.5zM141 1356q0 -41 1 -146.5t1 -240.5v-287t1 -285t4.5 -233.5t7.5 -132.5q27 -4 60.5 -4t45.5 -4q0 16 -2 56t-2 105q0 51 1 105.5 t2 100.5t3 75t4 27q-4 223 -8 379.5t-10 279.5q23 0 31 -10q20 -59 55 -150.5t77 -197t88 -218t88 -215t76.5 -187.5t57.5 -136q14 0 55 -5t76 -5q0 23 1 86t2 153t3 198.5t4 222.5t3 223.5t2 201.5t1 158.5v95.5h-125q4 -37 7.5 -91t5.5 -118.5t4 -136.5t2 -141 q0 -25 1 -74t1 -110.5t2 -129t2 -128t1 -107.5t1 -68q-2 -12 -5 -24.5t-7 -16.5t-14.5 2t-14.5 17q-27 104 -76 224t-116 265l-267 627q-6 0 -25.5 1t-40 1h-40t-25.5 -2zM266 1493q2 31 8.5 67.5t21.5 69.5t43 55.5t73 22.5q35 -4 66.5 -12t45.5 -33q27 -12 51 -12 q12 0 23 4q4 -4 8 -4q10 0 17.5 13t23.5 50q0 2 15.5 3t36 1h38t23.5 4q4 -66 -14.5 -104.5t-34.5 -67.5q-10 -12 -44 -23t-69 -26q-10 8 -22.5 13.5t-24.5 9.5t-25.5 11t-27.5 21q-29 16 -45 17q-12 0 -23 -4q-4 0 -6 2t-6 2q-10 0 -19.5 -24.5t-19.5 -53.5q-10 2 -25.5 3 t-32 0t-32 -3t-23.5 -2zM305 1528q37 4 47 7t21 -1q0 20 8 48t45 28l27 4q33 0 49 -31l18 -4q8 -8 29.5 -18.5t56.5 -10.5q23 0 34 3t52 20q16 14 19.5 43t3.5 70h-22.5t-22.5 -5q-8 -23 -18.5 -45t-45.5 -26q-23 4 -49.5 9t-48.5 21q-35 10 -53.5 22.5t-59.5 18.5 q-29 0 -46 -17t-26.5 -42t-12.5 -51.5t-5 -42.5z" />
<glyph unicode="&#xd2;" horiz-adv-x="995" d="M45 639q0 223 45 372.5t112.5 239.5t147.5 128t152 38q80 -4 137 -34.5t123 -77.5q63 -55 97 -127t49.5 -156t18.5 -180.5t3 -202.5q0 -186 -46 -328.5t-122 -234.5q-66 -47 -127.5 -71.5t-138.5 -29.5h-50q-57 0 -111 30t-95 83q-86 78 -140.5 224.5t-54.5 326.5z M86 768l4 -102q0 -129 22.5 -247t70.5 -208t122 -145.5t178 -57.5q207 4 310.5 182.5t107.5 524.5q0 123 -20.5 240.5t-66.5 212t-123 151.5t-189 57q-119 -2 -199 -63.5t-128 -153.5t-68.5 -197.5t-20.5 -193.5zM217 696q2 47 4 116t14.5 140.5t40 141t80.5 120.5 q14 20 27.5 31.5t31 17t40 6.5t55.5 1q70 0 120 -48t82.5 -129t48 -185.5t15.5 -215.5q-6 -41 -12 -108.5t-21.5 -143t-43 -149.5t-76.5 -125q-20 -29 -57 -35t-60 -10q-10 -2 -15.5 -1t-17.5 1q-35 0 -65.5 17.5t-55.5 39.5q-47 45 -73.5 117t-41 146.5t-17.5 143t-3 111.5 zM233 1757q6 2 33 3t58.5 2t64.5 2t51 1q8 -14 34 -43.5t57.5 -65.5t64.5 -72t59 -62q12 -14 15.5 -24.5t5.5 -14.5q-27 8 -51.5 10t-51.5 2q-14 0 -29.5 -2t-25.5 -6q-16 16 -56 54t-86 81t-87 81t-56 54zM244 678q0 -176 35.5 -300t87.5 -183q29 -8 62.5 -28t62.5 -20 q57 0 104 43t80 119t50 176.5t17 214.5q0 37 -4 91.5t-14 114t-27.5 118.5t-42 106.5t-59.5 77t-78 29.5l-35 -4q-23 0 -62.5 -14.5t-79.5 -70.5t-68.5 -167t-28.5 -303zM299 1731q27 -23 60.5 -52.5t65.5 -58.5t59.5 -55.5t41.5 -40.5q6 4 25.5 4h44.5q-16 25 -41 55.5 t-49.5 59t-46 52t-31.5 31.5q-27 0 -63.5 2.5t-65.5 2.5z" />
<glyph unicode="&#xd3;" horiz-adv-x="995" d="M45 639q0 223 45 372.5t112.5 239.5t147.5 128t152 38q80 -4 137 -34.5t123 -77.5q63 -55 97 -127t49.5 -156t18.5 -180.5t3 -202.5q0 -186 -46 -328.5t-122 -234.5q-66 -47 -127.5 -71.5t-138.5 -29.5h-50q-57 0 -111 30t-95 83q-86 78 -140.5 224.5t-54.5 326.5z M86 768l4 -102q0 -129 22.5 -247t70.5 -208t122 -145.5t178 -57.5q207 4 310.5 182.5t107.5 524.5q0 123 -20.5 240.5t-66.5 212t-123 151.5t-189 57q-119 -2 -199 -63.5t-128 -153.5t-68.5 -197.5t-20.5 -193.5zM217 696q2 47 4 116t14.5 140.5t40 141t80.5 120.5 q14 20 27.5 31.5t31 17t40 6.5t55.5 1q70 0 120 -48t82.5 -129t48 -185.5t15.5 -215.5q-6 -41 -12 -108.5t-21.5 -143t-43 -149.5t-76.5 -125q-20 -29 -57 -35t-60 -10q-10 -2 -15.5 -1t-17.5 1q-35 0 -65.5 17.5t-55.5 39.5q-47 45 -73.5 117t-41 146.5t-17.5 143t-3 111.5 zM244 678q0 -176 35.5 -300t87.5 -183q29 -8 62.5 -28t62.5 -20q57 0 104 43t80 119t50 176.5t17 214.5q0 37 -4 91.5t-14 114t-27.5 118.5t-42 106.5t-59.5 77t-78 29.5l-35 -4q-23 0 -62.5 -14.5t-79.5 -70.5t-68.5 -167t-28.5 -303zM393 1499q12 16 44 56t68 83t66.5 80 t40.5 49q18 -4 48 -3l60 2t52.5 2t26.5 -1q24 -16 8 -45q-10 -8 -50 -42.5t-86 -74.5t-85 -74t-45 -38h-35t-45.5 1t-42 2t-25.5 3zM451 1528q16 -4 38.5 -4h38.5q18 14 48 40.5t62 56.5t63.5 58.5t52.5 46.5q-29 -4 -60.5 -4h-52.5q-4 0 -29.5 -25.5t-58.5 -59t-62.5 -65.5 t-39.5 -44z" />
<glyph unicode="&#xd4;" horiz-adv-x="995" d="M45 639q0 223 45 372.5t112.5 239.5t147.5 128t152 38q80 -4 137 -34.5t123 -77.5q63 -55 97 -127t49.5 -156t18.5 -180.5t3 -202.5q0 -186 -46 -328.5t-122 -234.5q-66 -47 -127.5 -71.5t-138.5 -29.5h-50q-57 0 -111 30t-95 83q-86 78 -140.5 224.5t-54.5 326.5z M86 768l4 -102q0 -129 22.5 -247t70.5 -208t122 -145.5t178 -57.5q207 4 310.5 182.5t107.5 524.5q0 123 -20.5 240.5t-66.5 212t-123 151.5t-189 57q-119 -2 -199 -63.5t-128 -153.5t-68.5 -197.5t-20.5 -193.5zM217 696q2 47 4 116t14.5 140.5t40 141t80.5 120.5 q14 20 27.5 31.5t31 17t40 6.5t55.5 1q70 0 120 -48t82.5 -129t48 -185.5t15.5 -215.5q-6 -41 -12 -108.5t-21.5 -143t-43 -149.5t-76.5 -125q-20 -29 -57 -35t-60 -10q-10 -2 -15.5 -1t-17.5 1q-35 0 -65.5 17.5t-55.5 39.5q-47 45 -73.5 117t-41 146.5t-17.5 143t-3 111.5 zM244 678q0 -176 35.5 -300t87.5 -183q29 -8 62.5 -28t62.5 -20q57 0 104 43t80 119t50 176.5t17 214.5q0 37 -4 91.5t-14 114t-27.5 118.5t-42 106.5t-59.5 77t-78 29.5l-35 -4q-23 0 -62.5 -14.5t-79.5 -70.5t-68.5 -167t-28.5 -303zM254 1491q2 6 28.5 45t57.5 83 t55.5 81t22.5 39q20 2 33.5 2h58.5h28.5t24.5 2q4 -6 19.5 -26.5t36 -46t43 -54.5t42 -53.5t33 -41t13.5 -18.5q0 -18 -15 -37q-6 2 -24.5 4.5t-41 5.5t-43 5t-30.5 4q-9 0 -23 -10q0 2 -2 7t-10 18t-24.5 40t-44.5 70q-8 -14 -21.5 -34t-27 -39t-28 -36.5t-22.5 -25.5 q-6 4 -26.5 6t-44 4t-43 3t-25.5 3zM289 1511h86q6 0 23.5 21.5t36 47.5t32.5 46.5t16 20.5q4 4 6.5 8t6.5 10l9 -9t5 -9q-2 2 10 -15.5t27.5 -40l31 -45t21.5 -30.5q10 -2 26.5 -3.5t37.5 -1.5h41q-16 23 -43 55.5t-51.5 63.5t-43 53.5t-20.5 22.5q-6 2 -23.5 3t-37 2 t-36 0t-20.5 -3q0 -2 -17.5 -26.5t-40 -57.5t-46 -64.5t-37.5 -48.5z" />
<glyph unicode="&#xd5;" horiz-adv-x="995" d="M45 639q0 223 45 372.5t112.5 239.5t147.5 128t152 38q80 -4 137 -34.5t123 -77.5q63 -55 97 -127t49.5 -156t18.5 -180.5t3 -202.5q0 -186 -46 -328.5t-122 -234.5q-66 -47 -127.5 -71.5t-138.5 -29.5h-50q-57 0 -111 30t-95 83q-86 78 -140.5 224.5t-54.5 326.5z M86 768l4 -102q0 -129 22.5 -247t70.5 -208t122 -145.5t178 -57.5q207 4 310.5 182.5t107.5 524.5q0 123 -20.5 240.5t-66.5 212t-123 151.5t-189 57q-119 -2 -199 -63.5t-128 -153.5t-68.5 -197.5t-20.5 -193.5zM217 696q2 47 4 116t14.5 140.5t40 141t80.5 120.5 q14 20 27.5 31.5t31 17t40 6.5t55.5 1q70 0 120 -48t82.5 -129t48 -185.5t15.5 -215.5q-6 -41 -12 -108.5t-21.5 -143t-43 -149.5t-76.5 -125q-20 -29 -57 -35t-60 -10q-10 -2 -15.5 -1t-17.5 1q-35 0 -65.5 17.5t-55.5 39.5q-47 45 -73.5 117t-41 146.5t-17.5 143t-3 111.5 zM244 678q0 -176 35.5 -300t87.5 -183q29 -8 62.5 -28t62.5 -20q57 0 104 43t80 119t50 176.5t17 214.5q0 37 -4 91.5t-14 114t-27.5 118.5t-42 106.5t-59.5 77t-78 29.5l-35 -4q-23 0 -62.5 -14.5t-79.5 -70.5t-68.5 -167t-28.5 -303zM254 1493q2 31 8 67.5t21.5 69.5 t43 55.5t72.5 22.5q35 -4 67 -12t46 -33q27 -12 51 -12q12 0 23 4q4 -4 8 -4q10 0 17 13t24 50q0 2 15.5 3t36 1h37.5t24 4q4 -66 -14.5 -104.5t-35.5 -67.5q-10 -12 -43.5 -23t-68.5 -26q-10 8 -22.5 13.5t-25 9.5t-25.5 11t-28 21q-29 16 -45 17q-12 0 -22 -4q-4 0 -6 2 t-6 2q-10 0 -19.5 -24.5t-19.5 -53.5q-10 2 -25.5 3t-32 0t-32 -3t-23.5 -2zM293 1528q37 4 47 7t20 -1q0 20 8.5 48t45.5 28l26 4q33 0 49 -31l19 -4q8 -8 29.5 -18.5t56.5 -10.5q23 0 34 3t52 20q16 14 19 43t3 70h-22t-23 -5q-8 -23 -18 -45t-45 -26q-23 4 -49.5 9 t-48.5 21q-35 10 -53.5 22.5t-59.5 18.5q-29 0 -46.5 -17t-26.5 -42t-12 -51.5t-5 -42.5z" />
<glyph unicode="&#xd6;" horiz-adv-x="995" d="M45 639q0 223 45 372.5t112.5 239.5t147.5 128t152 38q80 -4 137 -34.5t123 -77.5q63 -55 97 -127t49.5 -156t18.5 -180.5t3 -202.5q0 -186 -46 -328.5t-122 -234.5q-66 -47 -127.5 -71.5t-138.5 -29.5h-50q-57 0 -111 30t-95 83q-86 78 -140.5 224.5t-54.5 326.5z M86 768l4 -102q0 -129 22.5 -247t70.5 -208t122 -145.5t178 -57.5q207 4 310.5 182.5t107.5 524.5q0 123 -20.5 240.5t-66.5 212t-123 151.5t-189 57q-119 -2 -199 -63.5t-128 -153.5t-68.5 -197.5t-20.5 -193.5zM217 696q2 47 4 116t14.5 140.5t40 141t80.5 120.5 q14 20 27.5 31.5t31 17t40 6.5t55.5 1q70 0 120 -48t82.5 -129t48 -185.5t15.5 -215.5q-6 -41 -12 -108.5t-21.5 -143t-43 -149.5t-76.5 -125q-20 -29 -57 -35t-60 -10q-10 -2 -15.5 -1t-17.5 1q-35 0 -65.5 17.5t-55.5 39.5q-47 45 -73.5 117t-41 146.5t-17.5 143t-3 111.5 zM229 1624q10 43 44 72.5t81 29.5q6 0 19.5 -2t29 -10t26.5 -23.5t11 -39.5q0 -18 -7 -46t-20.5 -51.5t-34.5 -37t-48 -5.5q-10 -2 -15.5 -1t-9.5 1q-10 0 -15 7.5t-16 11.5q-16 16 -25 42.5t-20 51.5zM244 678q0 -176 35.5 -300t87.5 -183q29 -8 62.5 -28t62.5 -20 q57 0 104 43t80 119t50 176.5t17 214.5q0 37 -4 91.5t-14 114t-27.5 118.5t-42 106.5t-59.5 77t-78 29.5l-35 -4q-23 0 -62.5 -14.5t-79.5 -70.5t-68.5 -167t-28.5 -303zM270 1628q4 -35 9.5 -45t13.5 -27q16 9 53 -22q49 23 56.5 46.5t7.5 43.5q0 14 -9.5 28.5t-23.5 24.5 v4q0 10 -12.5 9.5t-18.5 5.5q-16 0 -29.5 -9.5t-23.5 -21.5q-10 -8 -13.5 -19.5t-9.5 -17.5zM563 1575q0 10 1 20.5t7 24.5q-4 4 -4 8v8q0 39 25.5 64.5t77.5 25.5q8 -6 29.5 -8t37.5 -22q23 -16 27 -31.5t10 -50.5q-6 -20 -13 -42t-28 -26q-4 -14 -13 -21t-18.5 -10.5 t-17.5 -4.5t-14 -3q-20 6 -45 12.5t-50 14.5q-12 18 -12 41zM594 1602q0 -10 4 -20.5t4 -25.5q10 -4 25 -6t35 -16q23 -2 45 25.5t26 68.5q0 4 2 7t2 7q0 10 -4 19.5t-8 19.5q-16 0 -35.5 3.5t-32.5 15.5q-31 0 -47 -24.5t-16 -33.5q0 -10 4 -14q-4 -10 -4 -15v-11z" />
<glyph unicode="&#xd7;" horiz-adv-x="1220" d="M61 989q6 8 18.5 21.5t27 28t29 27.5t24.5 24q6 -4 38.5 -37t80 -80t100.5 -101.5t100 -102.5t82 -83t45 -43q14 12 53 51t88.5 88t103.5 104.5t99 100.5l76 76l31 31q16 -25 48 -55.5t46 -45.5q2 -2 -27.5 -32.5t-77 -78.5t-103.5 -103.5t-107.5 -105.5t-90 -88 t-49.5 -46q12 -12 51 -48t88.5 -83.5t103.5 -100.5t100 -99t77 -80t35 -44q-4 -2 -18.5 -15.5t-32 -31t-32.5 -34.5t-21 -26q0 2 -28 32t-71 75t-95 99.5t-101.5 104.5t-87 91t-54.5 61q-23 -23 -62.5 -63.5t-88.5 -89.5l-100.5 -100.5l-94.5 -94.5t-70.5 -71.5t-29.5 -30.5 q-8 0 -21.5 13t-29 31.5t-27.5 34t-16 19.5q4 8 32.5 39t69.5 73t89 91t94 96t84 88t59 64q-6 6 -57.5 59t-121 124t-141.5 144.5t-117 122.5zM98 991q47 -39 112.5 -103.5t131.5 -132t121 -127t80 -85.5q-2 -2 -31 -33t-72 -77t-95 -101.5t-101 -106.5t-88 -90t-56 -51 q14 -10 36 -28.5t28 -24.5q20 20 61 60t88 89t97.5 102.5t92.5 97.5t70.5 73.5t32.5 33.5q6 -6 40 -40.5t81 -84t101.5 -105.5t102.5 -105.5t84 -83t46 -37.5q12 12 24.5 26.5t20.5 26.5q2 0 -30 35t-81 85t-107.5 109.5t-108.5 109.5t-83 85l-34 35q8 6 43.5 42t85 85 t104.5 104t102 103.5t78 79t31 32.5l12 -8q2 -2 -5 5l-18.5 18.5t-24.5 22.5t-23 17q-20 -23 -57.5 -62.5t-83.5 -87.5t-96 -97t-93 -91t-77 -72t-46 -36q-12 16 -45 51t-77 79l-93 93t-95 93t-82 79t-52 51q-16 -14 -25.5 -25t-26.5 -28z" />
<glyph unicode="&#xd8;" horiz-adv-x="995" d="M59 614v78q0 164 30 295t85 224.5t135 144.5t183 57q72 -10 126 -32.5t105 -57.5l68 147q2 2 19 -6t37.5 -18t39 -20.5t24.5 -12.5q-8 -16 -21 -46t-27.5 -60.5t-28 -55t-21.5 -30.5q66 -92 98.5 -233.5t36.5 -301.5q-10 -213 -52 -364.5t-146 -260.5 q-41 -45 -104.5 -65.5t-135.5 -20.5t-126 16.5t-122 63.5q-4 -8 -14 -32.5t-22.5 -51t-22.5 -50t-13 -30.5q-4 4 -19 15.5t-33.5 26t-35 29.5t-24.5 26q-2 2 10 23.5t27.5 49t31 54t19.5 37.5q-45 80 -76 196.5t-31 265.5zM92 754q0 -209 31 -349.5t78 -240.5 q0 -8 -10.5 -34t-23.5 -55.5t-27.5 -58t-20.5 -41.5l63 -32q2 14 11.5 36.5t20.5 44t23.5 41t22.5 29.5q33 -33 66.5 -51t65.5 -27.5t59.5 -12.5t46.5 -5q94 2 169.5 52t130 140.5t83 220.5t30.5 294q-10 143 -35.5 271t-99.5 241q8 4 20.5 22t27 43t26.5 49.5t20 40.5 q-4 6 -27.5 18.5t-39.5 22.5q-8 -16 -19.5 -36.5t-21.5 -42t-19.5 -39t-11.5 -25.5q-53 39 -100 63.5t-94 24.5q-152 0 -241 -64.5t-134 -158t-57.5 -197.5t-12.5 -184zM209 610q0 193 24.5 318t67.5 197.5t101.5 101t125.5 28.5q47 0 83 -22.5t67 -58.5q-31 -61 -67 -140.5 t-72.5 -162.5t-73.5 -166.5t-68.5 -155.5t-56.5 -128t-37 -85q-10 -16 -24 -29q-16 8 -29 33q-23 66 -32 129t-9 141zM254 622q0 -49 2 -88.5t7 -75.5t13 -73l369 770q-23 31 -60.5 47.5t-78.5 16.5q-47 0 -76 -12.5t-51 -28.5q-53 -53 -89 -171t-36 -270v-115zM293 213 q4 4 35.5 65.5t76 149.5t94.5 191.5t93 192.5t71.5 151.5t26.5 70.5q2 6 11.5 11.5t13.5 7.5q4 0 6 -11.5t6 -21.5q27 -66 34 -139.5t7 -135.5q0 -53 -2 -131.5t-14.5 -161.5t-39 -159t-75.5 -125q-37 -29 -69.5 -48.5t-84.5 -23.5q-45 10 -91 37t-99 80zM338 225 q23 -35 59.5 -61.5t89.5 -26.5h19q70 -2 114 45t70.5 125t39.5 179.5t20 209.5q-10 57 -14.5 127t-30.5 156q-16 -39 -50 -108.5t-74 -152.5t-83 -169t-78 -158t-58.5 -118t-23.5 -48z" />
<glyph unicode="&#xd9;" horiz-adv-x="1001" d="M109 1384q12 0 49 2.5t71 2.5q14 0 43 -1.5t47 -11.5q0 -8 -1 -76.5t-2 -169t-3 -215t-3 -214t-3 -166t-2 -70.5q6 -43 14.5 -98.5t27 -103.5t51 -80.5t87.5 -32.5q113 0 162 77.5t60 255.5q-4 6 -6.5 51.5t-2.5 113v152.5v171v149.5t1 129t1 96v49.5q25 -4 44.5 -4 t50.5 2q39 0 69.5 3t26.5 1l4 -490v-150.5v-127v-93v-49.5q6 -154 -36 -255t-105.5 -161.5t-136 -85t-128.5 -24.5q-74 14 -136 35.5t-97 73.5q-66 53 -106.5 164.5t-32.5 252.5q4 23 4 116v233q0 92 -1 187t-3 173t-4 130t-4 58zM143 471q-2 -109 25 -196t73 -148 t107.5 -95t128.5 -34q115 -4 189.5 39t118.5 114.5t61.5 161.5t17.5 183q0 8 -1 66.5t-1 144.5t-1 187t-1 194.5t1 166t3 103.5q-20 4 -63 3t-72 -7q4 -14 4 -52v-98q0 -63 -1 -141t-2 -160t-2 -159.5t-2 -138t-3 -99.5t-2 -41q0 -31 -1 -71t-9.5 -80t-25.5 -77.5t-50 -64.5 q-10 -29 -43 -48.5t-84 -19.5q-20 0 -35.5 2.5t-33 9.5t-38 19t-51.5 33q-27 45 -53.5 124t-30.5 185q0 16 6.5 106.5t6.5 225.5l-5 545q-37 4 -70.5 5t-56.5 3q2 -2 3.5 -56.5t1.5 -134v-173v-173.5q0 -141 -2.5 -236t-6.5 -118zM238 1737q6 2 32.5 3t58 2t64.5 2t51 1 q8 -14 34 -44t57.5 -66t64.5 -71.5t59 -62.5q12 -14 15.5 -24.5t5.5 -14.5q-27 8 -51.5 10.5t-50.5 2.5q-14 0 -30 -2.5t-26 -6.5q-16 16 -56 54.5t-86 81.5t-87 80.5t-55 54.5zM303 1710q27 -23 60.5 -52.5t65.5 -58t59.5 -55.5t41.5 -41q6 4 25.5 4h44.5 q-16 25 -40.5 55.5t-49.5 59.5t-46.5 52.5t-31.5 31.5q-27 0 -63.5 2t-65.5 2z" />
<glyph unicode="&#xda;" horiz-adv-x="1001" d="M109 1384q12 0 49 2.5t71 2.5q14 0 43 -1.5t47 -11.5q0 -8 -1 -76.5t-2 -169t-3 -215t-3 -214t-3 -166t-2 -70.5q6 -43 14.5 -98.5t27 -103.5t51 -80.5t87.5 -32.5q113 0 162 77.5t60 255.5q-4 6 -6.5 51.5t-2.5 113v152.5v171v149.5t1 129t1 96v49.5q25 -4 44.5 -4 t50.5 2q39 0 69.5 3t26.5 1l4 -490v-150.5v-127v-93v-49.5q6 -154 -36 -255t-105.5 -161.5t-136 -85t-128.5 -24.5q-74 14 -136 35.5t-97 73.5q-66 53 -106.5 164.5t-32.5 252.5q4 23 4 116v233q0 92 -1 187t-3 173t-4 130t-4 58zM143 471q-2 -109 25 -196t73 -148 t107.5 -95t128.5 -34q115 -4 189.5 39t118.5 114.5t61.5 161.5t17.5 183q0 8 -1 66.5t-1 144.5t-1 187t-1 194.5t1 166t3 103.5q-20 4 -63 3t-72 -7q4 -14 4 -52v-98q0 -63 -1 -141t-2 -160t-2 -159.5t-2 -138t-3 -99.5t-2 -41q0 -31 -1 -71t-9.5 -80t-25.5 -77.5t-50 -64.5 q-10 -29 -43 -48.5t-84 -19.5q-20 0 -35.5 2.5t-33 9.5t-38 19t-51.5 33q-27 45 -53.5 124t-30.5 185q0 16 6.5 106.5t6.5 225.5l-5 545q-37 4 -70.5 5t-56.5 3q2 -2 3.5 -56.5t1.5 -134v-173v-173.5q0 -141 -2.5 -236t-6.5 -118zM397 1479q12 16 44 56t68 83t66.5 80 t40.5 49q18 -4 48 -3l60 2t52.5 2t26.5 -1q24 -16 8 -45q-10 -8 -50 -43t-86 -75t-85 -73.5t-45 -37.5h-35t-45.5 1t-42 2t-25.5 3zM455 1507q16 -4 38.5 -4h38.5q18 14 48 41t62 56.5t63.5 58.5t52.5 47q-29 -4 -60.5 -4h-52.5q-4 0 -29.5 -25.5t-58.5 -59.5t-62.5 -65.5 t-39.5 -44.5z" />
<glyph unicode="&#xdb;" horiz-adv-x="1001" d="M109 1384q12 0 49 2.5t71 2.5q14 0 43 -1.5t47 -11.5q0 -8 -1 -76.5t-2 -169t-3 -215t-3 -214t-3 -166t-2 -70.5q6 -43 14.5 -98.5t27 -103.5t51 -80.5t87.5 -32.5q113 0 162 77.5t60 255.5q-4 6 -6.5 51.5t-2.5 113v152.5v171v149.5t1 129t1 96v49.5q25 -4 44.5 -4 t50.5 2q39 0 69.5 3t26.5 1l4 -490v-150.5v-127v-93v-49.5q6 -154 -36 -255t-105.5 -161.5t-136 -85t-128.5 -24.5q-74 14 -136 35.5t-97 73.5q-66 53 -106.5 164.5t-32.5 252.5q4 23 4 116v233q0 92 -1 187t-3 173t-4 130t-4 58zM143 471q-2 -109 25 -196t73 -148 t107.5 -95t128.5 -34q115 -4 189.5 39t118.5 114.5t61.5 161.5t17.5 183q0 8 -1 66.5t-1 144.5t-1 187t-1 194.5t1 166t3 103.5q-20 4 -63 3t-72 -7q4 -14 4 -52v-98q0 -63 -1 -141t-2 -160t-2 -159.5t-2 -138t-3 -99.5t-2 -41q0 -31 -1 -71t-9.5 -80t-25.5 -77.5t-50 -64.5 q-10 -29 -43 -48.5t-84 -19.5q-20 0 -35.5 2.5t-33 9.5t-38 19t-51.5 33q-27 45 -53.5 124t-30.5 185q0 16 6.5 106.5t6.5 225.5l-5 545q-37 4 -70.5 5t-56.5 3q2 -2 3.5 -56.5t1.5 -134v-173v-173.5q0 -141 -2.5 -236t-6.5 -118zM258 1491q2 6 28.5 45t57.5 83t55.5 81 t22.5 39q20 2 33.5 2h58.5h28.5t24.5 2q4 -6 19.5 -26.5t36 -46t43 -54.5t42 -53.5t33 -41t13.5 -18.5q0 -18 -15 -37q-6 2 -24.5 4.5t-41 5.5t-43 5t-30.5 4q-8 0 -22 -10q0 2 -2.5 7t-10.5 18t-24.5 40t-44.5 70q-8 -14 -21.5 -34t-27 -39t-27.5 -36.5t-23 -25.5 q-6 4 -26.5 6t-44 4t-43 3t-25.5 3zM293 1511h86q6 0 23.5 21.5t36 47.5t32.5 46.5t16 20.5q4 4 6.5 8t6.5 10l9 -9t5 -9q-2 2 10.5 -15.5t27.5 -40t30.5 -45t21.5 -30.5q10 -2 26.5 -3.5t37.5 -1.5h41q-16 23 -43 55.5t-51.5 63.5t-43 53.5t-20.5 22.5q-6 2 -23.5 3t-37 2 t-36 0t-20.5 -3q0 -2 -17.5 -26.5t-40 -57.5t-46 -64.5t-37.5 -48.5z" />
<glyph unicode="&#xdc;" horiz-adv-x="1001" d="M109 1384q12 0 49 2.5t71 2.5q14 0 43 -1.5t47 -11.5q0 -8 -1 -76.5t-2 -169t-3 -215t-3 -214t-3 -166t-2 -70.5q6 -43 14.5 -98.5t27 -103.5t51 -80.5t87.5 -32.5q113 0 162 77.5t60 255.5q-4 6 -6.5 51.5t-2.5 113v152.5v171v149.5t1 129t1 96v49.5q25 -4 44.5 -4 t50.5 2q39 0 69.5 3t26.5 1l4 -490v-150.5v-127v-93v-49.5q6 -154 -36 -255t-105.5 -161.5t-136 -85t-128.5 -24.5q-74 14 -136 35.5t-97 73.5q-66 53 -106.5 164.5t-32.5 252.5q4 23 4 116v233q0 92 -1 187t-3 173t-4 130t-4 58zM143 471q-2 -109 25 -196t73 -148 t107.5 -95t128.5 -34q115 -4 189.5 39t118.5 114.5t61.5 161.5t17.5 183q0 8 -1 66.5t-1 144.5t-1 187t-1 194.5t1 166t3 103.5q-20 4 -63 3t-72 -7q4 -14 4 -52v-98q0 -63 -1 -141t-2 -160t-2 -159.5t-2 -138t-3 -99.5t-2 -41q0 -31 -1 -71t-9.5 -80t-25.5 -77.5t-50 -64.5 q-10 -29 -43 -48.5t-84 -19.5q-20 0 -35.5 2.5t-33 9.5t-38 19t-51.5 33q-27 45 -53.5 124t-30.5 185q0 16 6.5 106.5t6.5 225.5l-5 545q-37 4 -70.5 5t-56.5 3q2 -2 3.5 -56.5t1.5 -134v-173v-173.5q0 -141 -2.5 -236t-6.5 -118zM233 1624q10 43 44 72.5t81 29.5 q6 0 19.5 -2t29 -10t26.5 -23.5t11 -39.5q0 -18 -7 -46t-20.5 -51.5t-34.5 -37t-48 -5.5q-10 -2 -15.5 -1t-9.5 1q-10 0 -15 7.5t-15 11.5q-16 16 -25.5 42.5t-20.5 51.5zM274 1628q4 -35 9.5 -45t13.5 -27q16 9 53 -22q49 23 56.5 46.5t7.5 43.5q0 14 -9.5 28.5t-23.5 24.5 v4q0 10 -12.5 9.5t-18.5 5.5q-16 0 -29.5 -9.5t-23.5 -21.5q-10 -8 -13 -19.5t-10 -17.5zM567 1575q0 10 1 20.5t7 24.5q-4 4 -4 8v8q0 39 26 64.5t77 25.5q8 -6 29.5 -8t37.5 -22q23 -16 27 -31.5t10 -50.5q-6 -20 -13 -42t-28 -26q-4 -14 -13 -21t-18.5 -10.5t-17.5 -4.5 t-14 -3q-20 6 -45 12.5t-49 14.5q-12 18 -13 41zM598 1602q0 -10 4 -20.5t4 -25.5q10 -4 25 -6t35 -16q23 -2 45 25.5t26 68.5q0 4 2 7t2 7q0 10 -4 19.5t-8 19.5q-16 0 -35.5 3.5t-31.5 15.5q-31 0 -47.5 -24.5t-16.5 -33.5q0 -10 4 -14q-4 -10 -4 -15v-11z" />
<glyph unicode="&#xdd;" horiz-adv-x="856" d="M16 1337q-10 23 2 39q2 6 29 8t59.5 2h60.5t34 3q4 -4 16 -32t28.5 -69t33 -87t31 -84t23.5 -63.5t9 -23.5q25 -61 49.5 -125.5t44.5 -132.5q16 61 37 126t55 132q4 0 15.5 25.5t26 63.5t30.5 83t29.5 83t20.5 64.5t7 30.5q16 4 51 8.5t64 6.5t42 3t24 1q8 -6 14 -11.5 t10 -9.5q0 -6 -24.5 -63.5t-60.5 -141t-78 -182t-79.5 -184.5t-65.5 -147.5t-32 -71.5v-117q0 -63 1 -142t2 -149.5t3 -120t4 -53.5q-2 -4 -6 -6t-6 -4q-8 2 -34.5 0t-57.5 -4t-58.5 -4t-37.5 -2q-2 20 -4 70t-3 115t-1 135.5v130t1 99t1 44.5q-18 43 -48 114.5t-64 154.5 t-68.5 169t-62.5 155.5t-46.5 114.5t-20.5 49zM45 1350q12 -31 39 -98.5t60.5 -150.5t69.5 -173t66.5 -165t53 -125t26.5 -56q0 -4 1 -42t2.5 -93.5t2.5 -121t1 -127v-110.5t-2 -72q35 4 76.5 4t58.5 -6q-8 18 -8 81v155v338q0 6 21.5 59t55 130t72.5 167t75 174t63.5 149.5 t35.5 90.5q-14 0 -32.5 -1t-38 -3t-36 -4t-24.5 -4q-10 -25 -29.5 -77t-39 -107.5t-37 -98.5t-21.5 -45q-35 -72 -53.5 -148.5t-38.5 -154.5q-4 -8 -11.5 -11.5t-13.5 -5.5q-16 -4 -20 11q-25 92 -54.5 167.5t-46.5 131.5q-6 2 -25.5 46t-42 102t-42 115.5t-25.5 82.5h-25.5 h-37t-41 -1t-35.5 -3zM324 1479q12 16 43.5 56t67.5 83t66.5 80t41.5 49q18 -4 48 -3t59.5 2t52 2t26.5 -1q24 -16 8 -45q-10 -8 -50 -43t-86 -75t-85 -73.5t-45 -37.5h-34.5t-45 1t-42 2t-25.5 3zM381 1507q16 -4 39 -4h39q18 14 48 41t61.5 56.5t63.5 58.5t52 47 q-29 -4 -60.5 -4h-52.5q-4 0 -29.5 -25.5t-58 -59.5t-62.5 -65.5t-40 -44.5z" />
<glyph unicode="&#xde;" horiz-adv-x="858" d="M100 4l2 56q2 55 3 146t3.5 208.5t3.5 242.5t3 247t3 221.5t3 167t2 83.5q6 4 31.5 6t55.5 3t56.5 1t36.5 -2q-2 -10 -4 -43.5t-3 -74.5t-1 -80v-62q4 -4 19.5 -3t31.5 2t31.5 3t19.5 2q96 -4 171 -30.5t141 -67.5q20 -37 39.5 -72.5t34 -71.5t23.5 -71t7 -70 q4 -111 -25.5 -187.5t-97.5 -119.5q-25 -35 -64.5 -60.5t-82.5 -44t-87 -27.5t-77 -9q-12 0 -32.5 6t-43.5 12q-4 -27 -6 -78t-2 -102q0 -53 2 -79.5t6 -51.5q-23 -16 -50.5 -16h-53.5q-25 2 -43.5 -1t-32.5 -7zM141 23q23 -4 59 -6.5t62 -2.5q4 18 5 66.5t0 102t-2 102.5 t-3 69q18 -4 41 -10t37 -6q104 0 177 23.5t122 60.5t75.5 84t41 94t17.5 89t3 71q0 74 -23.5 136t-74.5 108q-51 47 -114.5 65t-151.5 29q-45 -10 -73 -9t-63 -12l-4 273q-39 4 -69.5 3t-57.5 -3q-2 -33 -2 -130.5v-230.5v-283.5v-287.5t-1 -243.5t-1 -151.5zM262 451 q4 2 7 25.5t4 62.5t2 87t1 97q0 47 -1 93t-1 82t-1 58.5t-1 24.5q23 16 56.5 17t64.5 6q51 -10 100.5 -26.5t79.5 -59.5q25 -18 38.5 -37t20.5 -41.5t10 -51t7 -65.5q0 -23 -8 -71t-35.5 -97t-81 -86t-145.5 -37q-37 8 -59.5 10t-57.5 9zM295 483q23 -10 42 -10t42 -12 q113 10 172 73.5t59 180.5q0 59 -7 105t-48 75q-23 35 -73 49t-111 14q-16 0 -30.5 -3t-29.5 -3q-2 -18 -4 -79.5t-4 -136t-4 -145.5t-4 -108z" />
<glyph unicode="&#xdf;" horiz-adv-x="921" d="M94 928q14 156 39 261t96 157q45 45 109.5 74.5t175.5 29.5q59 0 116.5 -22.5t108.5 -63.5q35 -35 53.5 -92.5t18.5 -155.5q4 -6 4 -16.5v-20.5q-2 -55 -15.5 -80.5t-41.5 -54.5q-41 -23 -62.5 -43t-32 -40.5t-12.5 -41t-2 -45.5q0 -51 19.5 -86t70.5 -76 q66 -66 99.5 -139.5t44.5 -175.5q-16 -61 -30.5 -119.5t-55.5 -101.5q-57 -47 -125 -71.5t-135 -33.5q-53 10 -104.5 16.5t-80.5 16.5q-4 18 2 46t15.5 55.5t16.5 47t7 23.5q16 -8 48 -25.5t100 -17.5q78 0 113.5 44t35.5 120q0 68 -33.5 111t-85.5 86q-47 47 -79.5 115.5 t-36.5 160.5q2 33 13 70t31.5 71.5t51.5 64.5t72 50q2 8 3 24.5t2 34t2 34t1 24.5q0 47 -20.5 76.5t-45 46t-48 21.5t-30.5 5h-6q-49 -8 -80.5 -18t-51 -46t-32 -106.5t-20.5 -199.5q-2 -2 -2 -44t-1 -112t-2 -162t-2 -195.5t-1 -213v-211.5q-12 2 -35 3t-49.5 4t-51 7 t-40.5 10q-2 0 -3 39t-1 102.5t-1.5 146.5t-2.5 169t-2 169t-2 147.5t-3 104.5t-4 42zM127 922q2 -2 3 -59.5t2 -146.5t1 -195.5v-204t-1 -173t-1 -104.5h29.5t40 -1t40 -3t29.5 -4q0 20 1 79.5t2 139.5t1 172v178v158.5v113.5v46q-4 190 44.5 295.5t136.5 105.5h55 q37 0 113 -45q20 -35 34.5 -84t14.5 -115q0 -20 -10.5 -48t-22.5 -42q-68 -37 -113 -93t-45 -132q0 -78 40 -135.5t87 -98.5q41 -61 74 -116.5t39 -112.5q0 -25 -8 -58.5t-26.5 -62.5t-45.5 -49.5t-63 -20.5h-25.5t-26.5 5q-10 0 -19 -2.5t-20 -2.5q-25 0 -45 5.5t-36 9.5 l-27 -86q31 -14 69.5 -17.5t83.5 -9.5q61 4 117 23.5t99 55.5t67.5 90t22.5 128q-6 96 -31 164t-90 129q-47 31 -76 77t-41 118q12 51 46 102t116 72q14 29 22.5 70.5t8.5 82.5q0 51 -12.5 103.5t-42 95.5t-80 70.5t-126.5 27.5q-53 0 -120.5 -8t-129 -54t-105.5 -146.5 t-50 -286.5z" />
<glyph unicode="&#xe0;" horiz-adv-x="786" d="M41 274q14 166 126 262.5t327 100.5q2 18 2 41.5v38.5q0 33 -13.5 59.5t-32 45t-40 28.5t-35.5 10q-4 0 -28.5 -5t-57.5 -14.5t-69 -19.5t-60 -20q-2 6 -9.5 27.5t-15.5 46t-13 44t-3 19.5q8 12 36.5 25.5t65.5 23.5t79 18.5t79 12.5q72 -6 123 -22.5t88 -67.5 q45 -37 72.5 -108.5t23.5 -188.5q2 4 3 -15.5t2 -52.5t2 -76t1 -86q2 -41 -2 -90t-12 -86q10 -51 13 -113.5t9 -115.5q4 -10 -16 -19q-2 4 -19.5 5.5t-40 1.5h-45t-36.5 2q-4 2 -5 2t-5 2q-6 6 -7 10q0 8 -3 25.5t-7 33.5q-41 -35 -103.5 -64.5t-121.5 -29.5q-37 0 -80 24.5 t-86 59.5q-31 35 -53.5 94.5t-32.5 130.5zM78 274q8 -59 25.5 -117.5t64.5 -88.5q23 -27 62.5 -48.5t76.5 -31.5q66 6 120 36.5t83 98.5q4 10 20 10q6 0 13.5 -6t11.5 -10t-4 -17q0 2 0 -8v-25.5t1 -31t3 -25.5l109 4q2 12 0 43t-5.5 67t-6.5 67.5t-3 44.5q4 70 4 179v226 q-4 94 -20.5 159.5t-48 105.5t-80.5 58.5t-121 18.5q-6 0 -33.5 -3t-63.5 -10t-73 -19.5t-63 -30.5l34 -72q39 16 81 31.5t87 21.5q51 -4 76 -12t59 -29q14 -23 25.5 -42t17 -43.5t6.5 -60.5t-6 -91q-199 -8 -319.5 -98.5t-132.5 -250.5zM117 1372q10 33 33 45q8 -2 31.5 -3 t50.5 -3t49.5 -5t30.5 -7t34.5 -47t56.5 -96.5t54.5 -100.5t28.5 -57q-6 -4 -9 -4t-14 -4q-18 4 -49.5 5t-54.5 3q-25 27 -55.5 66.5t-63.5 79.5t-64.5 75t-58.5 53zM185 1368q23 -29 54.5 -70t62 -78.5t53 -64.5t24.5 -27q27 -2 64 0q-16 27 -39 68t-45.5 80t-41 66.5 t-24.5 29.5h-16h-32.5t-36 -1t-23.5 -3zM207 244l6 53q0 37 12.5 78t47 73.5t97 54t162.5 19.5v-41v-74.5t1.5 -75.5t3.5 -48q0 -12 -9.5 -42t-29 -60.5t-48 -55.5t-67.5 -25h-18q-6 -4 -15.5 -5t-15.5 -1q-8 0 -29.5 7.5t-43 24.5t-38 46t-16.5 72zM252 289q0 -27 1 -45.5 t4 -33.5t9 -31.5t15 -39.5q12 -6 27.5 -11t29.5 -5q55 0 89 24.5t51.5 55t22.5 58.5t5 32q0 12 -1 34.5t-2 50.5t0 55.5t3 49.5q-68 -4 -122 -17t-91 -38q-16 -20 -28.5 -59t-12.5 -80z" />
<glyph unicode="&#xe1;" horiz-adv-x="786" d="M41 274q14 166 126 262.5t327 100.5q2 18 2 41.5v38.5q0 33 -13.5 59.5t-32 45t-40 28.5t-35.5 10q-4 0 -28.5 -5t-57.5 -14.5t-69 -19.5t-60 -20q-2 6 -9.5 27.5t-15.5 46t-13 44t-3 19.5q8 12 36.5 25.5t65.5 23.5t79 18.5t79 12.5q72 -6 123 -22.5t88 -67.5 q45 -37 72.5 -108.5t23.5 -188.5q2 4 3 -15.5t2 -52.5t2 -76t1 -86q2 -41 -2 -90t-12 -86q10 -51 13 -113.5t9 -115.5q4 -10 -16 -19q-2 4 -19.5 5.5t-40 1.5h-45t-36.5 2q-4 2 -5 2t-5 2q-6 6 -7 10q0 8 -3 25.5t-7 33.5q-41 -35 -103.5 -64.5t-121.5 -29.5q-37 0 -80 24.5 t-86 59.5q-31 35 -53.5 94.5t-32.5 130.5zM78 274q8 -59 25.5 -117.5t64.5 -88.5q23 -27 62.5 -48.5t76.5 -31.5q66 6 120 36.5t83 98.5q4 10 20 10q6 0 13.5 -6t11.5 -10t-4 -17q0 2 0 -8v-25.5t1 -31t3 -25.5l109 4q2 12 0 43t-5.5 67t-6.5 67.5t-3 44.5q4 70 4 179v226 q-4 94 -20.5 159.5t-48 105.5t-80.5 58.5t-121 18.5q-6 0 -33.5 -3t-63.5 -10t-73 -19.5t-63 -30.5l34 -72q39 16 81 31.5t87 21.5q51 -4 76 -12t59 -29q14 -23 25.5 -42t17 -43.5t6.5 -60.5t-6 -91q-199 -8 -319.5 -98.5t-132.5 -250.5zM207 244l6 53q0 37 12.5 78t47 73.5 t97 54t162.5 19.5v-41v-74.5t1.5 -75.5t3.5 -48q0 -12 -9.5 -42t-29 -60.5t-48 -55.5t-67.5 -25h-18q-6 -4 -15.5 -5t-15.5 -1q-8 0 -29.5 7.5t-43 24.5t-38 46t-16.5 72zM252 289q0 -27 1 -45.5t4 -33.5t9 -31.5t15 -39.5q12 -6 27.5 -11t29.5 -5q55 0 89 24.5t51.5 55 t22.5 58.5t5 32q0 12 -1 34.5t-2 50.5t0 55.5t3 49.5q-68 -4 -122 -17t-91 -38q-16 -20 -28.5 -59t-12.5 -80zM281 1100q0 6 20.5 41t49 82t58 98t46.5 92q8 -2 34.5 -5t56.5 -6t56.5 -4t34.5 -1q4 -2 11.5 -5t11.5 -8q-2 -2 -18.5 -22.5t-41 -51t-53.5 -66.5t-54.5 -66.5 t-45 -52t-25.5 -25.5q-18 -6 -55.5 -6.5t-57.5 -8.5q-4 2 -12 4.5t-16 10.5zM344 1122q16 0 39 1t29 5q2 8 22.5 37t46 66t54 74.5t49.5 64.5q-31 0 -62.5 -2t-46.5 -2z" />
<glyph unicode="&#xe2;" horiz-adv-x="786" d="M41 274q14 166 126 262.5t327 100.5q2 18 2 41.5v38.5q0 33 -13.5 59.5t-32 45t-40 28.5t-35.5 10q-4 0 -28.5 -5t-57.5 -14.5t-69 -19.5t-60 -20q-2 6 -9.5 27.5t-15.5 46t-13 44t-3 19.5q8 12 36.5 25.5t65.5 23.5t79 18.5t79 12.5q72 -6 123 -22.5t88 -67.5 q45 -37 72.5 -108.5t23.5 -188.5q2 4 3 -15.5t2 -52.5t2 -76t1 -86q2 -41 -2 -90t-12 -86q10 -51 13 -113.5t9 -115.5q4 -10 -16 -19q-2 4 -19.5 5.5t-40 1.5h-45t-36.5 2q-4 2 -5 2t-5 2q-6 6 -7 10q0 8 -3 25.5t-7 33.5q-41 -35 -103.5 -64.5t-121.5 -29.5q-37 0 -80 24.5 t-86 59.5q-31 35 -53.5 94.5t-32.5 130.5zM78 274q8 -59 25.5 -117.5t64.5 -88.5q23 -27 62.5 -48.5t76.5 -31.5q66 6 120 36.5t83 98.5q4 10 20 10q6 0 13.5 -6t11.5 -10t-4 -17q0 2 0 -8v-25.5t1 -31t3 -25.5l109 4q2 12 0 43t-5.5 67t-6.5 67.5t-3 44.5q4 70 4 179v226 q-4 94 -20.5 159.5t-48 105.5t-80.5 58.5t-121 18.5q-6 0 -33.5 -3t-63.5 -10t-73 -19.5t-63 -30.5l34 -72q39 16 81 31.5t87 21.5q51 -4 76 -12t59 -29q14 -23 25.5 -42t17 -43.5t6.5 -60.5t-6 -91q-199 -8 -319.5 -98.5t-132.5 -250.5zM166 1098q2 4 27.5 51t57.5 102.5 t59.5 102.5t31.5 53h18.5h31h30.5h20q4 -6 19.5 -28.5t34 -53.5t40 -66.5t41 -66.5t33 -53.5t17.5 -28.5q-2 -8 -11.5 -16.5t-15.5 -12.5q-10 10 -53 11q-16 0 -42 -3.5t-36 3.5q-4 20 -26.5 66t-45.5 91q-10 -20 -25.5 -47.5t-29.5 -52.5t-25.5 -42.5t-13.5 -19.5t-13 -2 t-25.5 2.5t-28 3.5t-19.5 1q-10 0 -16 -2.5t-11 -2.5q-4 0 -12 2.5t-12 8.5zM207 244l6 53q0 37 12.5 78t47 73.5t97 54t162.5 19.5v-41v-74.5t1.5 -75.5t3.5 -48q0 -12 -9.5 -42t-29 -60.5t-48 -55.5t-67.5 -25h-18q-6 -4 -15.5 -5t-15.5 -1q-8 0 -29.5 7.5t-43 24.5 t-38 46t-16.5 72zM221 1133q16 0 38 -1.5t34 -5.5l21.5 43t27.5 53.5t25.5 46t15.5 21.5l7 7t7 8q16 0 23 -7q8 -20 19.5 -46.5t22.5 -51t22.5 -45t17.5 -29.5q12 4 33.5 4t37.5 -4q-14 25 -35.5 62t-44 73.5t-41 66.5t-24.5 42q-6 0 -32.5 2t-39.5 -2q-8 -16 -24.5 -46 t-36 -64.5t-40 -69t-34.5 -57.5zM252 289q0 -27 1 -45.5t4 -33.5t9 -31.5t15 -39.5q12 -6 27.5 -11t29.5 -5q55 0 89 24.5t51.5 55t22.5 58.5t5 32q0 12 -1 34.5t-2 50.5t0 55.5t3 49.5q-68 -4 -122 -17t-91 -38q-16 -20 -28.5 -59t-12.5 -80z" />
<glyph unicode="&#xe3;" horiz-adv-x="786" d="M41 274q14 166 126 262.5t327 100.5q2 18 2 41.5v38.5q0 33 -13.5 59.5t-32 45t-40 28.5t-35.5 10q-4 0 -28.5 -5t-57.5 -14.5t-69 -19.5t-60 -20q-2 6 -9.5 27.5t-15.5 46t-13 44t-3 19.5q8 12 36.5 25.5t65.5 23.5t79 18.5t79 12.5q72 -6 123 -22.5t88 -67.5 q45 -37 72.5 -108.5t23.5 -188.5q2 4 3 -15.5t2 -52.5t2 -76t1 -86q2 -41 -2 -90t-12 -86q10 -51 13 -113.5t9 -115.5q4 -10 -16 -19q-2 4 -19.5 5.5t-40 1.5h-45t-36.5 2q-4 2 -5 2t-5 2q-6 6 -7 10q0 8 -3 25.5t-7 33.5q-41 -35 -103.5 -64.5t-121.5 -29.5q-37 0 -80 24.5 t-86 59.5q-31 35 -53.5 94.5t-32.5 130.5zM78 274q8 -59 25.5 -117.5t64.5 -88.5q23 -27 62.5 -48.5t76.5 -31.5q66 6 120 36.5t83 98.5q4 10 20 10q6 0 13.5 -6t11.5 -10t-4 -17q0 2 0 -8v-25.5t1 -31t3 -25.5l109 4q2 12 0 43t-5.5 67t-6.5 67.5t-3 44.5q4 70 4 179v226 q-4 94 -20.5 159.5t-48 105.5t-80.5 58.5t-121 18.5q-6 0 -33.5 -3t-63.5 -10t-73 -19.5t-63 -30.5l34 -72q39 16 81 31.5t87 21.5q51 -4 76 -12t59 -29q14 -23 25.5 -42t17 -43.5t6.5 -60.5t-6 -91q-199 -8 -319.5 -98.5t-132.5 -250.5zM154 1120q0 14 1 27.5t5 32t12 46 t23 74.5q16 23 45.5 28t56.5 13q35 -4 60.5 -11t47.5 -30q0 -10 23 -23t37 -13q4 0 9 3t5 7q16 0 25.5 11t9.5 42q0 6 7 10t11 4q16 4 44 -2t55 -4q8 -61 -11.5 -95t-48.5 -62q-10 -20 -30.5 -37t-67.5 -17q-20 0 -52 21.5t-56 32.5q-10 8 -24.5 20t-29.5 12q-29 0 -37 -18 t-4 -49q-2 -2 -7 -13.5t-19 -19.5q-20 2 -39 6q-16 2 -30.5 4t-20.5 0zM184 1155q16 0 31.5 1t24.5 5q0 8 1 21.5t9 26t23.5 20.5t45.5 8q16 0 28.5 -9t35.5 -26q23 -4 41 -20.5t41 -16.5q59 0 94 39t31 105h-45q6 -16 -1 -29.5t-19.5 -24t-28 -16.5t-27.5 -6q-20 0 -36.5 6 t-31.5 29q-31 6 -55 21.5t-49 15.5q-8 0 -12 -5h-36t-24 -14q-35 -41 -41 -131zM207 244l6 53q0 37 12.5 78t47 73.5t97 54t162.5 19.5v-41v-74.5t1.5 -75.5t3.5 -48q0 -12 -9.5 -42t-29 -60.5t-48 -55.5t-67.5 -25h-18q-6 -4 -15.5 -5t-15.5 -1q-8 0 -29.5 7.5t-43 24.5 t-38 46t-16.5 72zM252 289q0 -27 1 -45.5t4 -33.5t9 -31.5t15 -39.5q12 -6 27.5 -11t29.5 -5q55 0 89 24.5t51.5 55t22.5 58.5t5 32q0 12 -1 34.5t-2 50.5t0 55.5t3 49.5q-68 -4 -122 -17t-91 -38q-16 -20 -28.5 -59t-12.5 -80z" />
</font>
</defs>
</svg>
